Khula-wt439.67.ufo
<glyph name="exclam.deva" format="1">
  <advance width="844"/>
  <unicode hex="0021"/>
  <outline>
    <contour>
      <point x="499" y="393" type="line"/>
      <point x="346" y="393" type="line"/>
      <point x="300" y="1316" type="line"/>
      <point x="545" y="1316" type="line"/>
    </contour>
    <contour>
      <point x="289" y="111" type="curve" smooth="yes"/>
      <point x="289" y="201"/>
      <point x="334" y="249"/>
      <point x="421" y="249" type="curve" smooth="yes"/>
      <point x="506" y="249"/>
      <point x="553" y="199"/>
      <point x="553" y="111" type="curve" smooth="yes"/>
      <point x="553" y="25"/>
      <point x="504" y="-25"/>
      <point x="421" y="-25" type="curve" smooth="yes"/>
      <point x="342" y="-25"/>
      <point x="289" y="19"/>
    </contour>
  </outline>
</glyph>
<glyph name="exclam" format="1">
  <advance width="561"/>
  <unicode hex="0021"/>
  <outline>
    <contour>
      <point x="365" y="398" type="line"/>
      <point x="196" y="398" type="line"/>
      <point x="161" y="1316" type="line"/>
      <point x="400" y="1316" type="line"/>
    </contour>
    <contour>
      <point x="152" y="107" type="curve" smooth="yes"/>
      <point x="152" y="190"/>
      <point x="196" y="235"/>
      <point x="279" y="235" type="curve" smooth="yes"/>
      <point x="363" y="235"/>
      <point x="406" y="190"/>
      <point x="406" y="107" type="curve" smooth="yes"/>
      <point x="406" y="25"/>
      <point x="360" y="-20"/>
      <point x="279" y="-20" type="curve" smooth="yes"/>
      <point x="198" y="-20"/>
      <point x="152" y="25"/>
    </contour>
  </outline>
</glyph>
<glyph name="quotedbl.deva" format="1">
  <advance width="1155"/>
  <unicode hex="0022"/>
  <outline>
    <contour>
      <point x="503" y="1316" type="line"/>
      <point x="467" y="841" type="line"/>
      <point x="329" y="841" type="line"/>
      <point x="292" y="1316" type="line"/>
    </contour>
    <contour>
      <point x="864" y="1316" type="line"/>
      <point x="827" y="841" type="line"/>
      <point x="688" y="841" type="line"/>
      <point x="651" y="1316" type="line"/>
    </contour>
  </outline>
</glyph>
<glyph name="quotedbl" format="1">
  <advance width="892"/>
  <unicode hex="0022"/>
  <outline>
    <contour>
      <point x="372" y="1316" type="line"/>
      <point x="336" y="841" type="line"/>
      <point x="197" y="841" type="line"/>
      <point x="160" y="1316" type="line"/>
    </contour>
    <contour>
      <point x="732" y="1316" type="line"/>
      <point x="695" y="841" type="line"/>
      <point x="557" y="841" type="line"/>
      <point x="520" y="1316" type="line"/>
    </contour>
  </outline>
</glyph>
<glyph name="numbersign.deva" format="1">
  <advance width="1302"/>
  <unicode hex="0023"/>
  <outline>
    <contour>
      <point x="951" y="786" type="line"/>
      <point x="901" y="526" type="line"/>
      <point x="1145" y="526" type="line"/>
      <point x="1145" y="377" type="line"/>
      <point x="873" y="377" type="line"/>
      <point x="800" y="0" type="line"/>
      <point x="643" y="0" type="line"/>
      <point x="715" y="377" type="line"/>
      <point x="478" y="377" type="line"/>
      <point x="407" y="0" type="line"/>
      <point x="250" y="0" type="line"/>
      <point x="320" y="377" type="line"/>
      <point x="94" y="377" type="line"/>
      <point x="94" y="526" type="line"/>
      <point x="349" y="526" type="line"/>
      <point x="400" y="786" type="line"/>
      <point x="161" y="786" type="line"/>
      <point x="161" y="936" type="line"/>
      <point x="427" y="936" type="line"/>
      <point x="499" y="1316" type="line"/>
      <point x="658" y="1316" type="line"/>
      <point x="586" y="936" type="line"/>
      <point x="824" y="936" type="line"/>
      <point x="896" y="1316" type="line"/>
      <point x="1052" y="1316" type="line"/>
      <point x="979" y="936" type="line"/>
      <point x="1208" y="936" type="line"/>
      <point x="1208" y="786" type="line"/>
    </contour>
    <contour>
      <point x="506" y="526" type="line"/>
      <point x="743" y="526" type="line"/>
      <point x="793" y="786" type="line"/>
      <point x="557" y="786" type="line"/>
    </contour>
  </outline>
</glyph>
<glyph name="numbersign" format="1">
  <advance width="1200"/>
  <unicode hex="0023"/>
  <outline>
    <contour>
      <point x="899" y="786" type="line"/>
      <point x="849" y="526" type="line"/>
      <point x="1093" y="526" type="line"/>
      <point x="1093" y="377" type="line"/>
      <point x="821" y="377" type="line"/>
      <point x="748" y="0" type="line"/>
      <point x="591" y="0" type="line"/>
      <point x="663" y="377" type="line"/>
      <point x="426" y="377" type="line"/>
      <point x="355" y="0" type="line"/>
      <point x="199" y="0" type="line"/>
      <point x="268" y="377" type="line"/>
      <point x="42" y="377" type="line"/>
      <point x="42" y="526" type="line"/>
      <point x="297" y="526" type="line"/>
      <point x="348" y="786" type="line"/>
      <point x="110" y="786" type="line"/>
      <point x="110" y="936" type="line"/>
      <point x="375" y="936" type="line"/>
      <point x="447" y="1316" type="line"/>
      <point x="606" y="1316" type="line"/>
      <point x="534" y="936" type="line"/>
      <point x="772" y="936" type="line"/>
      <point x="844" y="1316" type="line"/>
      <point x="1000" y="1316" type="line"/>
      <point x="927" y="936" type="line"/>
      <point x="1156" y="936" type="line"/>
      <point x="1156" y="786" type="line"/>
    </contour>
    <contour>
      <point x="454" y="526" type="line"/>
      <point x="691" y="526" type="line"/>
      <point x="742" y="786" type="line"/>
      <point x="505" y="786" type="line"/>
    </contour>
  </outline>
</glyph>
<glyph name="percent" format="1">
  <advance width="1543"/>
  <unicode hex="0025"/>
  <outline>
    <contour>
      <point x="243" y="923" type="curve" smooth="yes"/>
      <point x="243" y="736"/>
      <point x="274" y="643"/>
      <point x="361" y="643" type="curve" smooth="yes"/>
      <point x="445" y="643"/>
      <point x="486" y="736"/>
      <point x="486" y="923" type="curve" smooth="yes"/>
      <point x="486" y="1110"/>
      <point x="447" y="1204"/>
      <point x="361" y="1204" type="curve" smooth="yes"/>
      <point x="274" y="1204"/>
      <point x="243" y="1112"/>
    </contour>
    <contour>
      <point x="640" y="923" type="curve" smooth="yes"/>
      <point x="640" y="648"/>
      <point x="545" y="508"/>
      <point x="361" y="508" type="curve" smooth="yes"/>
      <point x="185" y="508"/>
      <point x="87" y="653"/>
      <point x="87" y="923" type="curve" smooth="yes"/>
      <point x="87" y="1200"/>
      <point x="180" y="1335"/>
      <point x="361" y="1335" type="curve" smooth="yes"/>
      <point x="543" y="1335"/>
      <point x="640" y="1189"/>
    </contour>
    <contour>
      <point x="1057" y="398" type="curve" smooth="yes"/>
      <point x="1057" y="207"/>
      <point x="1088" y="116"/>
      <point x="1177" y="116" type="curve" smooth="yes"/>
      <point x="1265" y="116"/>
      <point x="1302" y="202"/>
      <point x="1302" y="398" type="curve" smooth="yes"/>
      <point x="1302" y="589"/>
      <point x="1265" y="673"/>
      <point x="1177" y="673" type="curve" smooth="yes"/>
      <point x="1088" y="673"/>
      <point x="1057" y="586"/>
    </contour>
    <contour>
      <point x="1456" y="398" type="curve" smooth="yes"/>
      <point x="1456" y="125"/>
      <point x="1359" y="-15"/>
      <point x="1175" y="-15" type="curve" smooth="yes"/>
      <point x="998" y="-15"/>
      <point x="902" y="125"/>
      <point x="902" y="398" type="curve" smooth="yes"/>
      <point x="902" y="671"/>
      <point x="993" y="809"/>
      <point x="1175" y="809" type="curve" smooth="yes"/>
      <point x="1352" y="809"/>
      <point x="1456" y="671"/>
    </contour>
    <contour>
      <point x="1226" y="1316" type="line"/>
      <point x="496" y="0" type="line"/>
      <point x="321" y="0" type="line"/>
      <point x="1051" y="1316" type="line"/>
    </contour>
  </outline>
</glyph>
<glyph name="ampersand" format="1">
  <advance width="1382"/>
  <unicode hex="0026"/>
  <outline>
    <contour>
      <point x="0" y="0" type="line"/>
      <point x="1382" y="0" type="line"/>
      <point x="1382" y="20" type="line"/>
      <point x="0" y="20" type="line"/>
    </contour>
  </outline>
</glyph>
<glyph name="quotesingle" format="1">
  <advance width="560"/>
  <unicode hex="0027"/>
  <outline>
    <contour>
      <point x="386" y="1316" type="line"/>
      <point x="350" y="841" type="line"/>
      <point x="211" y="841" type="line"/>
      <point x="174" y="1316" type="line"/>
    </contour>
  </outline>
</glyph>
<glyph name="parenleft.deva" format="1">
  <advance width="708"/>
  <unicode hex="0028"/>
  <outline>
    <contour>
      <point x="0" y="0" type="line"/>
      <point x="708" y="0" type="line"/>
      <point x="708" y="20" type="line"/>
      <point x="0" y="20" type="line"/>
    </contour>
  </outline>
</glyph>
<glyph name="parenleft" format="1">
  <advance width="669"/>
  <unicode hex="0028"/>
  <outline>
    <contour>
      <point x="0" y="0" type="line"/>
      <point x="669" y="0" type="line"/>
      <point x="669" y="20" type="line"/>
      <point x="0" y="20" type="line"/>
    </contour>
  </outline>
</glyph>
<glyph name="parenright.deva" format="1">
  <advance width="708"/>
  <unicode hex="0029"/>
  <outline>
    <contour>
      <point x="598" y="605" type="curve" smooth="yes"/>
      <point x="598" y="282"/>
      <point x="504" y="2"/>
      <point x="332" y="-198" type="curve"/>
      <point x="145" y="-198" type="line"/>
      <point x="226" y="-88"/>
      <point x="288" y="37"/>
      <point x="331" y="176" type="curve" smooth="yes"/>
      <point x="374" y="315"/>
      <point x="396" y="459"/>
      <point x="396" y="607" type="curve" smooth="yes"/>
      <point x="396" y="906"/>
      <point x="310" y="1193"/>
      <point x="143" y="1421" type="curve"/>
      <point x="332" y="1421" type="line"/>
      <point x="505" y="1213"/>
      <point x="598" y="927"/>
    </contour>
  </outline>
</glyph>
<glyph name="parenright" format="1">
  <advance width="670"/>
  <unicode hex="0029"/>
  <outline>
    <contour>
      <point x="578" y="605" type="curve" smooth="yes"/>
      <point x="578" y="282"/>
      <point x="484" y="2"/>
      <point x="312" y="-198" type="curve"/>
      <point x="124" y="-198" type="line"/>
      <point x="205" y="-88"/>
      <point x="268" y="37"/>
      <point x="310" y="176" type="curve" smooth="yes"/>
      <point x="354" y="315"/>
      <point x="375" y="459"/>
      <point x="375" y="607" type="curve" smooth="yes"/>
      <point x="375" y="906"/>
      <point x="290" y="1193"/>
      <point x="122" y="1421" type="curve"/>
      <point x="312" y="1421" type="line"/>
      <point x="485" y="1213"/>
      <point x="578" y="927"/>
    </contour>
  </outline>
</glyph>
<glyph name="asterisk.deva" format="1">
  <advance width="1083"/>
  <unicode hex="002A"/>
  <outline>
    <contour>
      <point x="642" y="1400" type="line"/>
      <point x="605" y="1056" type="line"/>
      <point x="952" y="1154" type="line"/>
      <point x="978" y="960" type="line"/>
      <point x="653" y="935" type="line"/>
      <point x="865" y="654" type="line"/>
      <point x="688" y="558" type="line"/>
      <point x="538" y="863" type="line"/>
      <point x="404" y="558" type="line"/>
      <point x="220" y="654" type="line"/>
      <point x="428" y="935" type="line"/>
      <point x="105" y="961" type="line"/>
      <point x="136" y="1154" type="line"/>
      <point x="476" y="1056" type="line"/>
      <point x="439" y="1400" type="line"/>
    </contour>
  </outline>
</glyph>
<glyph name="asterisk" format="1">
  <advance width="1009"/>
  <unicode hex="002A"/>
  <outline>
    <contour>
      <point x="603" y="1400" type="line"/>
      <point x="566" y="1056" type="line"/>
      <point x="913" y="1154" type="line"/>
      <point x="939" y="960" type="line"/>
      <point x="614" y="935" type="line"/>
      <point x="826" y="654" type="line"/>
      <point x="649" y="558" type="line"/>
      <point x="498" y="863" type="line"/>
      <point x="364" y="558" type="line"/>
      <point x="181" y="654" type="line"/>
      <point x="389" y="935" type="line"/>
      <point x="66" y="961" type="line"/>
      <point x="97" y="1154" type="line"/>
      <point x="437" y="1056" type="line"/>
      <point x="400" y="1400" type="line"/>
    </contour>
  </outline>
</glyph>
<glyph name="plus.deva" format="1">
  <advance width="1051"/>
  <unicode hex="002B"/>
  <outline>
    <contour>
      <point x="533" y="658" type="line"/>
      <point x="696" y="658" type="line"/>
      <point x="696" y="641" type="line"/>
      <point x="533" y="641" type="line"/>
      <point x="533" y="467" type="line"/>
      <point x="516" y="467" type="line"/>
      <point x="516" y="641" type="line"/>
      <point x="353" y="641" type="line"/>
      <point x="353" y="658" type="line"/>
      <point x="516" y="658" type="line"/>
      <point x="516" y="835" type="line"/>
      <point x="533" y="835" type="line"/>
    </contour>
  </outline>
</glyph>
<glyph name="plus" format="1">
  <advance width="1051"/>
  <unicode hex="002B"/>
  <outline>
    <contour>
      <point x="533" y="658" type="line"/>
      <point x="696" y="658" type="line"/>
      <point x="696" y="641" type="line"/>
      <point x="533" y="641" type="line"/>
      <point x="533" y="467" type="line"/>
      <point x="516" y="467" type="line"/>
      <point x="516" y="641" type="line"/>
      <point x="353" y="641" type="line"/>
      <point x="353" y="658" type="line"/>
      <point x="516" y="658" type="line"/>
      <point x="516" y="835" type="line"/>
      <point x="533" y="835" type="line"/>
    </contour>
  </outline>
</glyph>
<glyph name="comma" format="1">
  <advance width="487"/>
  <unicode hex="002C"/>
  <outline>
    <contour>
      <point x="0" y="0" type="line"/>
      <point x="487" y="0" type="line"/>
      <point x="487" y="20" type="line"/>
      <point x="0" y="20" type="line"/>
    </contour>
  </outline>
</glyph>
<glyph name="hyphen" format="1">
  <advance width="682"/>
  <unicode hex="002D"/>
  <outline>
    <contour>
      <point x="111" y="499" type="line"/>
      <point x="111" y="677" type="line"/>
      <point x="571" y="677" type="line"/>
      <point x="571" y="499" type="line"/>
    </contour>
  </outline>
</glyph>
<glyph name="period.deva" format="1">
  <advance width="516"/>
  <unicode hex="002E"/>
  <outline>
    <contour>
      <point x="126" y="111" type="curve" smooth="yes"/>
      <point x="126" y="201"/>
      <point x="173" y="249"/>
      <point x="257" y="249" type="curve" smooth="yes"/>
      <point x="341" y="249"/>
      <point x="390" y="201"/>
      <point x="390" y="111" type="curve" smooth="yes"/>
      <point x="390" y="25"/>
      <point x="339" y="-25"/>
      <point x="257" y="-25" type="curve" smooth="yes"/>
      <point x="179" y="-25"/>
      <point x="126" y="19"/>
    </contour>
  </outline>
</glyph>
<glyph name="period" format="1">
  <advance width="503"/>
  <unicode hex="002E"/>
  <outline>
    <contour>
      <point x="119" y="111" type="curve" smooth="yes"/>
      <point x="119" y="201"/>
      <point x="166" y="249"/>
      <point x="251" y="249" type="curve" smooth="yes"/>
      <point x="334" y="249"/>
      <point x="383" y="201"/>
      <point x="383" y="111" type="curve" smooth="yes"/>
      <point x="383" y="25"/>
      <point x="332" y="-25"/>
      <point x="251" y="-25" type="curve" smooth="yes"/>
      <point x="173" y="-25"/>
      <point x="119" y="19"/>
    </contour>
  </outline>
</glyph>
<glyph name="slash.deva" format="1">
  <advance width="717"/>
  <unicode hex="002F"/>
  <outline>
    <contour>
      <point x="703" y="1322" type="line"/>
      <point x="212" y="-5" type="line"/>
      <point x="15" y="-5" type="line"/>
      <point x="505" y="1322" type="line"/>
    </contour>
  </outline>
</glyph>
<glyph name="zero.deva" format="1">
  <advance width="1052"/>
  <unicode hex="0030"/>
  <outline>
    <contour>
      <point x="973" y="658" type="curve" smooth="yes"/>
      <point x="973" y="201"/>
      <point x="827" y="-18"/>
      <point x="526" y="-18" type="curve" smooth="yes"/>
      <point x="233" y="-18"/>
      <point x="79" y="215"/>
      <point x="79" y="658" type="curve" smooth="yes"/>
      <point x="79" y="1122"/>
      <point x="225" y="1336"/>
      <point x="526" y="1336" type="curve" smooth="yes"/>
      <point x="819" y="1336"/>
      <point x="973" y="1102"/>
    </contour>
    <contour>
      <point x="293" y="658" type="curve" smooth="yes"/>
      <point x="293" y="479"/>
      <point x="311" y="350"/>
      <point x="348" y="273" type="curve" smooth="yes"/>
      <point x="385" y="196"/>
      <point x="445" y="158"/>
      <point x="526" y="158" type="curve" smooth="yes"/>
      <point x="607" y="158"/>
      <point x="666" y="197"/>
      <point x="703" y="275" type="curve" smooth="yes"/>
      <point x="741" y="353"/>
      <point x="760" y="481"/>
      <point x="760" y="658" type="curve" smooth="yes"/>
      <point x="760" y="834"/>
      <point x="741" y="961"/>
      <point x="703" y="1040" type="curve" smooth="yes"/>
      <point x="666" y="1119"/>
      <point x="607" y="1159"/>
      <point x="526" y="1159" type="curve" smooth="yes"/>
      <point x="445" y="1159"/>
      <point x="385" y="1120"/>
      <point x="348" y="1043" type="curve" smooth="yes"/>
      <point x="311" y="966"/>
      <point x="293" y="837"/>
    </contour>
  </outline>
</glyph>
<glyph name="one.deva" format="1">
  <advance width="1061"/>
  <unicode hex="0031"/>
  <outline>
    <contour>
      <point x="698" y="0" type="line"/>
      <point x="495" y="0" type="line"/>
      <point x="495" y="873" type="line"/>
      <point x="495" y="953"/>
      <point x="497" y="1027"/>
      <point x="501" y="1097" type="curve"/>
      <point x="486" y="1080"/>
      <point x="468" y="1063"/>
      <point x="448" y="1045" type="curve" smooth="yes"/>
      <point x="437" y="1035"/>
      <point x="344" y="959"/>
      <point x="251" y="884" type="curve"/>
      <point x="144" y="1020" type="line"/>
      <point x="520" y="1316" type="line"/>
      <point x="698" y="1316" type="line"/>
    </contour>
  </outline>
</glyph>
<glyph name="one" format="1">
  <advance width="1062"/>
  <unicode hex="0031"/>
  <outline>
    <contour>
      <point x="703" y="0" type="line"/>
      <point x="495" y="0" type="line"/>
      <point x="495" y="867" type="line"/>
      <point x="495" y="947"/>
      <point x="497" y="1022"/>
      <point x="501" y="1091" type="curve"/>
      <point x="486" y="1074"/>
      <point x="467" y="1057"/>
      <point x="446" y="1038" type="curve" smooth="yes"/>
      <point x="436" y="1029"/>
      <point x="341" y="951"/>
      <point x="252" y="879" type="curve"/>
      <point x="142" y="1018" type="line"/>
      <point x="520" y="1316" type="line"/>
      <point x="703" y="1316" type="line"/>
    </contour>
  </outline>
</glyph>
<glyph name="two" format="1">
  <advance width="1056"/>
  <unicode hex="0032"/>
  <outline>
    <contour>
      <point x="982" y="0" type="line"/>
      <point x="79" y="0" type="line"/>
      <point x="79" y="173" type="line"/>
      <point x="422" y="505" type="line"/>
      <point x="535" y="617"/>
      <point x="606" y="691"/>
      <point x="633" y="728" type="curve" smooth="yes"/>
      <point x="691" y="806"/>
      <point x="721" y="878"/>
      <point x="721" y="969" type="curve" smooth="yes"/>
      <point x="721" y="1165"/>
      <point x="574" y="1275"/>
      <point x="335" y="1231" type="curve" smooth="yes"/>
      <point x="277" y="1187"/>
      <point x="238" y="1148"/>
      <point x="218" y="1114" type="curve" smooth="yes"/>
      <point x="224" y="1080"/>
      <point x="215" y="1053"/>
      <point x="190" y="1036" type="curve"/>
      <point x="85" y="1171" type="line"/>
      <point x="216" y="1280"/>
      <point x="356" y="1335"/>
      <point x="507" y="1335" type="curve" smooth="yes"/>
      <point x="638" y="1335"/>
      <point x="741" y="1302"/>
      <point x="815" y="1237" type="curve" smooth="yes"/>
      <point x="891" y="1173"/>
      <point x="927" y="1088"/>
      <point x="927" y="981" type="curve" smooth="yes"/>
      <point x="927" y="899"/>
      <point x="904" y="818"/>
      <point x="855" y="737" type="curve" smooth="yes"/>
      <point x="805" y="656"/>
      <point x="712" y="548"/>
      <point x="572" y="419" type="curve" smooth="yes"/>
      <point x="329" y="196" type="line"/>
      <point x="329" y="186" type="line"/>
      <point x="982" y="186" type="line"/>
    </contour>
  </outline>
</glyph>
<glyph name="six.deva" format="1">
  <advance width="1061"/>
  <unicode hex="0036"/>
  <outline>
    <contour>
      <point x="0" y="0" type="line"/>
      <point x="1061" y="0" type="line"/>
      <point x="1061" y="20" type="line"/>
      <point x="0" y="20" type="line"/>
    </contour>
  </outline>
</glyph>
<glyph name="seven.deva" format="1">
  <advance width="1062"/>
  <unicode hex="0037"/>
  <outline>
    <contour>
      <point x="236" y="0" type="line"/>
      <point x="754" y="1132" type="line"/>
      <point x="81" y="1132" type="line"/>
      <point x="81" y="1315" type="line"/>
      <point x="978" y="1315" type="line"/>
      <point x="978" y="1169" type="line"/>
      <point x="461" y="0" type="line"/>
    </contour>
  </outline>
</glyph>
<glyph name="colon.deva" format="1">
  <advance width="735"/>
  <unicode hex="003A"/>
  <outline>
    <contour>
      <point x="235" y="111" type="curve" smooth="yes"/>
      <point x="235" y="201"/>
      <point x="282" y="249"/>
      <point x="367" y="249" type="curve" smooth="yes"/>
      <point x="450" y="249"/>
      <point x="499" y="201"/>
      <point x="499" y="111" type="curve" smooth="yes"/>
      <point x="499" y="25"/>
      <point x="448" y="-25"/>
      <point x="367" y="-25" type="curve" smooth="yes"/>
      <point x="289" y="-25"/>
      <point x="235" y="19"/>
    </contour>
    <contour>
      <point x="235" y="881" type="curve" smooth="yes"/>
      <point x="235" y="970"/>
      <point x="280" y="1018"/>
      <point x="367" y="1018" type="curve" smooth="yes"/>
      <point x="454" y="1018"/>
      <point x="499" y="970"/>
      <point x="499" y="881" type="curve" smooth="yes"/>
      <point x="499" y="795"/>
      <point x="449" y="745"/>
      <point x="367" y="745" type="curve" smooth="yes"/>
      <point x="287" y="745"/>
      <point x="235" y="788"/>
    </contour>
  </outline>
</glyph>
<glyph name="colon" format="1">
  <advance width="503"/>
  <unicode hex="003A"/>
  <outline>
    <contour>
      <point x="119" y="111" type="curve" smooth="yes"/>
      <point x="119" y="201"/>
      <point x="166" y="249"/>
      <point x="251" y="249" type="curve" smooth="yes"/>
      <point x="334" y="249"/>
      <point x="383" y="201"/>
      <point x="383" y="111" type="curve" smooth="yes"/>
      <point x="383" y="25"/>
      <point x="332" y="-25"/>
      <point x="251" y="-25" type="curve" smooth="yes"/>
      <point x="173" y="-25"/>
      <point x="119" y="19"/>
    </contour>
    <contour>
      <point x="119" y="881" type="curve" smooth="yes"/>
      <point x="119" y="970"/>
      <point x="164" y="1018"/>
      <point x="251" y="1018" type="curve" smooth="yes"/>
      <point x="338" y="1018"/>
      <point x="383" y="970"/>
      <point x="383" y="881" type="curve" smooth="yes"/>
      <point x="383" y="795"/>
      <point x="333" y="745"/>
      <point x="251" y="745" type="curve" smooth="yes"/>
      <point x="171" y="745"/>
      <point x="119" y="788"/>
    </contour>
  </outline>
</glyph>
<glyph name="semicolon.deva" format="1">
  <advance width="775"/>
  <unicode hex="003B"/>
  <outline>
    <contour>
      <point x="527" y="240" type="line"/>
      <point x="538" y="220" type="line"/>
      <point x="487" y="28"/>
      <point x="434" y="-127"/>
      <point x="381" y="-247" type="curve"/>
      <point x="232" y="-247" type="line"/>
      <point x="249" y="-177"/>
      <point x="267" y="-94"/>
      <point x="286" y="2" type="curve" smooth="yes"/>
      <point x="305" y="97"/>
      <point x="318" y="176"/>
      <point x="326" y="240" type="curve"/>
    </contour>
    <contour>
      <point x="288" y="867" type="curve" smooth="yes"/>
      <point x="288" y="950"/>
      <point x="332" y="995"/>
      <point x="416" y="995" type="curve" smooth="yes"/>
      <point x="498" y="995"/>
      <point x="542" y="949"/>
      <point x="542" y="867" type="curve" smooth="yes"/>
      <point x="542" y="783"/>
      <point x="493" y="740"/>
      <point x="416" y="740" type="curve" smooth="yes"/>
      <point x="336" y="740"/>
      <point x="288" y="782"/>
    </contour>
  </outline>
</glyph>
<glyph name="semicolon" format="1">
  <advance width="489"/>
  <unicode hex="003B"/>
  <outline>
    <contour>
      <point x="355" y="240" type="line"/>
      <point x="366" y="220" type="line"/>
      <point x="315" y="28"/>
      <point x="262" y="-127"/>
      <point x="209" y="-247" type="curve"/>
      <point x="60" y="-247" type="line"/>
      <point x="77" y="-177"/>
      <point x="96" y="-94"/>
      <point x="114" y="2" type="curve" smooth="yes"/>
      <point x="133" y="97"/>
      <point x="146" y="176"/>
      <point x="154" y="240" type="curve"/>
    </contour>
    <contour>
      <point x="116" y="867" type="curve" smooth="yes"/>
      <point x="116" y="950"/>
      <point x="160" y="995"/>
      <point x="244" y="995" type="curve" smooth="yes"/>
      <point x="326" y="995"/>
      <point x="370" y="949"/>
      <point x="370" y="867" type="curve" smooth="yes"/>
      <point x="370" y="783"/>
      <point x="321" y="740"/>
      <point x="244" y="740" type="curve" smooth="yes"/>
      <point x="164" y="740"/>
      <point x="116" y="782"/>
    </contour>
  </outline>
</glyph>
<glyph name="less" format="1">
  <advance width="1051"/>
  <unicode hex="003C"/>
  <outline>
    <contour>
      <point x="963" y="201" type="line"/>
      <point x="85" y="588" type="line"/>
      <point x="85" y="696" type="line"/>
      <point x="963" y="1134" type="line"/>
      <point x="963" y="961" type="line"/>
      <point x="303" y="650" type="line"/>
      <point x="963" y="375" type="line"/>
    </contour>
  </outline>
</glyph>
<glyph name="equal.deva" format="1">
  <advance width="1051"/>
  <unicode hex="003D"/>
  <outline>
    <contour>
      <point x="95" y="761" type="line"/>
      <point x="95" y="918" type="line"/>
      <point x="954" y="918" type="line"/>
      <point x="954" y="761" type="line"/>
    </contour>
    <contour>
      <point x="95" y="380" type="line"/>
      <point x="95" y="538" type="line"/>
      <point x="954" y="538" type="line"/>
      <point x="954" y="380" type="line"/>
    </contour>
  </outline>
</glyph>
<glyph name="equal" format="1">
  <advance width="1051"/>
  <unicode hex="003D"/>
  <outline>
    <contour>
      <point x="95" y="761" type="line"/>
      <point x="95" y="918" type="line"/>
      <point x="954" y="918" type="line"/>
      <point x="954" y="761" type="line"/>
    </contour>
    <contour>
      <point x="95" y="380" type="line"/>
      <point x="95" y="538" type="line"/>
      <point x="954" y="538" type="line"/>
      <point x="954" y="380" type="line"/>
    </contour>
  </outline>
</glyph>
<glyph name="greater.deva" format="1">
  <advance width="1051"/>
  <unicode hex="003E"/>
  <outline>
    <contour>
      <point x="86" y="373" type="line"/>
      <point x="751" y="648" type="line"/>
      <point x="86" y="963" type="line"/>
      <point x="86" y="1132" type="line"/>
      <point x="963" y="695" type="line"/>
      <point x="963" y="589" type="line"/>
      <point x="86" y="202" type="line"/>
    </contour>
  </outline>
</glyph>
<glyph name="question.deva" format="1">
  <advance width="1185"/>
  <unicode hex="003F"/>
  <outline>
    <contour>
      <point x="0" y="0" type="line"/>
      <point x="1185" y="0" type="line"/>
      <point x="1185" y="20" type="line"/>
      <point x="0" y="20" type="line"/>
    </contour>
  </outline>
</glyph>
<glyph name="A" format="1">
  <advance width="1219"/>
  <unicode hex="0041"/>
  <outline>
    <contour>
      <point x="1175" y="-412" type="line"/>
      <point x="1341" y="377" type="line"/>
      <point x="508" y="789" type="line"/>
      <point x="293" y="0" type="line"/>
      <point x="-470" y="-1174" type="line"/>
      <point x="460" y="1321" type="line"/>
      <point x="243" y="2495" type="line"/>
      <point x="1311" y="0" type="line"/>
    </contour>
    <contour>
      <point x="1220" y="564" type="line"/>
      <point x="513" y="1334" type="line"/>
      <point x="477" y="1431"/>
      <point x="597" y="1131"/>
      <point x="557" y="1272" type="curve"/>
      <point x="546" y="1130"/>
      <point x="526" y="965"/>
      <point x="499" y="776" type="curve"/>
      <point x="514" y="826"/>
      <point x="237" y="102"/>
      <point x="254" y="144" type="curve" smooth="yes"/>
    </contour>
  </outline>
</glyph>
<glyph name="B" format="1">
  <advance width="1217"/>
  <unicode hex="0042"/>
  <outline>
    <contour>
      <point x="174" y="1316" type="line"/>
      <point x="564" y="1316" type="line" smooth="yes"/>
      <point x="745" y="1316"/>
      <point x="876" y="1289"/>
      <point x="957" y="1236" type="curve" smooth="yes"/>
      <point x="1038" y="1183"/>
      <point x="1078" y="1100"/>
      <point x="1078" y="986" type="curve" smooth="yes"/>
      <point x="1078" y="833"/>
      <point x="996" y="725"/>
      <point x="848" y="698" type="curve"/>
      <point x="848" y="689" type="line"/>
      <point x="1032" y="654"/>
      <point x="1117" y="553"/>
      <point x="1117" y="378" type="curve" smooth="yes"/>
      <point x="1117" y="260"/>
      <point x="1076" y="167"/>
      <point x="993" y="100" type="curve" smooth="yes"/>
      <point x="910" y="33"/>
      <point x="796" y="0"/>
      <point x="649" y="0" type="curve" smooth="yes"/>
      <point x="174" y="0" type="line"/>
    </contour>
    <contour>
      <point x="389" y="772" type="line"/>
      <point x="596" y="772" type="line" smooth="yes"/>
      <point x="776" y="772"/>
      <point x="855" y="824"/>
      <point x="855" y="960" type="curve" smooth="yes"/>
      <point x="855" y="1084"/>
      <point x="770" y="1136"/>
      <point x="575" y="1136" type="curve" smooth="yes"/>
      <point x="389" y="1136" type="line"/>
    </contour>
    <contour>
      <point x="389" y="598" type="line"/>
      <point x="389" y="181" type="line"/>
      <point x="617" y="181" type="line" smooth="yes"/>
      <point x="797" y="181"/>
      <point x="890" y="247"/>
      <point x="890" y="396" type="curve" smooth="yes"/>
      <point x="890" y="533"/>
      <point x="798" y="598"/>
      <point x="607" y="598" type="curve" smooth="yes"/>
    </contour>
  </outline>
</glyph>
<glyph name="D" format="1">
  <advance width="1347"/>
  <unicode hex="0044"/>
  <outline>
    <contour>
      <point x="1239" y="675" type="curve" smooth="yes"/>
      <point x="1239" y="457"/>
      <point x="1180" y="290"/>
      <point x="1061" y="174" type="curve" smooth="yes"/>
      <point x="942" y="58"/>
      <point x="772" y="0"/>
      <point x="552" y="0" type="curve" smooth="yes"/>
      <point x="170" y="0" type="line"/>
      <point x="170" y="1316" type="line"/>
      <point x="588" y="1316" type="line"/>
      <point x="795" y="1316"/>
      <point x="955" y="1260"/>
      <point x="1068" y="1148" type="curve" smooth="yes"/>
      <point x="1182" y="1037"/>
      <point x="1239" y="879"/>
    </contour>
    <contour>
      <point x="1016" y="667" type="curve" smooth="yes"/>
      <point x="1016" y="980"/>
      <point x="867" y="1138"/>
      <point x="569" y="1138" type="curve" smooth="yes"/>
      <point x="382" y="1138" type="line"/>
      <point x="382" y="179" type="line"/>
      <point x="537" y="179" type="line"/>
      <point x="858" y="179"/>
      <point x="1016" y="343"/>
    </contour>
  </outline>
</glyph>
<glyph name="E" format="1">
  <advance width="1021"/>
  <unicode hex="0045"/>
  <outline>
    <contour>
      <point x="917" y="0" type="line"/>
      <point x="170" y="0" type="line"/>
      <point x="170" y="1316" type="line"/>
      <point x="917" y="1316" type="line"/>
      <point x="917" y="1136" type="line"/>
      <point x="382" y="1136" type="line"/>
      <point x="382" y="776" type="line"/>
      <point x="883" y="776" type="line"/>
      <point x="883" y="597" type="line"/>
      <point x="382" y="597" type="line"/>
      <point x="382" y="182" type="line"/>
      <point x="917" y="182" type="line"/>
    </contour>
  </outline>
</glyph>
<glyph name="F" format="1">
  <advance width="981"/>
  <unicode hex="0046"/>
  <outline>
    <contour>
      <point x="387" y="0" type="line"/>
      <point x="174" y="0" type="line"/>
      <point x="174" y="1316" type="line"/>
      <point x="916" y="1316" type="line"/>
      <point x="916" y="1134" type="line"/>
      <point x="387" y="1134" type="line"/>
      <point x="387" y="723" type="line"/>
      <point x="883" y="723" type="line"/>
      <point x="883" y="540" type="line"/>
      <point x="387" y="540" type="line"/>
    </contour>
  </outline>
</glyph>
<glyph name="H" format="1">
  <advance width="1375"/>
  <unicode hex="0048"/>
  <outline>
    <contour>
      <point x="1206" y="0" type="line"/>
      <point x="994" y="0" type="line"/>
      <point x="994" y="595" type="line"/>
      <point x="382" y="595" type="line"/>
      <point x="382" y="0" type="line"/>
      <point x="170" y="0" type="line"/>
      <point x="170" y="1316" type="line"/>
      <point x="382" y="1316" type="line"/>
      <point x="382" y="777" type="line"/>
      <point x="994" y="777" type="line"/>
      <point x="994" y="1316" type="line"/>
      <point x="1206" y="1316" type="line"/>
    </contour>
  </outline>
</glyph>
<glyph name="J" format="1">
  <advance width="525"/>
  <unicode hex="004A"/>
  <outline>
    <contour>
      <point x="6" y="-360" type="curve" smooth="yes"/>
      <point x="-51" y="-360"/>
      <point x="-93" y="-352"/>
      <point x="-124" y="-334" type="curve"/>
      <point x="-124" y="-159" type="line"/>
      <point x="-85" y="-171"/>
      <point x="-42" y="-177"/>
      <point x="8" y="-177" type="curve" smooth="yes"/>
      <point x="104" y="-177"/>
      <point x="158" y="-108"/>
      <point x="158" y="8" type="curve" smooth="yes"/>
      <point x="158" y="1316" type="line"/>
      <point x="365" y="1316" type="line"/>
      <point x="365" y="25" type="line"/>
      <point x="365" y="-210"/>
      <point x="232" y="-360"/>
    </contour>
  </outline>
</glyph>
<glyph name="K" format="1">
  <advance width="1162"/>
  <unicode hex="004B"/>
  <outline>
    <contour>
      <point x="1162" y="0" type="line"/>
      <point x="914" y="0" type="line"/>
      <point x="525" y="605" type="line"/>
      <point x="382" y="493" type="line"/>
      <point x="382" y="0" type="line"/>
      <point x="165" y="0" type="line"/>
      <point x="165" y="1316" type="line"/>
      <point x="382" y="1316" type="line"/>
      <point x="382" y="685" type="line"/>
      <point x="390" y="701"/>
      <point x="485" y="805"/>
      <point x="510" y="841" type="curve"/>
      <point x="914" y="1316" type="line"/>
      <point x="1158" y="1316" type="line"/>
      <point x="677" y="744" type="line"/>
    </contour>
  </outline>
</glyph>
<glyph name="L" format="1">
  <advance width="999"/>
  <unicode hex="004C"/>
  <outline>
    <contour>
      <point x="174" y="0" type="line"/>
      <point x="174" y="1316" type="line"/>
      <point x="389" y="1316" type="line"/>
      <point x="389" y="184" type="line"/>
      <point x="946" y="184" type="line"/>
      <point x="946" y="0" type="line"/>
    </contour>
  </outline>
</glyph>
<glyph name="M" format="1">
  <advance width="1730"/>
  <unicode hex="004D"/>
  <outline>
    <contour>
      <point x="761" y="0" type="line"/>
      <point x="355" y="1122" type="line"/>
      <point x="348" y="1122" type="line"/>
      <point x="359" y="1015"/>
      <point x="365" y="875"/>
      <point x="365" y="705" type="curve" smooth="yes"/>
      <point x="365" y="0" type="line"/>
      <point x="177" y="0" type="line"/>
      <point x="177" y="1316" type="line"/>
      <point x="485" y="1316" type="line"/>
      <point x="857" y="294" type="line"/>
      <point x="866" y="294" type="line"/>
      <point x="1245" y="1316" type="line"/>
      <point x="1554" y="1316" type="line"/>
      <point x="1554" y="0" type="line"/>
      <point x="1348" y="0" type="line"/>
      <point x="1348" y="716" type="line"/>
      <point x="1348" y="837"/>
      <point x="1352" y="973"/>
      <point x="1363" y="1122" type="curve"/>
      <point x="1354" y="1122" type="line"/>
      <point x="942" y="0" type="line"/>
    </contour>
  </outline>
</glyph>
<glyph name="N" format="1">
  <advance width="1427"/>
  <unicode hex="004E"/>
  <outline>
    <contour>
      <point x="1261" y="0" type="line"/>
      <point x="993" y="0" type="line"/>
      <point x="354" y="1055" type="line"/>
      <point x="347" y="1055" type="line"/>
      <point x="355" y="913"/>
      <point x="360" y="805"/>
      <point x="360" y="731" type="curve" smooth="yes"/>
      <point x="360" y="0" type="line"/>
      <point x="165" y="0" type="line"/>
      <point x="165" y="1316" type="line"/>
      <point x="432" y="1316" type="line"/>
      <point x="1070" y="267" type="line"/>
      <point x="1076" y="267" type="line"/>
      <point x="1069" y="387"/>
      <point x="1065" y="491"/>
      <point x="1065" y="581" type="curve" smooth="yes"/>
      <point x="1065" y="1316" type="line"/>
      <point x="1261" y="1316" type="line"/>
    </contour>
  </outline>
</glyph>
<glyph name="P" format="1">
  <advance width="1134"/>
  <unicode hex="0050"/>
  <outline>
    <contour>
      <point x="1045" y="918" type="curve" smooth="yes"/>
      <point x="1045" y="643"/>
      <point x="858" y="492"/>
      <point x="526" y="492" type="curve" smooth="yes"/>
      <point x="389" y="492" type="line"/>
      <point x="389" y="0" type="line"/>
      <point x="174" y="0" type="line"/>
      <point x="174" y="1316" type="line"/>
      <point x="553" y="1316" type="line" smooth="yes"/>
      <point x="881" y="1316"/>
      <point x="1045" y="1179"/>
    </contour>
    <contour>
      <point x="389" y="673" type="line"/>
      <point x="503" y="673" type="line" smooth="yes"/>
      <point x="724" y="673"/>
      <point x="823" y="747"/>
      <point x="823" y="911" type="curve" smooth="yes"/>
      <point x="823" y="1062"/>
      <point x="734" y="1136"/>
      <point x="538" y="1136" type="curve" smooth="yes"/>
      <point x="389" y="1136" type="line"/>
    </contour>
  </outline>
</glyph>
<glyph name="Q" format="1">
  <advance width="1445"/>
  <unicode hex="0051"/>
  <outline>
    <contour>
      <point x="0" y="0" type="line"/>
      <point x="1445" y="0" type="line"/>
      <point x="1445" y="20" type="line"/>
      <point x="0" y="20" type="line"/>
    </contour>
  </outline>
</glyph>
<glyph name="R" format="1">
  <advance width="1168"/>
  <unicode hex="0052"/>
  <outline>
    <contour>
      <point x="378" y="529" type="line"/>
      <point x="378" y="0" type="line"/>
      <point x="170" y="0" type="line"/>
      <point x="170" y="1316" type="line"/>
      <point x="550" y="1316" type="line"/>
      <point x="883" y="1316"/>
      <point x="1041" y="1190"/>
      <point x="1041" y="939" type="curve" smooth="yes"/>
      <point x="1041" y="771"/>
      <point x="956" y="653"/>
      <point x="787" y="586" type="curve"/>
      <point x="1152" y="0" type="line"/>
      <point x="911" y="0" type="line"/>
      <point x="603" y="529" type="line"/>
    </contour>
    <contour>
      <point x="378" y="697" type="line"/>
      <point x="549" y="697" type="line"/>
      <point x="741" y="697"/>
      <point x="828" y="774"/>
      <point x="828" y="929" type="curve" smooth="yes"/>
      <point x="828" y="1080"/>
      <point x="741" y="1146"/>
      <point x="542" y="1146" type="curve" smooth="yes"/>
      <point x="378" y="1146" type="line"/>
    </contour>
  </outline>
</glyph>
<glyph name="S" format="1">
  <advance width="1027"/>
  <unicode hex="0053"/>
  <outline>
    <contour>
      <point x="946" y="365" type="curve"/>
      <point x="947" y="211"/>
      <point x="858" y="96"/>
      <point x="706" y="51" type="curve"/>
      <point x="621" y="5"/>
      <point x="519" y="-16"/>
      <point x="400" y="-13" type="curve" smooth="yes"/>
      <point x="272" y="-9"/>
      <point x="169" y="11"/>
      <point x="91" y="49" type="curve"/>
      <point x="91" y="246" type="line"/>
      <point x="187" y="204"/>
      <point x="302" y="176"/>
      <point x="411" y="170" type="curve" smooth="yes"/>
      <point x="577" y="164"/>
      <point x="670" y="219"/>
      <point x="688" y="317" type="curve" smooth="yes"/>
      <point x="719" y="349"/>
      <point x="727" y="387"/>
      <point x="713" y="424" type="curve" smooth="yes"/>
      <point x="701" y="450"/>
      <point x="677" y="474"/>
      <point x="644" y="495" type="curve" smooth="yes"/>
      <point x="611" y="517"/>
      <point x="560" y="540"/>
      <point x="492" y="566" type="curve" smooth="yes"/>
      <point x="399" y="602"/>
      <point x="320" y="647"/>
      <point x="255" y="702" type="curve" smooth="yes"/>
      <point x="193" y="755"/>
      <point x="155" y="821"/>
      <point x="143" y="901" type="curve" smooth="yes"/>
      <point x="118" y="994"/>
      <point x="132" y="1078"/>
      <point x="186" y="1158" type="curve" smooth="yes"/>
      <point x="240" y="1236"/>
      <point x="325" y="1285"/>
      <point x="439" y="1305" type="curve" smooth="yes"/>
      <point x="558" y="1325"/>
      <point x="678" y="1318"/>
      <point x="801" y="1284" type="curve" smooth="yes"/>
      <point x="841" y="1284"/>
      <point x="848" y="1180"/>
      <point x="889" y="1162" type="curve"/>
      <point x="812" y="1194"/>
      <point x="706" y="1130"/>
      <point x="634" y="1130" type="curve"/>
      <point x="483" y="1146"/>
      <point x="384" y="1102"/>
      <point x="357" y="1015" type="curve" smooth="yes"/>
      <point x="330" y="983"/>
      <point x="324" y="945"/>
      <point x="336" y="911" type="curve" smooth="yes"/>
      <point x="348" y="883"/>
      <point x="373" y="858"/>
      <point x="408" y="834" type="curve" smooth="yes"/>
      <point x="444" y="811"/>
      <point x="509" y="781"/>
      <point x="602" y="745" type="curve" smooth="yes"/>
      <point x="732" y="695"/>
      <point x="823" y="642"/>
      <point x="872" y="584" type="curve"/>
      <point x="922" y="527"/>
      <point x="946" y="454"/>
    </contour>
  </outline>
</glyph>
<glyph name="T" format="1">
  <advance width="1040"/>
  <unicode hex="0054"/>
  <outline>
    <contour>
      <point x="626" y="0" type="line"/>
      <point x="414" y="0" type="line"/>
      <point x="414" y="1134" type="line"/>
      <point x="25" y="1134" type="line"/>
      <point x="25" y="1316" type="line"/>
      <point x="1015" y="1316" type="line"/>
      <point x="1015" y="1134" type="line"/>
      <point x="626" y="1134" type="line"/>
    </contour>
  </outline>
</glyph>
<glyph name="U" format="1">
  <advance width="1368"/>
  <unicode hex="0055"/>
  <outline>
    <contour>
      <point x="1205" y="1316" type="line"/>
      <point x="1205" y="464" type="line"/>
      <point x="1207" y="174"/>
      <point x="1007" y="-22"/>
      <point x="679" y="-18" type="curve"/>
      <point x="516" y="-18"/>
      <point x="389" y="25"/>
      <point x="298" y="111" type="curve" smooth="yes"/>
      <point x="207" y="198"/>
      <point x="162" y="317"/>
      <point x="162" y="468" type="curve" smooth="yes"/>
      <point x="162" y="1316" type="line"/>
      <point x="378" y="1316" type="line"/>
      <point x="378" y="483" type="line" smooth="yes"/>
      <point x="378" y="266"/>
      <point x="477" y="166"/>
      <point x="686" y="166" type="curve" smooth="yes"/>
      <point x="889" y="166"/>
      <point x="990" y="272"/>
      <point x="990" y="485" type="curve" smooth="yes"/>
      <point x="990" y="1316" type="line"/>
    </contour>
  </outline>
</glyph>
<glyph name="V" format="1">
  <advance width="1126"/>
  <unicode hex="0056"/>
  <outline>
    <contour>
      <point x="904" y="1316" type="line"/>
      <point x="1126" y="1316" type="line"/>
      <point x="669" y="0" type="line"/>
      <point x="456" y="0" type="line"/>
      <point x="0" y="1316" type="line"/>
      <point x="219" y="1316" type="line"/>
      <point x="495" y="503" type="line"/>
      <point x="516" y="440"/>
      <point x="539" y="350"/>
      <point x="561" y="235" type="curve"/>
      <point x="592" y="378"/>
      <point x="624" y="499"/>
      <point x="659" y="598" type="curve" smooth="yes"/>
    </contour>
  </outline>
</glyph>
<glyph name="X" format="1">
  <advance width="1143"/>
  <unicode hex="0058"/>
  <outline>
    <contour>
      <point x="1136" y="0" type="line"/>
      <point x="893" y="0" type="line"/>
      <point x="567" y="530" type="line"/>
      <point x="239" y="0" type="line"/>
      <point x="6" y="0" type="line"/>
      <point x="444" y="684" type="line"/>
      <point x="35" y="1316" type="line"/>
      <point x="270" y="1316" type="line"/>
      <point x="571" y="828" type="line"/>
      <point x="870" y="1316" type="line"/>
      <point x="1105" y="1316" type="line"/>
      <point x="694" y="679" type="line"/>
    </contour>
  </outline>
</glyph>
<glyph name="Y" format="1">
  <advance width="1091"/>
  <unicode hex="0059"/>
  <outline>
    <contour>
      <point x="545" y="715" type="line"/>
      <point x="857" y="1316" type="line"/>
      <point x="1091" y="1316" type="line"/>
      <point x="652" y="510" type="line"/>
      <point x="652" y="0" type="line"/>
      <point x="436" y="0" type="line"/>
      <point x="436" y="503" type="line"/>
      <point x="0" y="1316" type="line"/>
      <point x="234" y="1316" type="line"/>
    </contour>
  </outline>
</glyph>
<glyph name="Z" format="1">
  <advance width="1074"/>
  <unicode hex="005A"/>
  <outline>
    <contour>
      <point x="1008" y="0" type="line"/>
      <point x="68" y="0" type="line"/>
      <point x="68" y="149" type="line"/>
      <point x="729" y="1134" type="line"/>
      <point x="87" y="1134" type="line"/>
      <point x="87" y="1316" type="line"/>
      <point x="990" y="1316" type="line"/>
      <point x="990" y="1167" type="line"/>
      <point x="329" y="182" type="line"/>
      <point x="1008" y="182" type="line"/>
    </contour>
  </outline>
</glyph>
<glyph name="bracketleft.deva" format="1">
  <advance width="605"/>
  <unicode hex="005B"/>
  <outline>
    <contour>
      <point x="559" y="-297" type="line"/>
      <point x="137" y="-297" type="line"/>
      <point x="137" y="1326" type="line"/>
      <point x="559" y="1326" type="line"/>
      <point x="559" y="1171" type="line"/>
      <point x="325" y="1171" type="line"/>
      <point x="325" y="-142" type="line"/>
      <point x="559" y="-142" type="line"/>
    </contour>
  </outline>
</glyph>
<glyph name="bracketleft" format="1">
  <advance width="604"/>
  <unicode hex="005B"/>
  <outline>
    <contour>
      <point x="559" y="-203" type="line"/>
      <point x="136" y="-203" type="line"/>
      <point x="136" y="1421" type="line"/>
      <point x="559" y="1421" type="line"/>
      <point x="559" y="1264" type="line"/>
      <point x="327" y="1264" type="line"/>
      <point x="327" y="-46" type="line"/>
      <point x="559" y="-46" type="line"/>
    </contour>
  </outline>
</glyph>
<glyph name="backslash.deva" format="1">
  <advance width="717"/>
  <unicode hex="005C"/>
  <outline>
    <contour>
      <point x="211" y="1322" type="line"/>
      <point x="703" y="-5" type="line"/>
      <point x="506" y="-5" type="line"/>
      <point x="16" y="1322" type="line"/>
    </contour>
  </outline>
</glyph>
<glyph name="backslash" format="1">
  <advance width="717"/>
  <unicode hex="005C"/>
  <outline>
    <contour>
      <point x="211" y="1322" type="line"/>
      <point x="703" y="-5" type="line"/>
      <point x="506" y="-5" type="line"/>
      <point x="16" y="1322" type="line"/>
    </contour>
  </outline>
</glyph>
<glyph name="bracketright" format="1">
  <advance width="604"/>
  <unicode hex="005D"/>
  <outline>
    <contour>
      <point x="45" y="-46" type="line"/>
      <point x="277" y="-46" type="line"/>
      <point x="277" y="1264" type="line"/>
      <point x="45" y="1264" type="line"/>
      <point x="45" y="1421" type="line"/>
      <point x="467" y="1421" type="line"/>
      <point x="467" y="-203" type="line"/>
      <point x="45" y="-203" type="line"/>
    </contour>
  </outline>
</glyph>
<glyph name="asciicircum.deva" format="1">
  <advance width="952"/>
  <unicode hex="005E"/>
  <outline>
    <contour>
      <point x="13" y="488" type="line"/>
      <point x="379" y="1326" type="line"/>
      <point x="493" y="1326" type="line"/>
      <point x="935" y="488" type="line"/>
      <point x="756" y="488" type="line"/>
      <point x="440" y="1121" type="line"/>
      <point x="192" y="488" type="line"/>
    </contour>
  </outline>
</glyph>
<glyph name="asciicircum" format="1">
  <advance width="952"/>
  <unicode hex="005E"/>
  <outline>
    <contour>
      <point x="13" y="488" type="line"/>
      <point x="379" y="1326" type="line"/>
      <point x="493" y="1326" type="line"/>
      <point x="935" y="488" type="line"/>
      <point x="756" y="488" type="line"/>
      <point x="440" y="1121" type="line"/>
      <point x="192" y="488" type="line"/>
    </contour>
  </outline>
</glyph>
<glyph name="underscore" format="1">
  <advance width="854"/>
  <unicode hex="005F"/>
  <outline>
    <contour>
      <point x="858" y="-301" type="line"/>
      <point x="-4" y="-301" type="line"/>
      <point x="-4" y="-152" type="line"/>
      <point x="858" y="-152" type="line"/>
    </contour>
  </outline>
</glyph>
<glyph name="grave" format="1">
  <advance width="1082"/>
  <unicode hex="0060"/>
  <outline>
    <contour>
      <point x="665" y="1241" type="line"/>
      <point x="646" y="1253"/>
      <point x="585" y="1272"/>
      <point x="548" y="1298" type="curve"/>
      <point x="480" y="1350"/>
      <point x="418" y="1401"/>
      <point x="362" y="1451" type="curve"/>
      <point x="332" y="1481"/>
      <point x="311" y="1513"/>
      <point x="301" y="1528" type="curve"/>
      <point x="478" y="1536" type="line"/>
      <point x="492" y="1517"/>
      <point x="589" y="1485"/>
      <point x="630" y="1440" type="curve"/>
      <point x="639" y="1424"/>
      <point x="680" y="1374"/>
      <point x="703" y="1343" type="curve" smooth="yes"/>
      <point x="726" y="1313"/>
      <point x="749" y="1273"/>
      <point x="772" y="1249" type="curve"/>
    </contour>
  </outline>
</glyph>
<glyph name="c" format="1">
  <advance width="913"/>
  <unicode hex="0063"/>
  <outline>
    <contour>
      <point x="553" y="-18" type="curve" smooth="yes"/>
      <point x="252" y="-18"/>
      <point x="92" y="164"/>
      <point x="92" y="492" type="curve" smooth="yes"/>
      <point x="92" y="827"/>
      <point x="259" y="1013"/>
      <point x="570" y="1013" type="curve" smooth="yes"/>
      <point x="675" y="1013"/>
      <point x="769" y="994"/>
      <point x="853" y="955" type="curve"/>
      <point x="789" y="785" type="line"/>
      <point x="700" y="820"/>
      <point x="626" y="837"/>
      <point x="568" y="837" type="curve" smooth="yes"/>
      <point x="396" y="837"/>
      <point x="310" y="723"/>
      <point x="310" y="494" type="curve" smooth="yes"/>
      <point x="310" y="271"/>
      <point x="397" y="158"/>
      <point x="562" y="158" type="curve" smooth="yes"/>
      <point x="657" y="158"/>
      <point x="746" y="182"/>
      <point x="830" y="229" type="curve"/>
      <point x="830" y="44" type="line"/>
      <point x="754" y="0"/>
      <point x="674" y="-18"/>
    </contour>
  </outline>
</glyph>
<glyph name="e" format="1">
  <advance width="1062"/>
  <unicode hex="0065"/>
  <outline>
    <contour>
      <point x="586" y="-18" type="curve" smooth="yes"/>
      <point x="433" y="-18"/>
      <point x="313" y="26"/>
      <point x="226" y="116" type="curve" smooth="yes"/>
      <point x="139" y="205"/>
      <point x="96" y="329"/>
      <point x="96" y="490" type="curve" smooth="yes"/>
      <point x="96" y="652"/>
      <point x="136" y="781"/>
      <point x="216" y="873" type="curve" smooth="yes"/>
      <point x="298" y="966"/>
      <point x="408" y="1013"/>
      <point x="548" y="1013" type="curve" smooth="yes"/>
      <point x="721" y="1013"/>
      <point x="840" y="938"/>
      <point x="893" y="798" type="curve" smooth="yes"/>
      <point x="945" y="739"/>
      <point x="971" y="619"/>
      <point x="971" y="522" type="curve"/>
      <point x="802" y="452" type="line"/>
      <point x="803" y="421"/>
      <point x="329" y="403"/>
      <point x="365" y="403" type="curve" smooth="yes"/>
      <point x="387" y="233"/>
      <point x="486" y="146"/>
      <point x="646" y="149" type="curve" smooth="yes"/>
      <point x="738" y="152"/>
      <point x="830" y="174"/>
      <point x="922" y="214" type="curve"/>
      <point x="922" y="49" type="line"/>
      <point x="868" y="24"/>
      <point x="817" y="8"/>
      <point x="766" y="-3" type="curve" smooth="yes"/>
      <point x="716" y="-13"/>
      <point x="656" y="-18"/>
    </contour>
    <contour>
      <point x="551" y="857" type="curve" smooth="yes"/>
      <point x="412" y="857"/>
      <point x="324" y="763"/>
      <point x="310" y="601" type="curve"/>
      <point x="768" y="601" type="line"/>
      <point x="768" y="765"/>
      <point x="689" y="857"/>
    </contour>
  </outline>
</glyph>
<glyph name="g" format="1">
  <advance width="1041"/>
  <unicode hex="0067"/>
  <outline>
    <contour>
      <point x="0" y="0" type="line"/>
      <point x="1041" y="0" type="line"/>
      <point x="1041" y="20" type="line"/>
      <point x="0" y="20" type="line"/>
    </contour>
  </outline>
</glyph>
<glyph name="i" format="1">
  <advance width="505"/>
  <unicode hex="0069"/>
  <outline>
    <contour>
      <point x="357" y="0" type="line"/>
      <point x="148" y="0" type="line"/>
      <point x="148" y="996" type="line"/>
      <point x="357" y="996" type="line"/>
    </contour>
    <contour>
      <point x="137" y="1260" type="curve" smooth="yes"/>
      <point x="137" y="1339"/>
      <point x="179" y="1376"/>
      <point x="254" y="1376" type="curve" smooth="yes"/>
      <point x="326" y="1376"/>
      <point x="371" y="1337"/>
      <point x="371" y="1260" type="curve" smooth="yes"/>
      <point x="371" y="1181"/>
      <point x="324" y="1144"/>
      <point x="254" y="1144" type="curve" smooth="yes"/>
      <point x="181" y="1144"/>
      <point x="137" y="1181"/>
    </contour>
  </outline>
</glyph>
<glyph name="j" format="1">
  <advance width="510"/>
  <unicode hex="006A"/>
  <outline>
    <contour>
      <point x="44" y="-443" type="curve" smooth="yes"/>
      <point x="-21" y="-443"/>
      <point x="-74" y="-435"/>
      <point x="-111" y="-420" type="curve"/>
      <point x="-111" y="-260" type="line"/>
      <point x="-70" y="-272"/>
      <point x="-27" y="-278"/>
      <point x="17" y="-278" type="curve" smooth="yes"/>
      <point x="115" y="-278"/>
      <point x="153" y="-229"/>
      <point x="153" y="-126" type="curve" smooth="yes"/>
      <point x="153" y="993" type="line"/>
      <point x="357" y="993" type="line"/>
      <point x="357" y="-116" type="line"/>
      <point x="357" y="-342"/>
      <point x="257" y="-443"/>
    </contour>
    <contour>
      <point x="142" y="1258" type="curve" smooth="yes"/>
      <point x="142" y="1335"/>
      <point x="195" y="1368"/>
      <point x="257" y="1368" type="curve" smooth="yes"/>
      <point x="315" y="1368"/>
      <point x="371" y="1335"/>
      <point x="371" y="1258" type="curve" smooth="yes"/>
      <point x="371" y="1176"/>
      <point x="315" y="1146"/>
      <point x="257" y="1146" type="curve" smooth="yes"/>
      <point x="195" y="1146"/>
      <point x="142" y="1181"/>
    </contour>
  </outline>
</glyph>
<glyph name="k" format="1">
  <advance width="1034"/>
  <unicode hex="006B"/>
  <outline>
    <contour>
      <point x="348" y="523" type="line"/>
      <point x="379" y="569"/>
      <point x="417" y="618"/>
      <point x="464" y="671" type="curve" smooth="yes"/>
      <point x="758" y="995" type="line"/>
      <point x="993" y="995" type="line"/>
      <point x="606" y="571" type="line"/>
      <point x="1020" y="0" type="line"/>
      <point x="779" y="0" type="line"/>
      <point x="464" y="439" type="line"/>
      <point x="352" y="344" type="line"/>
      <point x="352" y="0" type="line"/>
      <point x="148" y="0" type="line"/>
      <point x="148" y="1400" type="line"/>
      <point x="352" y="1400" type="line"/>
      <point x="352" y="710" type="line"/>
      <point x="352" y="660"/>
      <point x="348" y="598"/>
      <point x="341" y="523" type="curve"/>
    </contour>
  </outline>
</glyph>
<glyph name="l" format="1">
  <advance width="504"/>
  <unicode hex="006C"/>
  <outline>
    <contour>
      <point x="356" y="0" type="line"/>
      <point x="147" y="0" type="line"/>
      <point x="147" y="1400" type="line"/>
      <point x="356" y="1400" type="line"/>
    </contour>
  </outline>
</glyph>
<glyph name="m" format="1">
  <advance width="1752"/>
  <unicode hex="006D"/>
  <outline>
    <contour>
      <point x="1403" y="0" type="line"/>
      <point x="1403" y="616" type="line"/>
      <point x="1403" y="768"/>
      <point x="1346" y="843"/>
      <point x="1223" y="843" type="curve" smooth="yes"/>
      <point x="1059" y="843"/>
      <point x="984" y="743"/>
      <point x="984" y="529" type="curve" smooth="yes"/>
      <point x="984" y="0" type="line"/>
      <point x="775" y="0" type="line"/>
      <point x="775" y="616" type="line"/>
      <point x="775" y="768"/>
      <point x="719" y="843"/>
      <point x="595" y="843" type="curve" smooth="yes"/>
      <point x="429" y="843"/>
      <point x="356" y="743"/>
      <point x="356" y="496" type="curve" smooth="yes"/>
      <point x="356" y="0" type="line"/>
      <point x="147" y="0" type="line"/>
      <point x="147" y="996" type="line"/>
      <point x="311" y="996" type="line"/>
      <point x="341" y="864" type="line"/>
      <point x="352" y="864" type="line"/>
      <point x="408" y="959"/>
      <point x="516" y="1014"/>
      <point x="644" y="1014" type="curve" smooth="yes"/>
      <point x="796" y="1014"/>
      <point x="898" y="961"/>
      <point x="949" y="857" type="curve"/>
      <point x="963" y="857" type="line"/>
      <point x="1021" y="954"/>
      <point x="1135" y="1014"/>
      <point x="1272" y="1014" type="curve" smooth="yes"/>
      <point x="1501" y="1014"/>
      <point x="1612" y="901"/>
      <point x="1612" y="649" type="curve" smooth="yes"/>
      <point x="1612" y="0" type="line"/>
    </contour>
  </outline>
</glyph>
<glyph name="n" format="1">
  <advance width="1162"/>
  <unicode hex="006E"/>
  <outline>
    <contour>
      <point x="813" y="0" type="line"/>
      <point x="813" y="614" type="line"/>
      <point x="813" y="768"/>
      <point x="752" y="843"/>
      <point x="617" y="843" type="curve" smooth="yes"/>
      <point x="527" y="843"/>
      <point x="461" y="816"/>
      <point x="419" y="763" type="curve" smooth="yes"/>
      <point x="377" y="710"/>
      <point x="356" y="621"/>
      <point x="356" y="496" type="curve" smooth="yes"/>
      <point x="356" y="0" type="line"/>
      <point x="147" y="0" type="line"/>
      <point x="147" y="996" type="line"/>
      <point x="311" y="996" type="line"/>
      <point x="341" y="864" type="line"/>
      <point x="352" y="864" type="line"/>
      <point x="413" y="960"/>
      <point x="528" y="1014"/>
      <point x="665" y="1014" type="curve" smooth="yes"/>
      <point x="898" y="1014"/>
      <point x="1022" y="896"/>
      <point x="1022" y="649" type="curve" smooth="yes"/>
      <point x="1022" y="0" type="line"/>
    </contour>
  </outline>
</glyph>
<glyph name="o" format="1">
  <advance width="1131"/>
  <unicode hex="006F"/>
  <outline>
    <contour>
      <point x="1035" y="499" type="curve"/>
      <point x="1035" y="337"/>
      <point x="993" y="210"/>
      <point x="909" y="118" type="curve" smooth="yes"/>
      <point x="826" y="28"/>
      <point x="710" y="-18"/>
      <point x="562" y="-18" type="curve" smooth="yes"/>
      <point x="329" y="-20"/>
      <point x="160" y="137"/>
      <point x="136" y="386" type="curve" smooth="yes"/>
      <point x="109" y="527"/>
      <point x="124" y="653"/>
      <point x="181" y="764" type="curve" smooth="yes"/>
      <point x="238" y="877"/>
      <point x="330" y="946"/>
      <point x="457" y="973" type="curve" smooth="yes"/>
      <point x="581" y="1000"/>
      <point x="695" y="981"/>
      <point x="800" y="916" type="curve"/>
      <point x="946" y="853"/>
      <point x="1036" y="704"/>
    </contour>
    <contour>
      <point x="310" y="499" type="curve" smooth="yes"/>
      <point x="310" y="270"/>
      <point x="394" y="147"/>
      <point x="565" y="147" type="curve" smooth="yes"/>
      <point x="736" y="147"/>
      <point x="820" y="269"/>
      <point x="820" y="499" type="curve" smooth="yes"/>
      <point x="820" y="728"/>
      <point x="737" y="847"/>
      <point x="563" y="847" type="curve" smooth="yes"/>
      <point x="394" y="847"/>
      <point x="310" y="731"/>
    </contour>
  </outline>
</glyph>
<glyph name="p" format="1">
  <advance width="1157"/>
  <unicode hex="0070"/>
  <outline>
    <contour>
      <point x="648" y="-18" type="curve" smooth="yes"/>
      <point x="541" y="-18"/>
      <point x="432" y="19"/>
      <point x="357" y="106" type="curve"/>
      <point x="341" y="106" type="line"/>
      <point x="355" y="-4"/>
      <point x="360" y="-41"/>
      <point x="360" y="-137" type="curve" smooth="yes"/>
      <point x="358" y="-97"/>
      <point x="357" y="-821"/>
      <point x="357" y="-774" type="curve"/>
      <point x="74" y="-443" type="line"/>
      <point x="153" y="2256" type="line"/>
      <point x="383" y="993" type="line"/>
      <point x="356" y="738" type="line"/>
      <point x="354" y="862" type="line"/>
      <point x="498" y="1066"/>
      <point x="683" y="1151"/>
      <point x="932" y="1151" type="curve" smooth="yes"/>
      <point x="1120" y="1057"/>
      <point x="1215" y="925"/>
      <point x="1218" y="757" type="curve" smooth="yes"/>
      <point x="1118" y="589"/>
      <point x="1060" y="508"/>
      <point x="1060" y="498" type="curve" smooth="yes"/>
      <point x="1060" y="336"/>
      <point x="1025" y="209"/>
      <point x="952" y="118" type="curve" smooth="yes"/>
      <point x="881" y="28"/>
      <point x="780" y="-18"/>
    </contour>
    <contour>
      <point x="610" y="1602" type="curve" smooth="yes"/>
      <point x="52" y="1602"/>
      <point x="-208" y="1263"/>
      <point x="-213" y="564" type="curve" smooth="yes"/>
      <point x="-213" y="309"/>
      <point x="-121" y="119"/>
      <point x="63" y="119" type="curve"/>
      <point x="164" y="-143"/>
      <point x="282" y="-303"/>
      <point x="416" y="-360" type="curve" smooth="yes"/>
      <point x="550" y="-416"/>
      <point x="714" y="-382"/>
      <point x="906" y="-256" type="curve" smooth="yes"/>
      <point x="1067" y="-256"/>
      <point x="1193" y="-166"/>
      <point x="1284" y="-36" type="curve" smooth="yes"/>
      <point x="1377" y="230"/>
      <point x="1399" y="509"/>
      <point x="1354" y="795" type="curve" smooth="yes"/>
      <point x="1308" y="1316"/>
      <point x="1043" y="1602"/>
    </contour>
  </outline>
</glyph>
<glyph name="q" format="1">
  <advance width="1148"/>
  <unicode hex="0071"/>
  <outline>
    <contour>
      <point x="545" y="151" type="curve" smooth="yes"/>
      <point x="724" y="151"/>
      <point x="795" y="253"/>
      <point x="795" y="461" type="curve" smooth="yes"/>
      <point x="795" y="494" type="line" smooth="yes"/>
      <point x="795" y="617"/>
      <point x="775" y="706"/>
      <point x="735" y="760" type="curve" smooth="yes"/>
      <point x="695" y="814"/>
      <point x="631" y="841"/>
      <point x="542" y="841" type="curve" smooth="yes"/>
      <point x="390" y="841"/>
      <point x="310" y="717"/>
      <point x="310" y="492" type="curve" smooth="yes"/>
      <point x="310" y="265"/>
      <point x="388" y="151"/>
    </contour>
    <contour>
      <point x="485" y="-18" type="curve" smooth="yes"/>
      <point x="362" y="-18"/>
      <point x="266" y="27"/>
      <point x="196" y="117" type="curve"/>
      <point x="127" y="208"/>
      <point x="92" y="334"/>
      <point x="92" y="496" type="curve" smooth="yes"/>
      <point x="92" y="658"/>
      <point x="127" y="785"/>
      <point x="198" y="876" type="curve" smooth="yes"/>
      <point x="269" y="967"/>
      <point x="366" y="1013"/>
      <point x="490" y="1013" type="curve" smooth="yes"/>
      <point x="615" y="1013"/>
      <point x="714" y="970"/>
      <point x="791" y="865" type="curve"/>
      <point x="798" y="865" type="line"/>
      <point x="822" y="995" type="line"/>
      <point x="997" y="995" type="line"/>
      <point x="997" y="-443" type="line"/>
      <point x="785" y="-443" type="line"/>
      <point x="785" y="-21" type="line" smooth="yes"/>
      <point x="785" y="6"/>
      <point x="786" y="34"/>
      <point x="788" y="63" type="curve"/>
      <point x="795" y="130" type="line"/>
      <point x="783" y="130" type="line"/>
      <point x="720" y="31"/>
      <point x="621" y="-18"/>
    </contour>
  </outline>
</glyph>
<glyph name="r" format="1">
  <advance width="795"/>
  <unicode hex="0072"/>
  <outline>
    <contour>
      <point x="656" y="1013" type="curve" smooth="yes"/>
      <point x="699" y="1013"/>
      <point x="734" y="1010"/>
      <point x="761" y="1004" type="curve"/>
      <point x="741" y="807" type="line"/>
      <point x="711" y="814"/>
      <point x="680" y="818"/>
      <point x="647" y="818" type="curve" smooth="yes"/>
      <point x="562" y="818"/>
      <point x="494" y="790"/>
      <point x="441" y="735" type="curve" smooth="yes"/>
      <point x="389" y="680"/>
      <point x="363" y="608"/>
      <point x="363" y="520" type="curve" smooth="yes"/>
      <point x="363" y="0" type="line"/>
      <point x="151" y="0" type="line"/>
      <point x="151" y="995" type="line"/>
      <point x="317" y="995" type="line"/>
      <point x="345" y="820" type="line"/>
      <point x="355" y="820" type="line"/>
      <point x="422" y="939"/>
      <point x="533" y="1013"/>
    </contour>
  </outline>
</glyph>
<glyph name="t" format="1">
  <advance width="724"/>
  <unicode hex="0074"/>
  <outline>
    <contour>
      <point x="522" y="153" type="curve" smooth="yes"/>
      <point x="573" y="153"/>
      <point x="625" y="161"/>
      <point x="677" y="177" type="curve"/>
      <point x="677" y="18" type="line"/>
      <point x="630" y="-2"/>
      <point x="551" y="-18"/>
      <point x="472" y="-18" type="curve" smooth="yes"/>
      <point x="271" y="-18"/>
      <point x="171" y="88"/>
      <point x="171" y="299" type="curve" smooth="yes"/>
      <point x="171" y="835" type="line"/>
      <point x="35" y="835" type="line"/>
      <point x="35" y="929" type="line"/>
      <point x="181" y="1006" type="line"/>
      <point x="253" y="1217" type="line"/>
      <point x="383" y="1217" type="line"/>
      <point x="383" y="995" type="line"/>
      <point x="667" y="995" type="line"/>
      <point x="667" y="835" type="line"/>
      <point x="383" y="835" type="line"/>
      <point x="383" y="302" type="line" smooth="yes"/>
      <point x="383" y="201"/>
      <point x="439" y="153"/>
    </contour>
  </outline>
</glyph>
<glyph name="v" format="1">
  <advance width="983"/>
  <unicode hex="0076"/>
  <outline>
    <contour>
      <point x="378" y="0" type="line"/>
      <point x="0" y="996" type="line"/>
      <point x="221" y="996" type="line"/>
      <point x="422" y="406" type="line"/>
      <point x="457" y="306"/>
      <point x="480" y="228"/>
      <point x="486" y="187" type="curve"/>
      <point x="493" y="187" type="line"/>
      <point x="498" y="219"/>
      <point x="514" y="276"/>
      <point x="542" y="356" type="curve" smooth="yes"/>
      <point x="567" y="427"/>
      <point x="676" y="759"/>
      <point x="762" y="996" type="curve"/>
      <point x="983" y="996" type="line"/>
      <point x="604" y="0" type="line"/>
    </contour>
  </outline>
</glyph>
<glyph name="x" format="1">
  <advance width="1023"/>
  <unicode hex="0078"/>
  <outline>
    <contour>
      <point x="379" y="509" type="line"/>
      <point x="45" y="996" type="line"/>
      <point x="283" y="996" type="line"/>
      <point x="511" y="645" type="line"/>
      <point x="741" y="996" type="line"/>
      <point x="978" y="996" type="line"/>
      <point x="642" y="509" type="line"/>
      <point x="994" y="0" type="line"/>
      <point x="758" y="0" type="line"/>
      <point x="511" y="374" type="line"/>
      <point x="264" y="0" type="line"/>
      <point x="27" y="0" type="line"/>
    </contour>
  </outline>
</glyph>
<glyph name="y" format="1">
  <advance width="968"/>
  <unicode hex="0079"/>
  <outline>
    <contour>
      <point x="-1" y="996" type="line"/>
      <point x="214" y="996" type="line"/>
      <point x="406" y="432" type="line"/>
      <point x="445" y="323"/>
      <point x="469" y="244"/>
      <point x="480" y="192" type="curve"/>
      <point x="486" y="192" type="line"/>
      <point x="503" y="253"/>
      <point x="529" y="334"/>
      <point x="565" y="434" type="curve"/>
      <point x="759" y="996" type="line"/>
      <point x="968" y="996" type="line"/>
      <point x="546" y="-117" type="line"/>
      <point x="503" y="-230"/>
      <point x="458" y="-307"/>
      <point x="412" y="-350" type="curve" smooth="yes"/>
      <point x="352" y="-412"/>
      <point x="274" y="-443"/>
      <point x="170" y="-443" type="curve" smooth="yes"/>
      <point x="130" y="-443"/>
      <point x="88" y="-437"/>
      <point x="43" y="-426" type="curve"/>
      <point x="43" y="-261" type="line"/>
      <point x="76" y="-269"/>
      <point x="113" y="-274"/>
      <point x="153" y="-274" type="curve" smooth="yes"/>
      <point x="201" y="-274"/>
      <point x="239" y="-255"/>
      <point x="270" y="-216" type="curve" smooth="yes"/>
      <point x="291" y="-194"/>
      <point x="312" y="-159"/>
      <point x="334" y="-113" type="curve" smooth="yes"/>
      <point x="355" y="-67"/>
      <point x="373" y="-27"/>
      <point x="385" y="6" type="curve"/>
    </contour>
  </outline>
</glyph>
<glyph name="z" format="1">
  <advance width="883"/>
  <unicode hex="007A"/>
  <outline>
    <contour>
      <point x="818" y="0" type="line"/>
      <point x="65" y="0" type="line"/>
      <point x="65" y="131" type="line"/>
      <point x="569" y="835" type="line"/>
      <point x="96" y="835" type="line"/>
      <point x="96" y="996" type="line"/>
      <point x="803" y="996" type="line"/>
      <point x="803" y="850" type="line"/>
      <point x="309" y="161" type="line"/>
      <point x="818" y="161" type="line"/>
    </contour>
  </outline>
</glyph>
<glyph name="braceleft.deva" format="1">
  <advance width="677"/>
  <unicode hex="007B"/>
  <outline>
    <contour>
      <point x="473" y="142" type="line"/>
      <point x="473" y="19"/>
      <point x="552" y="-25"/>
      <point x="654" y="-27" type="curve"/>
      <point x="654" y="-192" type="line"/>
      <point x="327" y="-186"/>
      <point x="156" y="-7"/>
      <point x="200" y="303" type="curve" smooth="yes"/>
      <point x="243" y="263"/>
      <point x="266" y="715"/>
      <point x="266" y="632" type="curve"/>
      <point x="266" y="868"/>
      <point x="120" y="691"/>
      <point x="-152" y="691" type="curve"/>
      <point x="-152" y="582"/>
      <point x="-90" y="766"/>
      <point x="32" y="764" type="curve"/>
      <point x="327" y="770"/>
      <point x="450" y="806"/>
      <point x="450" y="1023" type="curve" smooth="yes"/>
      <point x="319" y="1020"/>
      <point x="266" y="1489"/>
      <point x="266" y="1383" type="curve"/>
      <point x="266" y="1559"/>
      <point x="326" y="1417"/>
      <point x="449" y="1513" type="curve" smooth="yes"/>
      <point x="572" y="1452"/>
      <point x="640" y="1420"/>
      <point x="654" y="1416" type="curve"/>
      <point x="654" y="1252" type="line"/>
      <point x="540" y="1251"/>
      <point x="473" y="1192"/>
      <point x="473" y="1086" type="curve" smooth="yes"/>
      <point x="473" y="827" type="line"/>
      <point x="473" y="722"/>
      <point x="391" y="641"/>
      <point x="243" y="618" type="curve"/>
      <point x="243" y="606" type="line"/>
      <point x="391" y="584"/>
      <point x="473" y="502"/>
      <point x="473" y="390" type="curve" smooth="yes"/>
    </contour>
  </outline>
</glyph>
<glyph name="bar.deva" format="1">
  <advance width="994"/>
  <unicode hex="007C"/>
  <outline>
    <contour>
      <point x="419" y="1400" type="line"/>
      <point x="576" y="1400" type="line"/>
      <point x="576" y="-434" type="line"/>
      <point x="419" y="-434" type="line"/>
    </contour>
  </outline>
</glyph>
<glyph name="bar" format="1">
  <advance width="992"/>
  <unicode hex="007C"/>
  <outline>
    <contour>
      <point x="417" y="1400" type="line"/>
      <point x="576" y="1400" type="line"/>
      <point x="576" y="-433" type="line"/>
      <point x="417" y="-433" type="line"/>
    </contour>
  </outline>
</glyph>
<glyph name="braceright" format="1">
  <advance width="675"/>
  <unicode hex="007D"/>
  <outline>
    <contour>
      <point x="579" y="841" type="line"/>
      <point x="325" y="755"/>
      <point x="154" y="835"/>
      <point x="51" y="1057" type="curve" smooth="yes"/>
      <point x="51" y="1553" type="line"/>
      <point x="154" y="1748"/>
      <point x="71" y="1800"/>
      <point x="-186" y="1668" type="curve"/>
      <point x="-186" y="1660" type="line"/>
      <point x="21" y="1550"/>
      <point x="247" y="1445"/>
      <point x="514" y="1339" type="curve" smooth="yes"/>
      <point x="633" y="1241"/>
      <point x="694" y="1033"/>
      <point x="694" y="859" type="curve" smooth="yes"/>
      <point x="509" y="859"/>
      <point x="406" y="424"/>
      <point x="406" y="584" type="curve"/>
      <point x="406" y="365"/>
      <point x="532" y="547"/>
      <point x="827" y="541" type="curve"/>
      <point x="827" y="647"/>
      <point x="772" y="457"/>
      <point x="643" y="460" type="curve"/>
      <point x="369" y="460"/>
      <point x="222" y="431"/>
      <point x="222" y="195" type="curve" smooth="yes"/>
      <point x="345" y="197"/>
      <point x="406" y="-260"/>
      <point x="406" y="-151" type="curve"/>
      <point x="406" y="-499"/>
      <point x="166" y="-432"/>
      <point x="-264" y="-437" type="curve"/>
      <point x="-264" y="-355"/>
      <point x="-242" y="-54"/>
      <point x="-198" y="-14" type="curve"/>
      <point x="97" y="31"/>
      <point x="305" y="148"/>
      <point x="409" y="380" type="curve" smooth="yes"/>
      <point x="409" y="812" type="line"/>
      <point x="258" y="1068"/>
      <point x="322" y="1144"/>
      <point x="579" y="1079" type="curve"/>
    </contour>
  </outline>
</glyph>
<glyph name="asciitilde.deva" format="1">
  <advance width="1051"/>
  <unicode hex="007E"/>
  <outline>
    <contour>
      <point x="295" y="624" type="curve" smooth="yes"/>
      <point x="231" y="624"/>
      <point x="152" y="582"/>
      <point x="85" y="515" type="curve"/>
      <point x="85" y="686" type="line"/>
      <point x="146" y="751"/>
      <point x="221" y="783"/>
      <point x="310" y="783" type="curve" smooth="yes"/>
      <point x="351" y="783"/>
      <point x="388" y="779"/>
      <point x="423" y="771" type="curve" smooth="yes"/>
      <point x="458" y="763"/>
      <point x="502" y="747"/>
      <point x="555" y="725" type="curve" smooth="yes"/>
      <point x="635" y="692"/>
      <point x="694" y="675"/>
      <point x="753" y="675" type="curve" smooth="yes"/>
      <point x="816" y="675"/>
      <point x="898" y="716"/>
      <point x="963" y="784" type="curve"/>
      <point x="963" y="615" type="line"/>
      <point x="902" y="549"/>
      <point x="827" y="516"/>
      <point x="739" y="516" type="curve" smooth="yes"/>
      <point x="665" y="516"/>
      <point x="604" y="531"/>
      <point x="532" y="561" type="curve"/>
      <point x="489" y="577"/>
      <point x="450" y="591"/>
      <point x="416" y="602" type="curve" smooth="yes"/>
      <point x="374" y="617"/>
      <point x="334" y="624"/>
    </contour>
  </outline>
</glyph>
<glyph name="copyright" format="1">
  <advance width="1534"/>
  <unicode hex="00A9"/>
  <outline>
    <contour>
      <point x="801" y="926" type="curve" smooth="yes"/>
      <point x="668" y="926"/>
      <point x="601" y="822"/>
      <point x="601" y="656" type="curve" smooth="yes"/>
      <point x="601" y="476"/>
      <point x="663" y="387"/>
      <point x="804" y="387" type="curve" smooth="yes"/>
      <point x="855" y="387"/>
      <point x="923" y="400"/>
      <point x="1004" y="428" type="curve"/>
      <point x="1004" y="288" type="line"/>
      <point x="951" y="267"/>
      <point x="901" y="243"/>
      <point x="799" y="243" type="curve" smooth="yes"/>
      <point x="558" y="243"/>
      <point x="427" y="402"/>
      <point x="427" y="663" type="curve" smooth="yes"/>
      <point x="427" y="788"/>
      <point x="460" y="888"/>
      <point x="525" y="960" type="curve" smooth="yes"/>
      <point x="592" y="1033"/>
      <point x="683" y="1070"/>
      <point x="801" y="1070" type="curve" smooth="yes"/>
      <point x="884" y="1070"/>
      <point x="960" y="1050"/>
      <point x="1037" y="1009" type="curve"/>
      <point x="969" y="876" type="line"/>
      <point x="898" y="910"/>
      <point x="843" y="926"/>
    </contour>
    <contour>
      <point x="90" y="658" type="curve" smooth="yes"/>
      <point x="90" y="778"/>
      <point x="120" y="890"/>
      <point x="180" y="995" type="curve" smooth="yes"/>
      <point x="240" y="1100"/>
      <point x="322" y="1183"/>
      <point x="427" y="1244" type="curve" smooth="yes"/>
      <point x="532" y="1305"/>
      <point x="646" y="1335"/>
      <point x="767" y="1335" type="curve" smooth="yes"/>
      <point x="887" y="1335"/>
      <point x="999" y="1305"/>
      <point x="1104" y="1245" type="curve" smooth="yes"/>
      <point x="1209" y="1185"/>
      <point x="1292" y="1102"/>
      <point x="1353" y="997" type="curve" smooth="yes"/>
      <point x="1414" y="892"/>
      <point x="1444" y="779"/>
      <point x="1444" y="658" type="curve" smooth="yes"/>
      <point x="1444" y="540"/>
      <point x="1415" y="429"/>
      <point x="1356" y="325" type="curve" smooth="yes"/>
      <point x="1298" y="221"/>
      <point x="1216" y="138"/>
      <point x="1111" y="75" type="curve" smooth="yes"/>
      <point x="1006" y="13"/>
      <point x="892" y="-18"/>
      <point x="767" y="-18" type="curve" smooth="yes"/>
      <point x="642" y="-18"/>
      <point x="527" y="13"/>
      <point x="422" y="75" type="curve" smooth="yes"/>
      <point x="317" y="137"/>
      <point x="236" y="220"/>
      <point x="177" y="324" type="curve" smooth="yes"/>
      <point x="119" y="428"/>
      <point x="90" y="539"/>
    </contour>
    <contour>
      <point x="193" y="658" type="curve" smooth="yes"/>
      <point x="193" y="557"/>
      <point x="219" y="461"/>
      <point x="270" y="370" type="curve"/>
      <point x="323" y="281"/>
      <point x="392" y="211"/>
      <point x="481" y="160" type="curve"/>
      <point x="572" y="111"/>
      <point x="668" y="86"/>
      <point x="767" y="86" type="curve" smooth="yes"/>
      <point x="868" y="86"/>
      <point x="964" y="112"/>
      <point x="1052" y="163" type="curve" smooth="yes"/>
      <point x="1141" y="214"/>
      <point x="1210" y="281"/>
      <point x="1261" y="369" type="curve" smooth="yes"/>
      <point x="1314" y="456"/>
      <point x="1339" y="553"/>
      <point x="1339" y="658" type="curve" smooth="yes"/>
      <point x="1339" y="762"/>
      <point x="1313" y="859"/>
      <point x="1258" y="946" type="curve"/>
      <point x="1206" y="1035"/>
      <point x="1135" y="1105"/>
      <point x="1049" y="1154" type="curve" smooth="yes"/>
      <point x="963" y="1205"/>
      <point x="868" y="1229"/>
      <point x="767" y="1229" type="curve" smooth="yes"/>
      <point x="663" y="1229"/>
      <point x="568" y="1204"/>
      <point x="480" y="1153" type="curve" smooth="yes"/>
      <point x="393" y="1102"/>
      <point x="324" y="1032"/>
      <point x="271" y="946" type="curve" smooth="yes"/>
      <point x="218" y="861"/>
      <point x="193" y="763"/>
    </contour>
  </outline>
</glyph>
<glyph name="multiply.deva" format="1">
  <advance width="1051"/>
  <unicode hex="00D7"/>
  <outline>
    <contour>
      <point x="700" y="939" type="line"/>
      <point x="690" y="946" type="line"/>
      <point x="515" y="772" type="line"/>
      <point x="809" y="477" type="line"/>
      <point x="820" y="485" type="line"/>
      <point x="645" y="660" type="line"/>
      <point x="351" y="364" type="line"/>
      <point x="358" y="355" type="line"/>
      <point x="532" y="530" type="line"/>
      <point x="236" y="825" type="line"/>
      <point x="228" y="818" type="line"/>
      <point x="405" y="642" type="line"/>
    </contour>
  </outline>
</glyph>
<glyph name="multiply" format="1">
  <advance width="1051"/>
  <unicode hex="00D7"/>
  <outline>
    <contour>
      <point x="700" y="939" type="line"/>
      <point x="690" y="946" type="line"/>
      <point x="515" y="772" type="line"/>
      <point x="809" y="477" type="line"/>
      <point x="820" y="485" type="line"/>
      <point x="645" y="660" type="line"/>
      <point x="351" y="364" type="line"/>
      <point x="358" y="355" type="line"/>
      <point x="532" y="530" type="line"/>
      <point x="236" y="825" type="line"/>
      <point x="228" y="818" type="line"/>
      <point x="405" y="642" type="line"/>
    </contour>
  </outline>
</glyph>
<glyph name="divide.deva" format="1">
  <advance width="1052"/>
  <unicode hex="00F7"/>
  <outline>
    <contour>
      <point x="86" y="570" type="line"/>
      <point x="86" y="730" type="line"/>
      <point x="966" y="730" type="line"/>
      <point x="966" y="570" type="line"/>
    </contour>
    <contour>
      <point x="411" y="336" type="curve" smooth="yes"/>
      <point x="411" y="412"/>
      <point x="449" y="457"/>
      <point x="526" y="457" type="curve" smooth="yes"/>
      <point x="598" y="457"/>
      <point x="638" y="411"/>
      <point x="638" y="336" type="curve" smooth="yes"/>
      <point x="638" y="260"/>
      <point x="594" y="212"/>
      <point x="526" y="212" type="curve" smooth="yes"/>
      <point x="454" y="212"/>
      <point x="411" y="256"/>
    </contour>
    <contour>
      <point x="411" y="964" type="curve" smooth="yes"/>
      <point x="411" y="1040"/>
      <point x="449" y="1085"/>
      <point x="526" y="1085" type="curve" smooth="yes"/>
      <point x="598" y="1085"/>
      <point x="638" y="1040"/>
      <point x="638" y="964" type="curve" smooth="yes"/>
      <point x="638" y="888"/>
      <point x="594" y="841"/>
      <point x="526" y="841" type="curve" smooth="yes"/>
      <point x="454" y="841"/>
      <point x="411" y="884"/>
    </contour>
  </outline>
</glyph>
<glyph name="divide" format="1">
  <advance width="1051"/>
  <unicode hex="00F7"/>
  <outline>
    <contour>
      <point x="85" y="571" type="line"/>
      <point x="85" y="729" type="line"/>
      <point x="963" y="729" type="line"/>
      <point x="963" y="571" type="line"/>
    </contour>
    <contour>
      <point x="411" y="325" type="curve" smooth="yes"/>
      <point x="411" y="405"/>
      <point x="451" y="447"/>
      <point x="524" y="447" type="curve" smooth="yes"/>
      <point x="594" y="447"/>
      <point x="636" y="403"/>
      <point x="636" y="325" type="curve" smooth="yes"/>
      <point x="636" y="248"/>
      <point x="591" y="203"/>
      <point x="524" y="203" type="curve" smooth="yes"/>
      <point x="455" y="203"/>
      <point x="411" y="246"/>
    </contour>
    <contour>
      <point x="411" y="975" type="curve" smooth="yes"/>
      <point x="411" y="1055"/>
      <point x="451" y="1097"/>
      <point x="524" y="1097" type="curve" smooth="yes"/>
      <point x="594" y="1097"/>
      <point x="636" y="1053"/>
      <point x="636" y="975" type="curve" smooth="yes"/>
      <point x="636" y="899"/>
      <point x="591" y="853"/>
      <point x="524" y="853" type="curve" smooth="yes"/>
      <point x="455" y="853"/>
      <point x="411" y="897"/>
    </contour>
  </outline>
</glyph>
<glyph name="anusvaradeva" format="1">
  <advance width="0"/>
  <unicode hex="0902"/>
  <outline>
    <contour>
      <point x="-326" y="1680" type="curve" smooth="yes"/>
      <point x="-247" y="1680"/>
      <point x="-210" y="1629"/>
      <point x="-210" y="1566" type="curve" smooth="yes"/>
      <point x="-210" y="1504"/>
      <point x="-247" y="1451"/>
      <point x="-326" y="1451" type="curve" smooth="yes"/>
      <point x="-402" y="1451"/>
      <point x="-441" y="1502"/>
      <point x="-441" y="1566" type="curve" smooth="yes"/>
      <point x="-441" y="1629"/>
      <point x="-403" y="1680"/>
    </contour>
    <contour>
      <point x="49" y="8" type="move" name="x12"/>
    </contour>
    <contour>
      <point x="-424" y="1282" type="move" name="_mark0"/>
    </contour>
  </outline>
</glyph>
<glyph name="adeva" format="1">
  <advance width="1609"/>
  <unicode hex="0905"/>
  <outline>
    <contour>
      <point x="317" y="649" type="line"/>
      <point x="281" y="810" type="line"/>
      <point x="290" y="810" type="line"/>
      <point x="554" y="816"/>
      <point x="652" y="902"/>
      <point x="652" y="1001" type="curve" smooth="yes"/>
      <point x="652" y="1078"/>
      <point x="588" y="1129"/>
      <point x="478" y="1129" type="curve" smooth="yes"/>
      <point x="387" y="1129"/>
      <point x="297" y="1100"/>
      <point x="205" y="1047" type="curve"/>
      <point x="152" y="1211" type="line"/>
      <point x="242" y="1257"/>
      <point x="352" y="1291"/>
      <point x="483" y="1291" type="curve" smooth="yes"/>
      <point x="707" y="1291"/>
      <point x="831" y="1166"/>
      <point x="831" y="985" type="curve" smooth="yes"/>
      <point x="831" y="799"/>
      <point x="664" y="658"/>
      <point x="332" y="650" type="curve" smooth="yes"/>
    </contour>
    <contour>
      <point x="633" y="812" type="line"/>
      <point x="786" y="736"/>
      <point x="882" y="631"/>
      <point x="882" y="469" type="curve" smooth="yes"/>
      <point x="882" y="293"/>
      <point x="743" y="146"/>
      <point x="522" y="146" type="curve" smooth="yes"/>
      <point x="358" y="146"/>
      <point x="227" y="202"/>
      <point x="94" y="298" type="curve"/>
      <point x="140" y="457" type="line"/>
      <point x="262" y="363"/>
      <point x="368" y="318"/>
      <point x="484" y="318" type="curve" smooth="yes"/>
      <point x="619" y="318"/>
      <point x="693" y="391"/>
      <point x="693" y="497" type="curve" smooth="yes"/>
      <point x="693" y="588"/>
      <point x="629" y="661"/>
      <point x="511" y="710" type="curve"/>
    </contour>
    <contour>
      <point x="745" y="671" type="line"/>
      <point x="807" y="649"/>
      <point x="867" y="641"/>
      <point x="950" y="641" type="curve" smooth="yes"/>
      <point x="1037" y="641"/>
      <point x="1141" y="665"/>
      <point x="1205" y="715" type="curve"/>
      <point x="1205" y="516" type="line"/>
      <point x="1166" y="499"/>
      <point x="1081" y="482"/>
      <point x="1002" y="482" type="curve" smooth="yes"/>
      <point x="918" y="482"/>
      <point x="848" y="492"/>
      <point x="771" y="505" type="curve"/>
    </contour>
    <contour>
      <point x="1177" y="1169" type="line"/>
      <point x="1384" y="1169" type="line"/>
      <point x="1384" y="0" type="line"/>
      <point x="1177" y="0" type="line"/>
    </contour>
    <contour>
      <point x="1639" y="1136" type="line"/>
      <point x="972" y="1136" type="line"/>
      <point x="972" y="1283" type="line"/>
      <point x="1639" y="1283" type="line"/>
    </contour>
  </outline>
</glyph>
<glyph name="aadeva" format="1">
  <advance width="2217"/>
  <unicode hex="0906"/>
  <outline>
    <contour>
      <point x="745" y="667" type="line"/>
      <point x="812" y="646"/>
      <point x="883" y="638"/>
      <point x="956" y="638" type="curve" smooth="yes"/>
      <point x="1041" y="638"/>
      <point x="1148" y="665"/>
      <point x="1212" y="715" type="curve"/>
      <point x="1212" y="516" type="line"/>
      <point x="1171" y="496"/>
      <point x="1083" y="477"/>
      <point x="1006" y="477" type="curve" smooth="yes"/>
      <point x="930" y="477"/>
      <point x="848" y="488"/>
      <point x="771" y="503" type="curve"/>
    </contour>
    <contour>
      <point x="1787" y="1169" type="line"/>
      <point x="1993" y="1169" type="line"/>
      <point x="1993" y="0" type="line"/>
      <point x="1787" y="0" type="line"/>
    </contour>
    <contour>
      <point x="1184" y="1169" type="line"/>
      <point x="1391" y="1169" type="line"/>
      <point x="1391" y="0" type="line"/>
      <point x="1184" y="0" type="line"/>
    </contour>
    <contour>
      <point x="2247" y="1136" type="line"/>
      <point x="979" y="1136" type="line"/>
      <point x="979" y="1283" type="line"/>
      <point x="2247" y="1283" type="line"/>
    </contour>
    <contour>
      <point x="305" y="635" type="line"/>
      <point x="270" y="797" type="line"/>
      <point x="279" y="797" type="line"/>
      <point x="542" y="803"/>
      <point x="645" y="897"/>
      <point x="645" y="996" type="curve" smooth="yes"/>
      <point x="645" y="1078"/>
      <point x="580" y="1135"/>
      <point x="462" y="1135" type="curve" smooth="yes"/>
      <point x="371" y="1135"/>
      <point x="274" y="1102"/>
      <point x="182" y="1048" type="curve"/>
      <point x="127" y="1213" type="line"/>
      <point x="217" y="1260"/>
      <point x="333" y="1298"/>
      <point x="468" y="1298" type="curve" smooth="yes"/>
      <point x="702" y="1298"/>
      <point x="826" y="1165"/>
      <point x="826" y="985" type="curve" smooth="yes"/>
      <point x="826" y="790"/>
      <point x="652" y="644"/>
      <point x="320" y="636" type="curve" smooth="yes"/>
    </contour>
    <contour>
      <point x="641" y="806" type="line"/>
      <point x="794" y="723"/>
      <point x="889" y="605"/>
      <point x="889" y="441" type="curve" smooth="yes"/>
      <point x="889" y="259"/>
      <point x="754" y="107"/>
      <point x="528" y="107" type="curve" smooth="yes"/>
      <point x="374" y="107"/>
      <point x="224" y="164"/>
      <point x="86" y="265" type="curve"/>
      <point x="134" y="428" type="line"/>
      <point x="264" y="325"/>
      <point x="379" y="282"/>
      <point x="492" y="282" type="curve" smooth="yes"/>
      <point x="625" y="282"/>
      <point x="700" y="363"/>
      <point x="700" y="467" type="curve" smooth="yes"/>
      <point x="700" y="571"/>
      <point x="629" y="654"/>
      <point x="511" y="702" type="curve"/>
    </contour>
  </outline>
</glyph>
<glyph name="ideva" format="1">
  <advance width="1052"/>
  <unicode hex="0907"/>
  <outline>
    <contour>
      <point x="517" y="132" type="line"/>
      <point x="788" y="-159" type="line"/>
      <point x="656" y="-250" type="line"/>
      <point x="338" y="98" type="line"/>
      <point x="433" y="32" type="line"/>
      <point x="208" y="32"/>
      <point x="120" y="110"/>
      <point x="120" y="184" type="curve" smooth="yes"/>
      <point x="120" y="248"/>
      <point x="174" y="305"/>
      <point x="252" y="305" type="curve" smooth="yes"/>
      <point x="323" y="305"/>
      <point x="399" y="267"/>
      <point x="502" y="156" type="curve"/>
    </contour>
    <contour>
      <point x="643" y="1167" type="line"/>
      <point x="850" y="1167" type="line"/>
      <point x="850" y="801" type="line"/>
      <point x="439" y="801" type="line"/>
      <point x="325" y="801"/>
      <point x="284" y="752"/>
      <point x="284" y="692" type="curve" smooth="yes"/>
      <point x="284" y="638"/>
      <point x="322" y="591"/>
      <point x="410" y="556" type="curve"/>
      <point x="324" y="560" type="line"/>
      <point x="416" y="600"/>
      <point x="511" y="627"/>
      <point x="627" y="627" type="curve" smooth="yes"/>
      <point x="815" y="627"/>
      <point x="946" y="519"/>
      <point x="946" y="360" type="curve" smooth="yes"/>
      <point x="946" y="178"/>
      <point x="780" y="38"/>
      <point x="459" y="38" type="curve"/>
      <point x="422" y="190" type="line"/>
      <point x="663" y="190"/>
      <point x="761" y="272"/>
      <point x="761" y="358" type="curve" smooth="yes"/>
      <point x="761" y="426"/>
      <point x="708" y="471"/>
      <point x="604" y="471" type="curve" smooth="yes"/>
      <point x="535" y="471"/>
      <point x="448" y="441"/>
      <point x="375" y="404" type="curve"/>
      <point x="368" y="404" type="line"/>
      <point x="175" y="495"/>
      <point x="100" y="606"/>
      <point x="100" y="723" type="curve" smooth="yes"/>
      <point x="100" y="843"/>
      <point x="192" y="949"/>
      <point x="404" y="949" type="curve" smooth="yes"/>
      <point x="695" y="949" type="line"/>
      <point x="643" y="897" type="line"/>
    </contour>
    <contour>
      <point x="1082" y="1136" type="line"/>
      <point x="-30" y="1136" type="line"/>
      <point x="-30" y="1283" type="line"/>
      <point x="1082" y="1283" type="line"/>
    </contour>
  </outline>
</glyph>
<glyph name="udeva" format="1">
  <advance width="1083"/>
  <unicode hex="0909"/>
  <outline>
    <contour>
      <point x="317" y="604" type="line"/>
      <point x="279" y="773" type="line"/>
      <point x="294" y="774" type="line"/>
      <point x="588" y="783"/>
      <point x="684" y="871"/>
      <point x="684" y="980" type="curve" smooth="yes"/>
      <point x="684" y="1054"/>
      <point x="643" y="1114"/>
      <point x="539" y="1154" type="curve"/>
      <point x="631" y="1264" type="line"/>
      <point x="788" y="1213"/>
      <point x="872" y="1120"/>
      <point x="872" y="959" type="curve" smooth="yes"/>
      <point x="872" y="770"/>
      <point x="707" y="617"/>
      <point x="332" y="605" type="curve" smooth="yes"/>
    </contour>
    <contour>
      <point x="-30" y="1136" type="line"/>
      <point x="-30" y="1283" type="line"/>
      <point x="1113" y="1283" type="line"/>
      <point x="1113" y="1136" type="line"/>
    </contour>
    <contour>
      <point x="661" y="770" type="line"/>
      <point x="854" y="683"/>
      <point x="959" y="540"/>
      <point x="959" y="376" type="curve" smooth="yes"/>
      <point x="959" y="176"/>
      <point x="807" y="32"/>
      <point x="564" y="32" type="curve" smooth="yes"/>
      <point x="399" y="32"/>
      <point x="231" y="91"/>
      <point x="71" y="200" type="curve"/>
      <point x="127" y="364" type="line"/>
      <point x="261" y="266"/>
      <point x="409" y="208"/>
      <point x="537" y="208" type="curve" smooth="yes"/>
      <point x="676" y="208"/>
      <point x="766" y="283"/>
      <point x="766" y="400" type="curve" smooth="yes"/>
      <point x="766" y="506"/>
      <point x="680" y="611"/>
      <point x="527" y="657" type="curve"/>
    </contour>
    <contour>
      <point x="569" y="1283" type="move" name="top"/>
    </contour>
  </outline>
</glyph>
<glyph name="uudeva" format="1">
  <advance width="1567"/>
  <unicode hex="090A"/>
  <outline>
    <contour>
      <point x="855" y="447" type="curve"/>
      <point x="760" y="639" type="line"/>
      <point x="848" y="701"/>
      <point x="974" y="759"/>
      <point x="1097" y="759" type="curve" smooth="yes"/>
      <point x="1327" y="759"/>
      <point x="1467" y="619"/>
      <point x="1467" y="417" type="curve" smooth="yes"/>
      <point x="1467" y="290"/>
      <point x="1417" y="164"/>
      <point x="1339" y="59" type="curve"/>
      <point x="1160" y="129" type="line"/>
      <point x="1240" y="240"/>
      <point x="1286" y="342"/>
      <point x="1286" y="438" type="curve" smooth="yes"/>
      <point x="1286" y="528"/>
      <point x="1228" y="591"/>
      <point x="1126" y="591" type="curve" smooth="yes"/>
      <point x="1029" y="591"/>
      <point x="933" y="535"/>
    </contour>
    <contour>
      <point x="1081" y="1136" type="line"/>
      <point x="1077" y="1283" type="line"/>
      <point x="1597" y="1283" type="line"/>
      <point x="1597" y="1136" type="line"/>
    </contour>
    <component base="udeva"/>
    <contour>
      <point x="569" y="1283" type="move" name="top"/>
    </contour>
  </outline>
</glyph>
<glyph name="rvocalicdeva" format="1">
  <advance width="1593"/>
  <unicode hex="090B"/>
  <outline>
    <contour>
      <point x="892" y="697" type="line"/>
      <point x="929" y="669"/>
      <point x="965" y="657"/>
      <point x="1028" y="657" type="curve" smooth="yes"/>
      <point x="1097" y="657"/>
      <point x="1185" y="672"/>
      <point x="1264" y="734" type="curve"/>
      <point x="1201" y="665" type="line"/>
      <point x="1168" y="712"/>
      <point x="1152" y="741"/>
      <point x="1152" y="777" type="curve" smooth="yes"/>
      <point x="1152" y="822"/>
      <point x="1189" y="866"/>
      <point x="1269" y="866" type="curve" smooth="yes"/>
      <point x="1380" y="866"/>
      <point x="1474" y="813"/>
      <point x="1474" y="739" type="curve" smooth="yes"/>
      <point x="1474" y="644"/>
      <point x="1300" y="505"/>
      <point x="1043" y="505" type="curve" smooth="yes"/>
      <point x="965" y="505"/>
      <point x="894" y="515"/>
      <point x="818" y="550" type="curve"/>
    </contour>
    <contour>
      <point x="1233" y="593" type="curve"/>
      <point x="1370" y="671" type="line"/>
      <point x="1456" y="551"/>
      <point x="1511" y="442"/>
      <point x="1511" y="343" type="curve" smooth="yes"/>
      <point x="1511" y="213"/>
      <point x="1434" y="100"/>
      <point x="1223" y="66" type="curve"/>
      <point x="1129" y="207" type="line"/>
      <point x="1279" y="238"/>
      <point x="1338" y="296"/>
      <point x="1338" y="380" type="curve" smooth="yes"/>
      <point x="1338" y="443"/>
      <point x="1308" y="499"/>
    </contour>
    <contour>
      <point x="-50" y="1136" type="line"/>
      <point x="-50" y="1283" type="line"/>
      <point x="1609" y="1283" type="line"/>
      <point x="1609" y="1136" type="line"/>
    </contour>
    <contour>
      <point x="866" y="453" type="line"/>
      <point x="270" y="150" type="line"/>
      <point x="171" y="301" type="line"/>
      <point x="772" y="596" type="line"/>
    </contour>
    <contour>
      <point x="76" y="819" type="line"/>
      <point x="160" y="854"/>
      <point x="259" y="880"/>
      <point x="352" y="880" type="curve" smooth="yes"/>
      <point x="466" y="880"/>
      <point x="591" y="827"/>
      <point x="788" y="699" type="curve"/>
      <point x="788" y="507" type="line"/>
      <point x="583" y="647"/>
      <point x="467" y="704"/>
      <point x="376" y="704" type="curve" smooth="yes"/>
      <point x="300" y="704"/>
      <point x="204" y="678"/>
      <point x="130" y="644" type="curve"/>
    </contour>
    <contour>
      <point x="742" y="1169" type="line"/>
      <point x="953" y="1169" type="line"/>
      <point x="953" y="0" type="line"/>
      <point x="742" y="0" type="line"/>
    </contour>
    <contour>
      <point x="854" y="1261" type="move" name="mark0"/>
    </contour>
  </outline>
</glyph>
<glyph name="lvocalicdeva" format="1">
  <advance width="1574"/>
  <unicode hex="090C"/>
  <outline>
    <contour>
      <point x="1064" y="1169" type="line"/>
      <point x="1275" y="1169" type="line"/>
      <point x="1275" y="782" type="line"/>
      <point x="1064" y="782" type="line"/>
    </contour>
    <contour>
      <point x="-30" y="1136" type="line"/>
      <point x="-30" y="1283" type="line"/>
      <point x="1604" y="1283" type="line"/>
      <point x="1604" y="1136" type="line"/>
    </contour>
    <contour>
      <point x="926" y="679" type="curve"/>
      <point x="800" y="562" type="line"/>
      <point x="701" y="672"/>
      <point x="614" y="719"/>
      <point x="508" y="719" type="curve" smooth="yes"/>
      <point x="381" y="719"/>
      <point x="296" y="622"/>
      <point x="296" y="507" type="curve" smooth="yes"/>
      <point x="296" y="379"/>
      <point x="361" y="269"/>
      <point x="546" y="99" type="curve"/>
      <point x="397" y="9" type="line"/>
      <point x="204" y="186"/>
      <point x="100" y="358"/>
      <point x="100" y="553" type="curve" smooth="yes"/>
      <point x="100" y="743"/>
      <point x="238" y="900"/>
      <point x="462" y="900" type="curve" smooth="yes"/>
      <point x="642" y="900"/>
      <point x="786" y="825"/>
    </contour>
    <contour>
      <point x="1473" y="522" type="curve" smooth="yes"/>
      <point x="1473" y="403"/>
      <point x="1420" y="294"/>
      <point x="1366" y="218" type="curve"/>
      <point x="1328" y="218" type="line"/>
      <point x="1187" y="218"/>
      <point x="1135" y="155"/>
      <point x="1135" y="96" type="curve" smooth="yes"/>
      <point x="1135" y="36"/>
      <point x="1183" y="-9"/>
      <point x="1274" y="-9" type="curve" smooth="yes"/>
      <point x="1332" y="-9"/>
      <point x="1378" y="0"/>
      <point x="1450" y="30" type="curve"/>
      <point x="1475" y="-102" type="line"/>
      <point x="1399" y="-132"/>
      <point x="1341" y="-142"/>
      <point x="1265" y="-142" type="curve" smooth="yes"/>
      <point x="1087" y="-142"/>
      <point x="960" y="-38"/>
      <point x="960" y="100" type="curve" smooth="yes"/>
      <point x="960" y="233"/>
      <point x="1073" y="339"/>
      <point x="1243" y="339" type="curve" smooth="yes"/>
      <point x="1270" y="339"/>
      <point x="1300" y="336"/>
      <point x="1325" y="332" type="curve"/>
      <point x="1183" y="286" type="line"/>
      <point x="1231" y="349"/>
      <point x="1283" y="434"/>
      <point x="1283" y="536" type="curve" smooth="yes"/>
      <point x="1283" y="637"/>
      <point x="1226" y="708"/>
      <point x="1121" y="708" type="curve" smooth="yes"/>
      <point x="994" y="708"/>
      <point x="877" y="582"/>
      <point x="828" y="315" type="curve"/>
      <point x="642" y="375" type="line"/>
      <point x="695" y="674"/>
      <point x="851" y="889"/>
      <point x="1100" y="889" type="curve" smooth="yes"/>
      <point x="1338" y="889"/>
      <point x="1473" y="727"/>
    </contour>
    <contour>
      <point x="1074" y="1261" type="move" name="mark0"/>
    </contour>
  </outline>
</glyph>
<glyph name="edeva" format="1">
  <advance width="1198"/>
  <unicode hex="090F"/>
  <outline>
    <contour>
      <point x="991" y="1183" type="line"/>
      <point x="991" y="740" type="line"/>
      <point x="991" y="637"/>
      <point x="959" y="555"/>
      <point x="885" y="461" type="curve"/>
      <point x="715" y="550" type="line"/>
      <point x="762" y="634"/>
      <point x="780" y="693"/>
      <point x="780" y="814" type="curve" smooth="yes"/>
      <point x="780" y="1183" type="line"/>
    </contour>
    <contour>
      <point x="-17" y="1135" type="line"/>
      <point x="-17" y="1283" type="line"/>
      <point x="1216" y="1283" type="line"/>
      <point x="1216" y="1135" type="line"/>
    </contour>
    <contour>
      <point x="152" y="1183" type="line"/>
      <point x="362" y="1183" type="line"/>
      <point x="362" y="704" type="line"/>
      <point x="362" y="593"/>
      <point x="397" y="534"/>
      <point x="479" y="479" type="curve" smooth="yes"/>
      <point x="849" y="234" type="line"/>
      <point x="963" y="158"/>
      <point x="1006" y="93"/>
      <point x="1006" y="17" type="curve" smooth="yes"/>
      <point x="1006" y="-49"/>
      <point x="991" y="-94"/>
      <point x="951" y="-176" type="curve"/>
      <point x="736" y="-123" type="line"/>
      <point x="763" y="-76"/>
      <point x="781" y="-37"/>
      <point x="781" y="0" type="curve" smooth="yes"/>
      <point x="781" y="38"/>
      <point x="756" y="76"/>
      <point x="699" y="115" type="curve" smooth="yes"/>
      <point x="326" y="371" type="line"/>
      <point x="199" y="459"/>
      <point x="152" y="558"/>
      <point x="152" y="714" type="curve" smooth="yes"/>
    </contour>
    <contour>
      <point x="-63" y="8" type="move" name="x44"/>
    </contour>
    <contour>
      <point x="834" y="1282" type="move" name="mark0"/>
    </contour>
  </outline>
</glyph>
<glyph name="kadeva" format="1">
  <advance width="1608"/>
  <unicode hex="0915"/>
  <outline>
    <contour>
      <point x="877" y="511" type="curve"/>
      <point x="862" y="770" type="line"/>
      <point x="920" y="808"/>
      <point x="1014" y="844"/>
      <point x="1113" y="844" type="curve" smooth="yes"/>
      <point x="1343" y="844"/>
      <point x="1488" y="702"/>
      <point x="1488" y="505" type="curve" smooth="yes"/>
      <point x="1488" y="381"/>
      <point x="1438" y="263"/>
      <point x="1360" y="160" type="curve"/>
      <point x="1182" y="226" type="line"/>
      <point x="1255" y="325"/>
      <point x="1298" y="424"/>
      <point x="1298" y="516" type="curve" smooth="yes"/>
      <point x="1298" y="611"/>
      <point x="1241" y="671"/>
      <point x="1139" y="671" type="curve" smooth="yes"/>
      <point x="1048" y="671"/>
      <point x="955" y="612"/>
    </contour>
    <contour>
      <point x="-30" y="1136" type="line"/>
      <point x="-30" y="1283" type="line"/>
      <point x="1638" y="1283" type="line"/>
      <point x="1638" y="1136" type="line"/>
    </contour>
    <contour>
      <point x="726" y="576" type="curve"/>
      <point x="726" y="345" type="line"/>
      <point x="651" y="286"/>
      <point x="568" y="255"/>
      <point x="460" y="255" type="curve" smooth="yes"/>
      <point x="239" y="255"/>
      <point x="87" y="420"/>
      <point x="87" y="619" type="curve" smooth="yes"/>
      <point x="87" y="787"/>
      <point x="205" y="922"/>
      <point x="422" y="923" type="curve" smooth="yes"/>
      <point x="547" y="924"/>
      <point x="650" y="893"/>
      <point x="736" y="850" type="curve"/>
      <point x="736" y="683" type="line"/>
      <point x="641" y="737"/>
      <point x="561" y="761"/>
      <point x="467" y="761" type="curve" smooth="yes"/>
      <point x="334" y="761"/>
      <point x="266" y="689"/>
      <point x="266" y="591" type="curve" smooth="yes"/>
      <point x="266" y="489"/>
      <point x="342" y="419"/>
      <point x="449" y="419" type="curve" smooth="yes"/>
      <point x="549" y="419"/>
      <point x="645" y="469"/>
    </contour>
    <contour>
      <point x="706" y="1169" type="line"/>
      <point x="912" y="1169" type="line"/>
      <point x="912" y="0" type="line"/>
      <point x="706" y="0" type="line"/>
    </contour>
    <contour>
      <point x="706" y="0" type="move" name="btm"/>
    </contour>
    <contour>
      <point x="706" y="1283" type="move" name="top"/>
    </contour>
  </outline>
</glyph>
<glyph name="khadeva" format="1">
  <advance width="1802"/>
  <unicode hex="0916"/>
  <outline>
    <contour>
      <point x="1399" y="638" type="curve"/>
      <point x="1399" y="436" type="line"/>
      <point x="1334" y="391"/>
      <point x="1255" y="369"/>
      <point x="1157" y="369" type="curve" smooth="yes"/>
      <point x="964" y="369"/>
      <point x="808" y="510"/>
      <point x="808" y="698" type="curve" smooth="yes"/>
      <point x="808" y="853"/>
      <point x="920" y="965"/>
      <point x="1116" y="965" type="curve" smooth="yes"/>
      <point x="1237" y="965"/>
      <point x="1333" y="941"/>
      <point x="1411" y="902" type="curve"/>
      <point x="1411" y="750" type="line"/>
      <point x="1337" y="792"/>
      <point x="1248" y="817"/>
      <point x="1153" y="817" type="curve" smooth="yes"/>
      <point x="1032" y="817"/>
      <point x="975" y="748"/>
      <point x="975" y="674" type="curve" smooth="yes"/>
      <point x="975" y="585"/>
      <point x="1044" y="522"/>
      <point x="1142" y="522" type="curve" smooth="yes"/>
      <point x="1245" y="522"/>
      <point x="1331" y="561"/>
    </contour>
    <contour>
      <point x="233" y="672" type="line"/>
      <point x="401" y="729"/>
      <point x="448" y="815"/>
      <point x="448" y="971" type="curve" smooth="yes"/>
      <point x="448" y="1192" type="line"/>
      <point x="655" y="1192" type="line"/>
      <point x="655" y="956" type="line"/>
      <point x="655" y="766"/>
      <point x="603" y="600"/>
      <point x="349" y="493" type="curve"/>
    </contour>
    <contour>
      <point x="-30" y="1136" type="line"/>
      <point x="-30" y="1283" type="line"/>
      <point x="1832" y="1283" type="line"/>
      <point x="1832" y="1136" type="line"/>
    </contour>
    <contour>
      <point x="304" y="618" type="line"/>
      <point x="355" y="530"/>
      <point x="406" y="466"/>
      <point x="469" y="403" type="curve" smooth="yes"/>
      <point x="603" y="270"/>
      <point x="811" y="184"/>
      <point x="1039" y="184" type="curve" smooth="yes"/>
      <point x="1206" y="184"/>
      <point x="1338" y="219"/>
      <point x="1464" y="286" type="curve"/>
      <point x="1510" y="118" type="line"/>
      <point x="1396" y="64"/>
      <point x="1245" y="25"/>
      <point x="1047" y="25" type="curve" smooth="yes"/>
      <point x="772" y="25"/>
      <point x="504" y="123"/>
      <point x="331" y="296" type="curve" smooth="yes"/>
      <point x="229" y="399"/>
      <point x="135" y="541"/>
      <point x="85" y="640" type="curve" smooth="yes"/>
      <point x="67" y="678"/>
      <point x="55" y="711"/>
      <point x="55" y="737" type="curve" smooth="yes"/>
      <point x="55" y="788"/>
      <point x="92" y="827"/>
      <point x="141" y="827" type="curve" smooth="yes"/>
      <point x="190" y="827"/>
      <point x="221" y="805"/>
      <point x="262" y="747" type="curve" smooth="yes"/>
      <point x="323" y="649" type="line"/>
    </contour>
    <contour>
      <point x="1369" y="1169" type="line"/>
      <point x="1576" y="1169" type="line"/>
      <point x="1576" y="0" type="line"/>
      <point x="1369" y="0" type="line"/>
    </contour>
    <contour>
      <point x="1370" y="1283" type="move" name="top"/>
    </contour>
  </outline>
</glyph>
<glyph name="gadeva" format="1">
  <advance width="1320"/>
  <unicode hex="0917"/>
  <outline>
    <contour>
      <point x="505" y="1171" type="line"/>
      <point x="505" y="429" type="line" smooth="yes"/>
      <point x="505" y="366"/>
      <point x="489" y="334"/>
      <point x="430" y="334" type="curve" smooth="yes"/>
      <point x="327" y="334"/>
      <point x="123" y="504"/>
      <point x="122" y="594" type="curve" smooth="yes"/>
      <point x="121" y="640"/>
      <point x="146" y="671"/>
      <point x="211" y="671" type="curve" smooth="yes"/>
      <point x="330" y="671" type="line"/>
      <point x="295" y="636" type="line"/>
      <point x="295" y="1171" type="line"/>
    </contour>
    <contour>
      <point x="889" y="1169" type="line"/>
      <point x="1099" y="1169" type="line"/>
      <point x="1099" y="0" type="line"/>
      <point x="889" y="0" type="line"/>
    </contour>
    <contour>
      <point x="1336" y="1136" type="line"/>
      <point x="-28" y="1136" type="line"/>
      <point x="-28" y="1283" type="line"/>
      <point x="1336" y="1283" type="line"/>
    </contour>
  </outline>
</glyph>
<glyph name="ghadeva" format="1">
  <advance width="1411"/>
  <unicode hex="0918"/>
  <outline>
    <contour>
      <point x="437" y="734" type="line"/>
      <point x="228" y="789"/>
      <point x="133" y="914"/>
      <point x="133" y="1055" type="curve" smooth="yes"/>
      <point x="133" y="1120"/>
      <point x="149" y="1177"/>
      <point x="192" y="1232" type="curve"/>
      <point x="395" y="1183" type="line"/>
      <point x="356" y="1128"/>
      <point x="343" y="1092"/>
      <point x="343" y="1037" type="curve" smooth="yes"/>
      <point x="343" y="953"/>
      <point x="396" y="873"/>
      <point x="596" y="852" type="curve"/>
    </contour>
    <contour>
      <point x="-48" y="1136" type="line"/>
      <point x="-48" y="1283" type="line"/>
      <point x="1427" y="1283" type="line"/>
      <point x="1427" y="1136" type="line"/>
    </contour>
    <contour>
      <point x="1023" y="589" type="curve"/>
      <point x="1025" y="307" type="line"/>
      <point x="936" y="248"/>
      <point x="814" y="216"/>
      <point x="698" y="216" type="curve" smooth="yes"/>
      <point x="468" y="216"/>
      <point x="316" y="373"/>
      <point x="316" y="561" type="curve" smooth="yes"/>
      <point x="316" y="718"/>
      <point x="433" y="886"/>
      <point x="728" y="886" type="curve" smooth="yes"/>
      <point x="738" y="886" type="line"/>
      <point x="791" y="720" type="line"/>
      <point x="778" y="720" type="line"/>
      <point x="576" y="713"/>
      <point x="506" y="629"/>
      <point x="506" y="535" type="curve" smooth="yes"/>
      <point x="506" y="447"/>
      <point x="580" y="386"/>
      <point x="678" y="387" type="curve" smooth="yes"/>
      <point x="808" y="389"/>
      <point x="942" y="469"/>
    </contour>
    <contour>
      <point x="978" y="1169" type="line"/>
      <point x="1189" y="1169" type="line"/>
      <point x="1189" y="0" type="line"/>
      <point x="978" y="0" type="line"/>
    </contour>
  </outline>
</glyph>
<glyph name="ngadeva" format="1">
  <advance width="1356"/>
  <unicode hex="0919"/>
  <outline>
    <contour>
      <point x="1112" y="1136" type="line"/>
      <point x="1112" y="1283" type="line"/>
      <point x="1416" y="1283" type="line"/>
      <point x="1416" y="1136" type="line"/>
    </contour>
    <contour>
      <point x="1142" y="806" type="curve" smooth="yes"/>
      <point x="1230" y="806"/>
      <point x="1264" y="753"/>
      <point x="1264" y="691" type="curve" smooth="yes"/>
      <point x="1264" y="631"/>
      <point x="1226" y="577"/>
      <point x="1142" y="577" type="curve" smooth="yes"/>
      <point x="1054" y="577"/>
      <point x="1020" y="631"/>
      <point x="1020" y="691" type="curve" smooth="yes"/>
      <point x="1020" y="752"/>
      <point x="1056" y="806"/>
    </contour>
    <component base="ddadeva"/>
    <contour>
      <point x="43" y="8" type="move" name="x56"/>
    </contour>
    <contour>
      <point x="1732" y="8" type="move" name="x57"/>
    </contour>
    <contour>
      <point x="848" y="8" type="move" name="mark0"/>
    </contour>
  </outline>
</glyph>
<glyph name="cadeva" format="1">
  <advance width="1420"/>
  <unicode hex="091A"/>
  <outline>
    <contour>
      <point x="72" y="727" type="line"/>
      <point x="72" y="896" type="line"/>
      <point x="790" y="896" type="line"/>
      <point x="790" y="727" type="line"/>
    </contour>
    <contour>
      <point x="1025" y="534" type="curve"/>
      <point x="1025" y="282" type="line"/>
      <point x="955" y="222"/>
      <point x="841" y="183"/>
      <point x="718" y="183" type="curve" smooth="yes"/>
      <point x="468" y="183"/>
      <point x="304" y="339"/>
      <point x="304" y="538" type="curve" smooth="yes"/>
      <point x="304" y="720"/>
      <point x="440" y="872"/>
      <point x="696" y="872" type="curve"/>
      <point x="741" y="729" type="line"/>
      <point x="573" y="729"/>
      <point x="494" y="635"/>
      <point x="494" y="525" type="curve" smooth="yes"/>
      <point x="494" y="428"/>
      <point x="576" y="354"/>
      <point x="699" y="354" type="curve" smooth="yes"/>
      <point x="832" y="354"/>
      <point x="957" y="423"/>
    </contour>
    <contour>
      <point x="-30" y="1136" type="line"/>
      <point x="-30" y="1283" type="line"/>
      <point x="1450" y="1283" type="line"/>
      <point x="1450" y="1136" type="line"/>
    </contour>
    <contour>
      <point x="988" y="1169" type="line"/>
      <point x="1195" y="1169" type="line"/>
      <point x="1195" y="0" type="line"/>
      <point x="988" y="0" type="line"/>
    </contour>
    <contour>
      <point x="988" y="1283" type="move" name="top"/>
    </contour>
  </outline>
</glyph>
<glyph name="chadeva" format="1">
  <advance width="1505"/>
  <unicode hex="091B"/>
  <outline>
    <contour>
      <point x="651" y="784" type="curve"/>
      <point x="705" y="620" type="line"/>
      <point x="703" y="620"/>
      <point x="701" y="620"/>
      <point x="699" y="620" type="curve" smooth="yes"/>
      <point x="484" y="611"/>
      <point x="415" y="512"/>
      <point x="415" y="416" type="curve" smooth="yes"/>
      <point x="415" y="306"/>
      <point x="512" y="217"/>
      <point x="688" y="217" type="curve" smooth="yes"/>
      <point x="967" y="217"/>
      <point x="1236" y="461"/>
      <point x="1236" y="669" type="curve" smooth="yes"/>
      <point x="1236" y="784"/>
      <point x="1176" y="844"/>
      <point x="1100" y="844" type="curve" smooth="yes"/>
      <point x="1034" y="844"/>
      <point x="985" y="782"/>
      <point x="985" y="702" type="curve" smooth="yes"/>
      <point x="985" y="606"/>
      <point x="1051" y="513"/>
      <point x="1239" y="382" type="curve"/>
      <point x="1143" y="283" type="line"/>
      <point x="914" y="433"/>
      <point x="810" y="564"/>
      <point x="810" y="741" type="curve" smooth="yes"/>
      <point x="810" y="863"/>
      <point x="900" y="998"/>
      <point x="1074" y="998" type="curve" smooth="yes"/>
      <point x="1272" y="998"/>
      <point x="1409" y="865"/>
      <point x="1409" y="650" type="curve" smooth="yes"/>
      <point x="1409" y="374"/>
      <point x="1101" y="53"/>
      <point x="700" y="53" type="curve" smooth="yes"/>
      <point x="372" y="53"/>
      <point x="210" y="240"/>
      <point x="210" y="446" type="curve" smooth="yes"/>
      <point x="210" y="622"/>
      <point x="350" y="779"/>
      <point x="646" y="784" type="curve" smooth="yes"/>
      <point x="648" y="784"/>
      <point x="649" y="784"/>
    </contour>
    <contour>
      <point x="543" y="746" type="curve"/>
      <point x="395" y="633" type="line"/>
      <point x="191" y="693"/>
      <point x="106" y="814"/>
      <point x="106" y="969" type="curve" smooth="yes"/>
      <point x="106" y="1088"/>
      <point x="203" y="1233"/>
      <point x="456" y="1263" type="curve"/>
      <point x="547" y="1156" type="line"/>
      <point x="379" y="1134"/>
      <point x="310" y="1034"/>
      <point x="310" y="947" type="curve" smooth="yes"/>
      <point x="310" y="862"/>
      <point x="360" y="778"/>
    </contour>
    <contour>
      <point x="1527" y="1136" type="line"/>
      <point x="-40" y="1136" type="line"/>
      <point x="-40" y="1283" type="line"/>
      <point x="1527" y="1283" type="line"/>
    </contour>
    <contour>
      <point x="986" y="1189" type="line"/>
      <point x="1197" y="1189" type="line"/>
      <point x="1197" y="921" type="line"/>
      <point x="986" y="921" type="line"/>
    </contour>
    <contour>
      <point x="863" y="8" type="move" name="mark0"/>
    </contour>
    <contour>
      <point x="-39" y="8" type="move" name="x65"/>
    </contour>
    <contour>
      <point x="1638" y="8" type="move" name="x66"/>
    </contour>
  </outline>
</glyph>
<glyph name="jadeva" format="1">
  <advance width="1639"/>
  <unicode hex="091C"/>
  <outline>
    <contour>
      <point x="-30" y="1136" type="line"/>
      <point x="-30" y="1283" type="line"/>
      <point x="1669" y="1283" type="line"/>
      <point x="1669" y="1136" type="line"/>
    </contour>
    <contour>
      <point x="700" y="723" type="line"/>
      <point x="712" y="795" type="line"/>
      <point x="868" y="713"/>
      <point x="954" y="572"/>
      <point x="954" y="420" type="curve" smooth="yes"/>
      <point x="954" y="247"/>
      <point x="828" y="101"/>
      <point x="612" y="101" type="curve" smooth="yes"/>
      <point x="402" y="101"/>
      <point x="214" y="232"/>
      <point x="49" y="510" type="curve"/>
      <point x="154" y="651" type="line"/>
      <point x="321" y="379"/>
      <point x="461" y="286"/>
      <point x="589" y="286" type="curve" smooth="yes"/>
      <point x="699" y="286"/>
      <point x="766" y="347"/>
      <point x="766" y="448" type="curve" smooth="yes"/>
      <point x="766" y="569"/>
      <point x="656" y="697"/>
      <point x="470" y="745" type="curve"/>
      <point x="470" y="896" type="line"/>
      <point x="1240" y="896" type="line"/>
      <point x="1240" y="723" type="line"/>
    </contour>
    <contour>
      <point x="1206" y="1169" type="line"/>
      <point x="1413" y="1169" type="line"/>
      <point x="1413" y="0" type="line"/>
      <point x="1206" y="0" type="line"/>
    </contour>
    <contour>
      <point x="1206" y="1283" type="move" name="top"/>
    </contour>
  </outline>
</glyph>
<glyph name="jhadeva" format="1">
  <advance width="1615"/>
  <unicode hex="091D"/>
  <outline>
    <contour>
      <point x="1230" y="371" type="line"/>
      <point x="1195" y="354"/>
      <point x="1114" y="339"/>
      <point x="1056" y="340" type="curve" smooth="yes"/>
      <point x="973" y="341"/>
      <point x="885" y="354"/>
      <point x="847" y="362" type="curve"/>
      <point x="847" y="394"/>
      <point x="839" y="465"/>
      <point x="839" y="520" type="curve"/>
      <point x="873" y="506"/>
      <point x="949" y="498"/>
      <point x="994" y="498" type="curve" smooth="yes"/>
      <point x="1067" y="498"/>
      <point x="1154" y="521"/>
      <point x="1230" y="577" type="curve"/>
    </contour>
    <contour>
      <point x="1184" y="1169" type="line"/>
      <point x="1394" y="1169" type="line"/>
      <point x="1394" y="0" type="line"/>
      <point x="1184" y="0" type="line"/>
    </contour>
    <contour>
      <point x="1631" y="1136" type="line"/>
      <point x="979" y="1136" type="line"/>
      <point x="979" y="1283" type="line"/>
      <point x="1631" y="1283" type="line"/>
    </contour>
    <component base="ideva"/>
  </outline>
</glyph>
<glyph name="nyadeva" format="1">
  <advance width="1725"/>
  <unicode hex="091E"/>
  <outline>
    <contour>
      <point x="869" y="668" type="line"/>
      <point x="941" y="652"/>
      <point x="1013" y="644"/>
      <point x="1085" y="644" type="curve" smooth="yes"/>
      <point x="1184" y="644"/>
      <point x="1289" y="666"/>
      <point x="1357" y="704" type="curve"/>
      <point x="1357" y="507" type="line"/>
      <point x="1304" y="487"/>
      <point x="1213" y="470"/>
      <point x="1118" y="470" type="curve" smooth="yes"/>
      <point x="1035" y="470"/>
      <point x="922" y="483"/>
      <point x="869" y="496" type="curve"/>
    </contour>
    <contour>
      <point x="956" y="541" type="curve" smooth="yes"/>
      <point x="956" y="327"/>
      <point x="801" y="182"/>
      <point x="600" y="182" type="curve" smooth="yes"/>
      <point x="411" y="182"/>
      <point x="251" y="258"/>
      <point x="53" y="445" type="curve"/>
      <point x="128" y="597" type="line"/>
      <point x="306" y="419"/>
      <point x="435" y="357"/>
      <point x="559" y="357" type="curve" smooth="yes"/>
      <point x="698" y="357"/>
      <point x="773" y="447"/>
      <point x="772" y="558" type="curve" smooth="yes"/>
      <point x="772" y="661"/>
      <point x="683" y="746"/>
      <point x="568" y="747" type="curve" smooth="yes"/>
      <point x="483" y="748"/>
      <point x="399" y="709"/>
      <point x="337" y="659" type="curve"/>
      <point x="258" y="810" type="line"/>
      <point x="330" y="865"/>
      <point x="432" y="915"/>
      <point x="560" y="916" type="curve" smooth="yes"/>
      <point x="785" y="916"/>
      <point x="956" y="764"/>
    </contour>
    <contour>
      <point x="-30" y="1136" type="line"/>
      <point x="-30" y="1283" type="line"/>
      <point x="1755" y="1283" type="line"/>
      <point x="1755" y="1136" type="line"/>
    </contour>
    <contour>
      <point x="1294" y="1169" type="line"/>
      <point x="1500" y="1169" type="line"/>
      <point x="1500" y="0" type="line"/>
      <point x="1294" y="0" type="line"/>
    </contour>
    <contour>
      <point x="1294" y="1283" type="move" name="top"/>
    </contour>
  </outline>
</glyph>
<glyph name="ttadeva" format="1">
  <advance width="1129"/>
  <unicode hex="091F"/>
  <outline>
    <contour>
      <point x="687" y="1174" type="line"/>
      <point x="889" y="1174" type="line"/>
      <point x="889" y="734" type="line"/>
      <point x="626" y="734" type="line"/>
      <point x="406" y="734"/>
      <point x="316" y="633"/>
      <point x="316" y="495" type="curve" smooth="yes"/>
      <point x="316" y="360"/>
      <point x="453" y="260"/>
      <point x="612" y="260" type="curve" smooth="yes"/>
      <point x="731" y="260"/>
      <point x="814" y="277"/>
      <point x="950" y="327" type="curve"/>
      <point x="997" y="156" type="line"/>
      <point x="850" y="108"/>
      <point x="774" y="96"/>
      <point x="642" y="96" type="curve" smooth="yes"/>
      <point x="318" y="96"/>
      <point x="109" y="288"/>
      <point x="109" y="525" type="curve" smooth="yes"/>
      <point x="109" y="725"/>
      <point x="253" y="887"/>
      <point x="551" y="887" type="curve" smooth="yes"/>
      <point x="726" y="887" type="line"/>
      <point x="687" y="852" type="line"/>
    </contour>
    <contour>
      <point x="1165" y="1136" type="line"/>
      <point x="-31" y="1136" type="line"/>
      <point x="-31" y="1283" type="line"/>
      <point x="1165" y="1283" type="line"/>
    </contour>
    <contour>
      <point x="593" y="8" type="move" name="mark0"/>
    </contour>
    <contour>
      <point x="1168" y="8" type="move" name="x29"/>
    </contour>
    <contour>
      <point x="-24" y="8" type="move" name="x28"/>
    </contour>
  </outline>
</glyph>
<glyph name="tthadeva" format="1">
  <advance width="1277"/>
  <unicode hex="0920"/>
  <outline>
    <contour>
      <point x="992" y="495" type="curve" smooth="yes"/>
      <point x="992" y="586"/>
      <point x="958" y="661"/>
      <point x="877" y="735" type="curve"/>
      <point x="643" y="735" type="line"/>
      <point x="402" y="735"/>
      <point x="304" y="637"/>
      <point x="304" y="487" type="curve" smooth="yes"/>
      <point x="304" y="338"/>
      <point x="442" y="220"/>
      <point x="640" y="220" type="curve" smooth="yes"/>
      <point x="855" y="220"/>
      <point x="992" y="330"/>
    </contour>
    <contour>
      <point x="1307" y="1136" type="line"/>
      <point x="-30" y="1136" type="line"/>
      <point x="-30" y="1283" type="line"/>
      <point x="1307" y="1283" type="line"/>
    </contour>
    <contour>
      <point x="836" y="1167" type="line"/>
      <point x="1043" y="1167" type="line"/>
      <point x="1043" y="769" type="line"/>
      <point x="994" y="862" type="line"/>
      <point x="1106" y="758"/>
      <point x="1178" y="625"/>
      <point x="1178" y="467" type="curve" smooth="yes"/>
      <point x="1178" y="232"/>
      <point x="996" y="49"/>
      <point x="665" y="49" type="curve" smooth="yes"/>
      <point x="323" y="49"/>
      <point x="106" y="264"/>
      <point x="106" y="515" type="curve" smooth="yes"/>
      <point x="106" y="749"/>
      <point x="280" y="896"/>
      <point x="565" y="896" type="curve" smooth="yes"/>
      <point x="885" y="896" type="line"/>
      <point x="836" y="853" type="line"/>
    </contour>
    <contour>
      <point x="547" y="65" type="move" name="btm"/>
    </contour>
    <contour>
      <point x="786" y="1283" type="move" name="top"/>
    </contour>
  </outline>
</glyph>
<glyph name="ddadeva" format="1">
  <advance width="1187"/>
  <unicode hex="0921"/>
  <outline>
    <contour>
      <point x="740" y="1167" type="line"/>
      <point x="947" y="1167" type="line"/>
      <point x="947" y="801" type="line"/>
      <point x="475" y="801" type="line"/>
      <point x="382" y="801"/>
      <point x="339" y="753"/>
      <point x="339" y="692" type="curve" smooth="yes"/>
      <point x="339" y="631"/>
      <point x="384" y="579"/>
      <point x="474" y="548" type="curve"/>
      <point x="379" y="555" type="line"/>
      <point x="464" y="599"/>
      <point x="566" y="628"/>
      <point x="688" y="628" type="curve" smooth="yes"/>
      <point x="929" y="628"/>
      <point x="1060" y="501"/>
      <point x="1060" y="336" type="curve" smooth="yes"/>
      <point x="1060" y="160"/>
      <point x="935" y="14"/>
      <point x="640" y="14" type="curve" smooth="yes"/>
      <point x="467" y="14"/>
      <point x="293" y="59"/>
      <point x="115" y="150" type="curve"/>
      <point x="161" y="312" type="line"/>
      <point x="322" y="219"/>
      <point x="474" y="176"/>
      <point x="614" y="176" type="curve" smooth="yes"/>
      <point x="786" y="176"/>
      <point x="868" y="248"/>
      <point x="868" y="339" type="curve" smooth="yes"/>
      <point x="868" y="413"/>
      <point x="803" y="465"/>
      <point x="688" y="465" type="curve" smooth="yes"/>
      <point x="597" y="465"/>
      <point x="500" y="433"/>
      <point x="434" y="393" type="curve"/>
      <point x="419" y="393" type="line"/>
      <point x="231" y="481"/>
      <point x="148" y="592"/>
      <point x="148" y="721" type="curve" smooth="yes"/>
      <point x="148" y="841"/>
      <point x="238" y="950"/>
      <point x="441" y="950" type="curve" smooth="yes"/>
      <point x="793" y="950" type="line"/>
      <point x="740" y="897" type="line"/>
    </contour>
    <contour>
      <point x="1217" y="1136" type="line"/>
      <point x="-30" y="1136" type="line"/>
      <point x="-30" y="1283" type="line"/>
      <point x="1217" y="1283" type="line"/>
    </contour>
    <contour>
      <point x="523" y="40" type="move" name="btm"/>
    </contour>
    <contour>
      <point x="739" y="1283" type="move" name="top"/>
    </contour>
  </outline>
</glyph>
<glyph name="ddhadeva" format="1">
  <advance width="1147"/>
  <unicode hex="0922"/>
  <outline>
    <contour>
      <point x="1170" y="1136" type="line"/>
      <point x="-57" y="1136" type="line"/>
      <point x="-57" y="1283" type="line"/>
      <point x="1170" y="1283" type="line"/>
    </contour>
    <contour>
      <point x="684" y="1166" type="line"/>
      <point x="886" y="1166" type="line"/>
      <point x="886" y="740" type="line"/>
      <point x="605" y="740" type="line"/>
      <point x="359" y="740"/>
      <point x="264" y="621"/>
      <point x="264" y="472" type="curve" smooth="yes"/>
      <point x="264" y="325"/>
      <point x="422" y="188"/>
      <point x="651" y="188" type="curve" smooth="yes"/>
      <point x="825" y="188"/>
      <point x="901" y="254"/>
      <point x="901" y="330" type="curve" smooth="yes"/>
      <point x="901" y="387"/>
      <point x="856" y="429"/>
      <point x="785" y="429" type="curve" smooth="yes"/>
      <point x="699" y="429"/>
      <point x="635" y="369"/>
      <point x="635" y="284" type="curve" smooth="yes"/>
      <point x="635" y="235"/>
      <point x="649" y="192"/>
      <point x="677" y="144" type="curve"/>
      <point x="521" y="126" type="line"/>
      <point x="480" y="191"/>
      <point x="467" y="242"/>
      <point x="467" y="316" type="curve" smooth="yes"/>
      <point x="467" y="441"/>
      <point x="576" y="563"/>
      <point x="768" y="563" type="curve" smooth="yes"/>
      <point x="958" y="563"/>
      <point x="1072" y="463"/>
      <point x="1072" y="319" type="curve" smooth="yes"/>
      <point x="1072" y="187"/>
      <point x="943" y="61"/>
      <point x="669" y="61" type="curve" smooth="yes"/>
      <point x="288" y="61"/>
      <point x="70" y="288"/>
      <point x="70" y="513" type="curve" smooth="yes"/>
      <point x="70" y="720"/>
      <point x="213" y="887"/>
      <point x="527" y="887" type="curve" smooth="yes"/>
      <point x="725" y="887" type="line"/>
      <point x="684" y="853" type="line"/>
    </contour>
    <contour>
      <point x="540" y="8" type="move" name="mark0"/>
    </contour>
    <contour>
      <point x="1188" y="8" type="move" name="x44"/>
    </contour>
    <contour>
      <point x="-140" y="8" type="move" name="x43"/>
    </contour>
  </outline>
</glyph>
<glyph name="nnadeva" format="1">
  <advance width="1619"/>
  <unicode hex="0923"/>
  <outline>
    <contour>
      <point x="685" y="1167" type="line"/>
      <point x="892" y="1167" type="line"/>
      <point x="892" y="742" type="line"/>
      <point x="892" y="511"/>
      <point x="776" y="337"/>
      <point x="524" y="337" type="curve" smooth="yes"/>
      <point x="273" y="337"/>
      <point x="137" y="510"/>
      <point x="137" y="739" type="curve" smooth="yes"/>
      <point x="137" y="1167" type="line"/>
      <point x="343" y="1167" type="line"/>
      <point x="343" y="689" type="line"/>
      <point x="343" y="564"/>
      <point x="411" y="499"/>
      <point x="511" y="499" type="curve" smooth="yes"/>
      <point x="620" y="499"/>
      <point x="685" y="569"/>
      <point x="685" y="720" type="curve" smooth="yes"/>
    </contour>
    <contour>
      <point x="-30" y="1136" type="line"/>
      <point x="-30" y="1283" type="line"/>
      <point x="1649" y="1283" type="line"/>
      <point x="1649" y="1136" type="line"/>
    </contour>
    <contour>
      <point x="1187" y="1169" type="line"/>
      <point x="1394" y="1169" type="line"/>
      <point x="1394" y="0" type="line"/>
      <point x="1187" y="0" type="line"/>
    </contour>
    <contour>
      <point x="939" y="1283" type="move" name="top"/>
    </contour>
  </outline>
</glyph>
<glyph name="tadeva" format="1">
  <advance width="1225"/>
  <unicode hex="0924"/>
  <outline>
    <contour>
      <point x="849" y="897" type="line"/>
      <point x="849" y="718" type="line"/>
      <point x="566" y="718" type="line"/>
      <point x="408" y="718"/>
      <point x="317" y="623"/>
      <point x="317" y="489" type="curve" smooth="yes"/>
      <point x="317" y="371"/>
      <point x="367" y="238"/>
      <point x="509" y="23" type="curve"/>
      <point x="340" y="-26" type="line"/>
      <point x="196" y="185"/>
      <point x="121" y="373"/>
      <point x="121" y="542" type="curve" smooth="yes"/>
      <point x="121" y="745"/>
      <point x="253" y="897"/>
      <point x="519" y="897" type="curve" smooth="yes"/>
    </contour>
    <contour>
      <point x="-25" y="1136" type="line"/>
      <point x="-25" y="1283" type="line"/>
      <point x="1241" y="1283" type="line"/>
      <point x="1241" y="1136" type="line"/>
    </contour>
    <contour>
      <point x="793" y="1169" type="line"/>
      <point x="1004" y="1169" type="line"/>
      <point x="1004" y="0" type="line"/>
      <point x="793" y="0" type="line"/>
    </contour>
  </outline>
</glyph>
<glyph name="thadeva" format="1">
  <advance width="1375"/>
  <unicode hex="0925"/>
  <outline>
    <contour>
      <point x="704" y="967" type="curve" smooth="yes"/>
      <point x="704" y="764"/>
      <point x="546" y="631"/>
      <point x="325" y="566" type="curve"/>
      <point x="332" y="655" type="line"/>
      <point x="409" y="531"/>
      <point x="531" y="463"/>
      <point x="650" y="463" type="curve" smooth="yes"/>
      <point x="787" y="463"/>
      <point x="916" y="528"/>
      <point x="998" y="675" type="curve"/>
      <point x="998" y="397" type="line"/>
      <point x="917" y="324"/>
      <point x="827" y="290"/>
      <point x="697" y="290" type="curve" smooth="yes"/>
      <point x="484" y="290"/>
      <point x="258" y="425"/>
      <point x="132" y="664" type="curve"/>
      <point x="132" y="672" type="line"/>
      <point x="386" y="738"/>
      <point x="527" y="836"/>
      <point x="527" y="987" type="curve" smooth="yes"/>
      <point x="527" y="1092"/>
      <point x="456" y="1165"/>
      <point x="366" y="1165" type="curve" smooth="yes"/>
      <point x="291" y="1165"/>
      <point x="254" y="1116"/>
      <point x="254" y="1050" type="curve" smooth="yes"/>
      <point x="254" y="972"/>
      <point x="333" y="897"/>
      <point x="518" y="872" type="curve"/>
      <point x="448" y="759" type="line"/>
      <point x="191" y="795"/>
      <point x="71" y="932"/>
      <point x="71" y="1081" type="curve" smooth="yes"/>
      <point x="71" y="1206"/>
      <point x="163" y="1320"/>
      <point x="340" y="1320" type="curve" smooth="yes"/>
      <point x="557" y="1320"/>
      <point x="704" y="1167"/>
    </contour>
    <contour>
      <point x="944" y="1169" type="line"/>
      <point x="1150" y="1169" type="line"/>
      <point x="1150" y="0" type="line"/>
      <point x="944" y="0" type="line"/>
    </contour>
    <contour>
      <point x="1405" y="1136" type="line"/>
      <point x="843" y="1136" type="line"/>
      <point x="843" y="1283" type="line"/>
      <point x="1405" y="1283" type="line"/>
    </contour>
    <contour>
      <point x="944" y="1283" type="move" name="top"/>
    </contour>
  </outline>
</glyph>
<glyph name="dadeva" format="1">
  <advance width="1139"/>
  <unicode hex="0926"/>
  <outline>
    <contour>
      <point x="-30" y="1136" type="line"/>
      <point x="-30" y="1283" type="line"/>
      <point x="1169" y="1283" type="line"/>
      <point x="1169" y="1136" type="line"/>
    </contour>
    <contour>
      <point x="697" y="193" type="line"/>
      <point x="858" y="250" type="line"/>
      <point x="1056" y="-143" type="line"/>
      <point x="898" y="-209" type="line"/>
    </contour>
    <contour>
      <point x="647" y="106" type="curve" smooth="yes"/>
      <point x="321" y="106"/>
      <point x="103" y="281"/>
      <point x="103" y="538" type="curve" smooth="yes"/>
      <point x="103" y="731"/>
      <point x="239" y="899"/>
      <point x="544" y="899" type="curve" smooth="yes"/>
      <point x="757" y="899" type="line"/>
      <point x="704" y="848" type="line"/>
      <point x="704" y="1177" type="line"/>
      <point x="911" y="1177" type="line"/>
      <point x="911" y="743" type="line"/>
      <point x="611" y="743" type="line"/>
      <point x="384" y="743"/>
      <point x="297" y="636"/>
      <point x="297" y="507" type="curve" smooth="yes"/>
      <point x="297" y="369"/>
      <point x="428" y="265"/>
      <point x="606" y="265" type="curve" smooth="yes"/>
      <point x="682" y="265"/>
      <point x="726" y="274"/>
      <point x="814" y="305" type="curve"/>
      <point x="674" y="228" type="line"/>
      <point x="644" y="278"/>
      <point x="627" y="317"/>
      <point x="629" y="361" type="curve" smooth="yes"/>
      <point x="631" y="410"/>
      <point x="671" y="454"/>
      <point x="765" y="454" type="curve" smooth="yes"/>
      <point x="903" y="454"/>
      <point x="1027" y="389"/>
      <point x="1027" y="312" type="curve" smooth="yes"/>
      <point x="1027" y="228"/>
      <point x="909" y="106"/>
    </contour>
    <contour>
      <point x="871" y="-154" type="move" name="btm"/>
    </contour>
    <contour>
      <point x="679" y="1283" type="move" name="top"/>
    </contour>
  </outline>
</glyph>
<glyph name="dhadeva" format="1">
  <advance width="1403"/>
  <unicode hex="0927"/>
  <outline>
    <contour>
      <point x="764" y="687" type="line"/>
      <point x="746" y="687" type="line"/>
      <point x="556" y="687"/>
      <point x="477" y="602"/>
      <point x="477" y="509" type="curve" smooth="yes"/>
      <point x="477" y="419"/>
      <point x="552" y="353"/>
      <point x="664" y="353" type="curve" smooth="yes"/>
      <point x="809" y="353"/>
      <point x="939" y="428"/>
      <point x="1018" y="550" type="curve"/>
      <point x="1018" y="291" type="line"/>
      <point x="937" y="220"/>
      <point x="829" y="174"/>
      <point x="687" y="174" type="curve" smooth="yes"/>
      <point x="439" y="174"/>
      <point x="286" y="337"/>
      <point x="286" y="531" type="curve" smooth="yes"/>
      <point x="286" y="696"/>
      <point x="413" y="853"/>
      <point x="696" y="853" type="curve" smooth="yes"/>
      <point x="733" y="853" type="line"/>
    </contour>
    <contour>
      <point x="972" y="1168" type="line"/>
      <point x="1179" y="1168" type="line"/>
      <point x="1179" y="0" type="line"/>
      <point x="972" y="0" type="line"/>
    </contour>
    <contour>
      <point x="1433" y="1136" type="line"/>
      <point x="829" y="1136" type="line"/>
      <point x="829" y="1283" type="line"/>
      <point x="1433" y="1283" type="line"/>
    </contour>
    <contour>
      <point x="382" y="692" type="line"/>
      <point x="263" y="717"/>
      <point x="166" y="764"/>
      <point x="100" y="830" type="curve" smooth="yes"/>
      <point x="34" y="896"/>
      <point x="-3" y="981"/>
      <point x="-3" y="1077" type="curve" smooth="yes"/>
      <point x="-3" y="1234"/>
      <point x="109" y="1361"/>
      <point x="299" y="1361" type="curve" smooth="yes"/>
      <point x="490" y="1361"/>
      <point x="594" y="1244"/>
      <point x="594" y="1103" type="curve" smooth="yes"/>
      <point x="594" y="955"/>
      <point x="451" y="833"/>
      <point x="249" y="833" type="curve"/>
      <point x="173" y="954" type="line"/>
      <point x="347" y="954"/>
      <point x="428" y="1026"/>
      <point x="428" y="1113" type="curve" smooth="yes"/>
      <point x="428" y="1170"/>
      <point x="390" y="1211"/>
      <point x="320" y="1211" type="curve" smooth="yes"/>
      <point x="234" y="1211"/>
      <point x="172" y="1140"/>
      <point x="172" y="1059" type="curve" smooth="yes"/>
      <point x="172" y="1011"/>
      <point x="190" y="967"/>
      <point x="227" y="930" type="curve" smooth="yes"/>
      <point x="287" y="870"/>
      <point x="397" y="828"/>
      <point x="569" y="815" type="curve"/>
    </contour>
    <contour>
      <point x="972" y="1283" type="move" name="top"/>
    </contour>
  </outline>
</glyph>
<glyph name="nadeva" format="1">
  <advance width="1250"/>
  <unicode hex="0928"/>
  <outline>
    <contour>
      <point x="842" y="807" type="line"/>
      <point x="842" y="635" type="line"/>
      <point x="332" y="635" type="line"/>
      <point x="391" y="686" type="line"/>
      <point x="391" y="429" type="line"/>
      <point x="391" y="371"/>
      <point x="359" y="339"/>
      <point x="317" y="339" type="curve" smooth="yes"/>
      <point x="289" y="339"/>
      <point x="261" y="353"/>
      <point x="230" y="384" type="curve" smooth="yes"/>
      <point x="178" y="436"/>
      <point x="107" y="588"/>
      <point x="107" y="699" type="curve" smooth="yes"/>
      <point x="107" y="767"/>
      <point x="144" y="807"/>
      <point x="226" y="807" type="curve" smooth="yes"/>
    </contour>
    <contour>
      <point x="-30" y="1136" type="line"/>
      <point x="-30" y="1283" type="line"/>
      <point x="1280" y="1283" type="line"/>
      <point x="1280" y="1136" type="line"/>
    </contour>
    <contour>
      <point x="818" y="1169" type="line"/>
      <point x="1025" y="1169" type="line"/>
      <point x="1025" y="0" type="line"/>
      <point x="818" y="0" type="line"/>
    </contour>
    <contour>
      <point x="818" y="1283" type="move" name="top"/>
    </contour>
  </outline>
</glyph>
<glyph name="padeva" format="1">
  <advance width="1197"/>
  <unicode hex="092A"/>
  <outline>
    <contour>
      <point x="1227" y="1136" type="line"/>
      <point x="-30" y="1136" type="line"/>
      <point x="-30" y="1283" type="line"/>
      <point x="1227" y="1283" type="line"/>
    </contour>
    <contour>
      <point x="349" y="1176" type="line"/>
      <point x="349" y="723" type="line"/>
      <point x="349" y="589"/>
      <point x="418" y="529"/>
      <point x="533" y="529" type="curve" smooth="yes"/>
      <point x="628" y="529"/>
      <point x="715" y="560"/>
      <point x="794" y="633" type="curve"/>
      <point x="794" y="405" type="line"/>
      <point x="729" y="376"/>
      <point x="645" y="356"/>
      <point x="561" y="356" type="curve" smooth="yes"/>
      <point x="310" y="356"/>
      <point x="142" y="496"/>
      <point x="142" y="764" type="curve" smooth="yes"/>
      <point x="142" y="1176" type="line"/>
    </contour>
    <contour>
      <point x="765" y="1169" type="line"/>
      <point x="972" y="1169" type="line"/>
      <point x="972" y="0" type="line"/>
      <point x="765" y="0" type="line"/>
    </contour>
    <contour>
      <point x="765" y="1283" type="move" name="top"/>
    </contour>
  </outline>
</glyph>
<glyph name="phadeva" format="1">
  <advance width="1672"/>
  <unicode hex="092B"/>
  <outline>
    <contour>
      <point x="353" y="1208" type="line"/>
      <point x="353" y="754" type="line"/>
      <point x="353" y="622"/>
      <point x="421" y="559"/>
      <point x="538" y="559" type="curve" smooth="yes"/>
      <point x="625" y="559"/>
      <point x="710" y="589"/>
      <point x="789" y="651" type="curve"/>
      <point x="789" y="430" type="line"/>
      <point x="722" y="403"/>
      <point x="648" y="387"/>
      <point x="568" y="387" type="curve" smooth="yes"/>
      <point x="311" y="387"/>
      <point x="147" y="528"/>
      <point x="147" y="800" type="curve" smooth="yes"/>
      <point x="147" y="1208" type="line"/>
    </contour>
    <contour>
      <point x="-30" y="1136" type="line"/>
      <point x="-30" y="1283" type="line"/>
      <point x="1702" y="1283" type="line"/>
      <point x="1702" y="1136" type="line"/>
    </contour>
    <contour>
      <point x="758" y="1169" type="line"/>
      <point x="965" y="1169" type="line"/>
      <point x="965" y="0" type="line"/>
      <point x="758" y="0" type="line"/>
    </contour>
    <contour>
      <point x="943" y="483" type="curve"/>
      <point x="930" y="729" type="line"/>
      <point x="990" y="766"/>
      <point x="1074" y="797"/>
      <point x="1184" y="797" type="curve" smooth="yes"/>
      <point x="1414" y="797"/>
      <point x="1561" y="641"/>
      <point x="1561" y="448" type="curve" smooth="yes"/>
      <point x="1561" y="327"/>
      <point x="1515" y="193"/>
      <point x="1440" y="92" type="curve"/>
      <point x="1259" y="155" type="line"/>
      <point x="1331" y="256"/>
      <point x="1371" y="356"/>
      <point x="1371" y="455" type="curve" smooth="yes"/>
      <point x="1371" y="551"/>
      <point x="1308" y="621"/>
      <point x="1203" y="621" type="curve" smooth="yes"/>
      <point x="1107" y="621"/>
      <point x="1018" y="573"/>
    </contour>
    <contour>
      <point x="756" y="0" type="move" name="btm"/>
    </contour>
    <contour>
      <point x="758" y="1283" type="move" name="top"/>
    </contour>
  </outline>
</glyph>
<glyph name="badeva" format="1">
  <advance width="1212"/>
  <unicode hex="092C"/>
  <outline>
    <contour>
      <point x="782" y="429" type="line"/>
      <point x="674" y="344" type="line"/>
      <point x="313" y="763" type="line"/>
      <point x="417" y="848" type="line"/>
    </contour>
    <contour>
      <point x="1242" y="1136" type="line"/>
      <point x="-30" y="1136" type="line"/>
      <point x="-30" y="1283" type="line"/>
      <point x="1242" y="1283" type="line"/>
    </contour>
    <contour>
      <point x="814" y="528" type="curve"/>
      <point x="813" y="303" type="line"/>
      <point x="750" y="252"/>
      <point x="649" y="220"/>
      <point x="540" y="220" type="curve" smooth="yes"/>
      <point x="273" y="220"/>
      <point x="98" y="406"/>
      <point x="98" y="627" type="curve" smooth="yes"/>
      <point x="98" y="810"/>
      <point x="241" y="952"/>
      <point x="480" y="952" type="curve" smooth="yes"/>
      <point x="620" y="952"/>
      <point x="742" y="927"/>
      <point x="854" y="878" type="curve"/>
      <point x="854" y="714" type="line"/>
      <point x="728" y="768"/>
      <point x="627" y="793"/>
      <point x="529" y="793" type="curve" smooth="yes"/>
      <point x="364" y="793"/>
      <point x="283" y="711"/>
      <point x="283" y="595" type="curve" smooth="yes"/>
      <point x="283" y="474"/>
      <point x="372" y="385"/>
      <point x="515" y="385" type="curve" smooth="yes"/>
      <point x="634" y="385"/>
      <point x="736" y="432"/>
    </contour>
    <contour>
      <point x="780" y="1169" type="line"/>
      <point x="987" y="1169" type="line"/>
      <point x="987" y="0" type="line"/>
      <point x="780" y="0" type="line"/>
    </contour>
    <contour>
      <point x="787" y="1283" type="move" name="top"/>
    </contour>
  </outline>
</glyph>
<glyph name="bhadeva" format="1">
  <advance width="1381"/>
  <unicode hex="092D"/>
  <outline>
    <contour>
      <point x="387" y="1014" type="line"/>
      <point x="387" y="1126"/>
      <point x="336" y="1184"/>
      <point x="256" y="1184" type="curve" smooth="yes"/>
      <point x="184" y="1184"/>
      <point x="152" y="1135"/>
      <point x="151" y="1072" type="curve" smooth="yes"/>
      <point x="151" y="989"/>
      <point x="227" y="910"/>
      <point x="435" y="899" type="curve"/>
      <point x="413" y="777" type="line"/>
      <point x="148" y="786"/>
      <point x="-35" y="908"/>
      <point x="-35" y="1109" type="curve" smooth="yes"/>
      <point x="-35" y="1229"/>
      <point x="49" y="1339"/>
      <point x="242" y="1339" type="curve" smooth="yes"/>
      <point x="465" y="1339"/>
      <point x="597" y="1202"/>
      <point x="597" y="983" type="curve" smooth="yes"/>
      <point x="597" y="623" type="line"/>
      <point x="565" y="656" type="line"/>
      <point x="993" y="656" type="line"/>
      <point x="993" y="490" type="line"/>
      <point x="558" y="490" type="line"/>
      <point x="597" y="524" type="line"/>
      <point x="597" y="384" type="line"/>
      <point x="597" y="327"/>
      <point x="577" y="296"/>
      <point x="520" y="296" type="curve" smooth="yes"/>
      <point x="415" y="296"/>
      <point x="243" y="485"/>
      <point x="243" y="574" type="curve" smooth="yes"/>
      <point x="243" y="628"/>
      <point x="271" y="655"/>
      <point x="322" y="655" type="curve" smooth="yes"/>
      <point x="418" y="655" type="line"/>
      <point x="387" y="626" type="line"/>
    </contour>
    <contour>
      <point x="949" y="1169" type="line"/>
      <point x="1160" y="1169" type="line"/>
      <point x="1160" y="0" type="line"/>
      <point x="949" y="0" type="line"/>
    </contour>
    <contour>
      <point x="1397" y="1136" type="line"/>
      <point x="807" y="1136" type="line"/>
      <point x="807" y="1283" type="line"/>
      <point x="1397" y="1283" type="line"/>
    </contour>
  </outline>
</glyph>
<glyph name="madeva" format="1">
  <advance width="1273"/>
  <unicode hex="092E"/>
  <outline>
    <contour>
      <point x="-30" y="1136" type="line"/>
      <point x="-30" y="1283" type="line"/>
      <point x="1303" y="1283" type="line"/>
      <point x="1303" y="1136" type="line"/>
    </contour>
    <contour>
      <point x="841" y="1169" type="line"/>
      <point x="1048" y="1169" type="line"/>
      <point x="1048" y="0" type="line"/>
      <point x="841" y="0" type="line"/>
    </contour>
    <contour>
      <point x="83" y="592" type="curve" smooth="yes"/>
      <point x="83" y="637"/>
      <point x="110" y="668"/>
      <point x="169" y="668" type="curve" smooth="yes"/>
      <point x="266" y="668" type="line"/>
      <point x="234" y="638" type="line"/>
      <point x="234" y="1175" type="line"/>
      <point x="441" y="1175" type="line"/>
      <point x="441" y="634" type="line"/>
      <point x="409" y="668" type="line"/>
      <point x="894" y="668" type="line"/>
      <point x="894" y="494" type="line"/>
      <point x="402" y="494" type="line"/>
      <point x="441" y="528" type="line"/>
      <point x="441" y="395" type="line"/>
      <point x="441" y="340"/>
      <point x="420" y="307"/>
      <point x="368" y="307" type="curve" smooth="yes"/>
      <point x="318" y="307"/>
      <point x="246" y="343"/>
      <point x="189" y="401" type="curve" smooth="yes"/>
      <point x="128" y="461"/>
      <point x="83" y="537"/>
    </contour>
    <contour>
      <point x="841" y="1283" type="move" name="top"/>
    </contour>
  </outline>
</glyph>
<glyph name="yadeva" format="1">
  <advance width="1308"/>
  <unicode hex="092F"/>
  <outline>
    <contour>
      <point x="-30" y="1136" type="line"/>
      <point x="-30" y="1283" type="line"/>
      <point x="1338" y="1283" type="line"/>
      <point x="1338" y="1136" type="line"/>
    </contour>
    <contour>
      <point x="364" y="1165" type="line"/>
      <point x="571" y="1165" type="line"/>
      <point x="571" y="970" type="line"/>
      <point x="571" y="755"/>
      <point x="474" y="619"/>
      <point x="262" y="549" type="curve"/>
      <point x="267" y="645" type="line"/>
      <point x="339" y="522"/>
      <point x="461" y="450"/>
      <point x="591" y="450" type="curve" smooth="yes"/>
      <point x="730" y="450"/>
      <point x="845" y="508"/>
      <point x="925" y="632" type="curve"/>
      <point x="925" y="367" type="line"/>
      <point x="867" y="310"/>
      <point x="769" y="269"/>
      <point x="643" y="269" type="curve" smooth="yes"/>
      <point x="416" y="269"/>
      <point x="190" y="402"/>
      <point x="64" y="637" type="curve"/>
      <point x="69" y="658" type="line"/>
      <point x="295" y="734"/>
      <point x="364" y="831"/>
      <point x="364" y="985" type="curve" smooth="yes"/>
    </contour>
    <contour>
      <point x="876" y="1169" type="line"/>
      <point x="1083" y="1169" type="line"/>
      <point x="1083" y="0" type="line"/>
      <point x="876" y="0" type="line"/>
    </contour>
    <contour>
      <point x="876" y="1283" type="move" name="top"/>
    </contour>
  </outline>
</glyph>
<glyph name="radeva" format="1">
  <advance width="958"/>
  <unicode hex="0930"/>
  <outline>
    <contour>
      <point x="775" y="73" type="line"/>
      <point x="630" y="-26" type="line"/>
      <point x="162" y="603" type="line"/>
      <point x="101" y="683"/>
      <point x="73" y="726"/>
      <point x="73" y="773" type="curve" smooth="yes"/>
      <point x="73" y="815"/>
      <point x="110" y="854"/>
      <point x="162" y="854" type="curve" smooth="yes"/>
      <point x="215" y="854"/>
      <point x="257" y="800"/>
      <point x="312" y="726" type="curve" smooth="yes"/>
      <point x="398" y="606" type="line"/>
      <point x="396" y="587" type="line"/>
    </contour>
    <contour>
      <point x="310" y="642" type="line"/>
      <point x="480" y="684"/>
      <point x="548" y="780"/>
      <point x="548" y="937" type="curve" smooth="yes"/>
      <point x="548" y="1179" type="line"/>
      <point x="759" y="1179" type="line"/>
      <point x="759" y="905" type="line"/>
      <point x="759" y="724"/>
      <point x="667" y="543"/>
      <point x="434" y="475" type="curve"/>
    </contour>
    <contour>
      <point x="-20" y="1136" type="line"/>
      <point x="-20" y="1283" type="line"/>
      <point x="998" y="1283" type="line"/>
      <point x="998" y="1136" type="line"/>
    </contour>
    <contour>
      <point x="46" y="8" type="move" name="x27"/>
    </contour>
    <contour>
      <point x="560" y="8" type="move" name="mark0"/>
    </contour>
  </outline>
</glyph>
<glyph name="rradeva" format="1">
  <advance width="905"/>
  <unicode hex="0931"/>
  <outline>
    <component base="nuktadeva" xOffset="986" yOffset="315"/>
    <component base="radeva"/>
    <contour>
      <point x="418" y="11" type="move" name="btm"/>
    </contour>
    <contour>
      <point x="521" y="1283" type="move" name="top"/>
    </contour>
  </outline>
</glyph>
<glyph name="ladeva" format="1">
  <advance width="1506"/>
  <unicode hex="0932"/>
  <outline>
    <contour>
      <point x="931" y="660" type="curve"/>
      <point x="805" y="544" type="line"/>
      <point x="700" y="664"/>
      <point x="598" y="715"/>
      <point x="499" y="715" type="curve" smooth="yes"/>
      <point x="364" y="715"/>
      <point x="287" y="620"/>
      <point x="287" y="507" type="curve" smooth="yes"/>
      <point x="287" y="379"/>
      <point x="357" y="270"/>
      <point x="541" y="101" type="curve"/>
      <point x="391" y="10" type="line"/>
      <point x="206" y="179"/>
      <point x="95" y="355"/>
      <point x="95" y="540" type="curve" smooth="yes"/>
      <point x="95" y="744"/>
      <point x="240" y="896"/>
      <point x="452" y="896" type="curve" smooth="yes"/>
      <point x="630" y="896"/>
      <point x="775" y="821"/>
    </contour>
    <contour>
      <point x="1075" y="1169" type="line"/>
      <point x="1281" y="1169" type="line"/>
      <point x="1281" y="0" type="line"/>
      <point x="1075" y="0" type="line"/>
    </contour>
    <contour>
      <point x="-30" y="1136" type="line"/>
      <point x="-30" y="1283" type="line"/>
      <point x="1536" y="1283" type="line"/>
      <point x="1536" y="1136" type="line"/>
    </contour>
    <contour>
      <point x="1144" y="956" type="line"/>
      <point x="1144" y="705" type="line"/>
      <point x="704" y="293" type="line"/>
      <point x="573" y="419" type="line"/>
    </contour>
    <contour>
      <point x="1075" y="1283" type="move" name="top"/>
    </contour>
  </outline>
</glyph>
<glyph name="llladeva" format="1">
  <advance width="1598"/>
  <unicode hex="0934"/>
  <outline>
    <component base="nuktadeva" xOffset="1060" yOffset="183"/>
    <component base="lladeva"/>
    <contour>
      <point x="1035" y="18" type="move" name="btm"/>
    </contour>
    <contour>
      <point x="1114" y="1283" type="move" name="top"/>
    </contour>
  </outline>
</glyph>
<glyph name="vadeva" format="1">
  <advance width="1211"/>
  <unicode hex="0935"/>
  <outline>
    <contour>
      <point x="1241" y="1136" type="line"/>
      <point x="-30" y="1136" type="line"/>
      <point x="-30" y="1283" type="line"/>
      <point x="1241" y="1283" type="line"/>
    </contour>
    <contour>
      <point x="813" y="536" type="curve"/>
      <point x="812" y="306" type="line"/>
      <point x="747" y="252"/>
      <point x="649" y="222"/>
      <point x="540" y="222" type="curve" smooth="yes"/>
      <point x="274" y="222"/>
      <point x="98" y="403"/>
      <point x="98" y="628" type="curve" smooth="yes"/>
      <point x="98" y="810"/>
      <point x="244" y="950"/>
      <point x="479" y="950" type="curve" smooth="yes"/>
      <point x="620" y="950"/>
      <point x="741" y="926"/>
      <point x="853" y="877" type="curve"/>
      <point x="853" y="709" type="line"/>
      <point x="727" y="763"/>
      <point x="628" y="787"/>
      <point x="530" y="787" type="curve" smooth="yes"/>
      <point x="370" y="787"/>
      <point x="289" y="701"/>
      <point x="289" y="594" type="curve" smooth="yes"/>
      <point x="289" y="479"/>
      <point x="376" y="390"/>
      <point x="514" y="390" type="curve" smooth="yes"/>
      <point x="623" y="390"/>
      <point x="719" y="431"/>
    </contour>
    <contour>
      <point x="780" y="1169" type="line"/>
      <point x="986" y="1169" type="line"/>
      <point x="986" y="0" type="line"/>
      <point x="780" y="0" type="line"/>
    </contour>
    <contour>
      <point x="780" y="1283" type="move" name="top"/>
    </contour>
  </outline>
</glyph>
<glyph name="shadeva" format="1">
  <advance width="1561"/>
  <unicode hex="0936"/>
  <outline>
    <contour>
      <point x="514" y="444" type="line"/>
      <point x="853" y="98" type="line"/>
      <point x="726" y="-16" type="line"/>
      <point x="362" y="360" type="line"/>
    </contour>
    <contour>
      <point x="281" y="282" type="curve" smooth="yes"/>
      <point x="189" y="282"/>
      <point x="152" y="345"/>
      <point x="152" y="421" type="curve" smooth="yes"/>
      <point x="152" y="501"/>
      <point x="210" y="598"/>
      <point x="294" y="598" type="curve" smooth="yes"/>
      <point x="356" y="598"/>
      <point x="407" y="560"/>
      <point x="477" y="484" type="curve"/>
      <point x="385" y="487" type="line"/>
      <point x="564" y="553"/>
      <point x="720" y="722"/>
      <point x="720" y="930" type="curve" smooth="yes"/>
      <point x="720" y="1052"/>
      <point x="618" y="1159"/>
      <point x="496" y="1159" type="curve" smooth="yes"/>
      <point x="416" y="1159"/>
      <point x="368" y="1109"/>
      <point x="369" y="1037" type="curve" smooth="yes"/>
      <point x="370" y="947"/>
      <point x="470" y="846"/>
      <point x="770" y="832" type="curve"/>
      <point x="719" y="697" type="line"/>
      <point x="336" y="726"/>
      <point x="180" y="892"/>
      <point x="180" y="1067" type="curve" smooth="yes"/>
      <point x="180" y="1197"/>
      <point x="276" y="1314"/>
      <point x="472" y="1314" type="curve" smooth="yes"/>
      <point x="724" y="1314"/>
      <point x="894" y="1146"/>
      <point x="894" y="901" type="curve" smooth="yes"/>
      <point x="894" y="557"/>
      <point x="495" y="282"/>
    </contour>
    <contour>
      <point x="1129" y="1169" type="line"/>
      <point x="1340" y="1169" type="line"/>
      <point x="1340" y="0" type="line"/>
      <point x="1129" y="0" type="line"/>
    </contour>
    <contour>
      <point x="1577" y="1136" type="line"/>
      <point x="972" y="1136" type="line"/>
      <point x="972" y="1283" type="line"/>
      <point x="1577" y="1283" type="line"/>
    </contour>
  </outline>
</glyph>
<glyph name="ssadeva" format="1">
  <advance width="1202"/>
  <unicode hex="0937"/>
  <outline>
    <contour>
      <point x="847" y="595" type="line"/>
      <point x="742" y="513" type="line"/>
      <point x="246" y="1117" type="line"/>
      <point x="351" y="1198" type="line"/>
    </contour>
    <contour>
      <point x="1227" y="1136" type="line"/>
      <point x="-30" y="1136" type="line"/>
      <point x="-30" y="1283" type="line"/>
      <point x="1227" y="1283" type="line"/>
    </contour>
    <contour>
      <point x="346" y="1195" type="line"/>
      <point x="346" y="723" type="line"/>
      <point x="346" y="590"/>
      <point x="418" y="529"/>
      <point x="533" y="529" type="curve" smooth="yes"/>
      <point x="628" y="529"/>
      <point x="715" y="559"/>
      <point x="794" y="632" type="curve"/>
      <point x="794" y="404" type="line"/>
      <point x="729" y="376"/>
      <point x="645" y="356"/>
      <point x="561" y="356" type="curve" smooth="yes"/>
      <point x="310" y="356"/>
      <point x="142" y="496"/>
      <point x="142" y="764" type="curve" smooth="yes"/>
      <point x="142" y="1195" type="line"/>
    </contour>
    <contour>
      <point x="765" y="1169" type="line"/>
      <point x="972" y="1169" type="line"/>
      <point x="972" y="0" type="line"/>
      <point x="765" y="0" type="line"/>
    </contour>
    <contour>
      <point x="765" y="1283" type="move" name="top"/>
    </contour>
  </outline>
</glyph>
<glyph name="sadeva" format="1">
  <advance width="1490"/>
  <unicode hex="0938"/>
  <outline>
    <contour>
      <point x="748" y="72" type="line"/>
      <point x="596" y="-30" type="line"/>
      <point x="91" y="655" type="line"/>
      <point x="59" y="698"/>
      <point x="42" y="731"/>
      <point x="42" y="769" type="curve" smooth="yes"/>
      <point x="42" y="816"/>
      <point x="78" y="857"/>
      <point x="134" y="857" type="curve" smooth="yes"/>
      <point x="173" y="857"/>
      <point x="202" y="836"/>
      <point x="228" y="802" type="curve" smooth="yes"/>
      <point x="366" y="612" type="line"/>
      <point x="366" y="591" type="line"/>
    </contour>
    <contour>
      <point x="240" y="647" type="line"/>
      <point x="401" y="690"/>
      <point x="471" y="781"/>
      <point x="471" y="942" type="curve" smooth="yes"/>
      <point x="471" y="1179" type="line"/>
      <point x="677" y="1179" type="line"/>
      <point x="677" y="909" type="line"/>
      <point x="677" y="728"/>
      <point x="593" y="558"/>
      <point x="357" y="481" type="curve"/>
    </contour>
    <contour>
      <point x="-30" y="1136" type="line"/>
      <point x="-30" y="1283" type="line"/>
      <point x="1520" y="1283" type="line"/>
      <point x="1520" y="1136" type="line"/>
    </contour>
    <contour>
      <point x="489" y="572" type="curve"/>
      <point x="563" y="722" type="line"/>
      <point x="662" y="683"/>
      <point x="756" y="666"/>
      <point x="829" y="666" type="curve" smooth="yes"/>
      <point x="919" y="666"/>
      <point x="1008" y="679"/>
      <point x="1082" y="702" type="curve"/>
      <point x="1082" y="520" type="line"/>
      <point x="1029" y="503"/>
      <point x="953" y="489"/>
      <point x="862" y="489" type="curve" smooth="yes"/>
      <point x="739" y="489"/>
      <point x="621" y="514"/>
    </contour>
    <contour>
      <point x="1058" y="1169" type="line"/>
      <point x="1265" y="1169" type="line"/>
      <point x="1265" y="0" type="line"/>
      <point x="1058" y="0" type="line"/>
    </contour>
    <contour>
      <point x="1058" y="1283" type="move" name="top"/>
    </contour>
  </outline>
</glyph>
<glyph name="hadeva" format="1">
  <advance width="1178"/>
  <unicode hex="0939"/>
  <outline>
    <contour>
      <point x="747" y="1162" type="line"/>
      <point x="954" y="1162" type="line"/>
      <point x="954" y="794" type="line"/>
      <point x="451" y="794" type="line"/>
      <point x="332" y="794"/>
      <point x="289" y="745"/>
      <point x="289" y="678" type="curve" smooth="yes"/>
      <point x="289" y="614"/>
      <point x="348" y="561"/>
      <point x="445" y="532" type="curve"/>
      <point x="319" y="409" type="line"/>
      <point x="169" y="487"/>
      <point x="92" y="589"/>
      <point x="92" y="711" type="curve" smooth="yes"/>
      <point x="92" y="846"/>
      <point x="186" y="943"/>
      <point x="397" y="943" type="curve" smooth="yes"/>
      <point x="786" y="943" type="line"/>
      <point x="747" y="899" type="line"/>
    </contour>
    <contour>
      <point x="626" y="601" type="curve" smooth="yes"/>
      <point x="908" y="601"/>
      <point x="1050" y="454"/>
      <point x="1050" y="286" type="curve" smooth="yes"/>
      <point x="1050" y="208"/>
      <point x="1029" y="143"/>
      <point x="994" y="80" type="curve"/>
      <point x="822" y="116" type="line"/>
      <point x="852" y="166"/>
      <point x="867" y="216"/>
      <point x="867" y="272" type="curve" smooth="yes"/>
      <point x="867" y="352"/>
      <point x="794" y="434"/>
      <point x="639" y="435" type="curve" smooth="yes"/>
      <point x="482" y="436"/>
      <point x="383" y="320"/>
      <point x="383" y="204" type="curve" smooth="yes"/>
      <point x="383" y="43"/>
      <point x="518" y="-78"/>
      <point x="950" y="-129" type="curve"/>
      <point x="896" y="-281" type="line"/>
      <point x="414" y="-227"/>
      <point x="187" y="-46"/>
      <point x="187" y="229" type="curve" smooth="yes"/>
      <point x="187" y="422"/>
      <point x="337" y="601"/>
    </contour>
    <contour>
      <point x="1208" y="1136" type="line"/>
      <point x="-30" y="1136" type="line"/>
      <point x="-30" y="1283" type="line"/>
      <point x="1208" y="1283" type="line"/>
    </contour>
    <contour>
      <point x="746" y="1283" type="move" name="top"/>
    </contour>
  </outline>
</glyph>
<glyph name="avagrahadeva" format="1">
  <advance width="1115"/>
  <unicode hex="093D"/>
  <outline>
    <contour>
      <point x="968" y="394" type="curve" smooth="yes"/>
      <point x="968" y="186"/>
      <point x="803" y="67"/>
      <point x="595" y="67" type="curve" smooth="yes"/>
      <point x="429" y="67"/>
      <point x="276" y="110"/>
      <point x="103" y="226" type="curve"/>
      <point x="152" y="392" type="line"/>
      <point x="306" y="283"/>
      <point x="434" y="236"/>
      <point x="546" y="236" type="curve" smooth="yes"/>
      <point x="687" y="236"/>
      <point x="777" y="303"/>
      <point x="777" y="407" type="curve" smooth="yes"/>
      <point x="777" y="507"/>
      <point x="696" y="574"/>
      <point x="500" y="694" type="curve" smooth="yes"/>
      <point x="311" y="809"/>
      <point x="233" y="910"/>
      <point x="233" y="1044" type="curve" smooth="yes"/>
      <point x="233" y="1167"/>
      <point x="325" y="1283"/>
      <point x="554" y="1283" type="curve" smooth="yes"/>
      <point x="936" y="1283" type="line"/>
      <point x="936" y="1136" type="line"/>
      <point x="609" y="1136" type="line"/>
      <point x="482" y="1136"/>
      <point x="435" y="1089"/>
      <point x="434" y="1015" type="curve" smooth="yes"/>
      <point x="434" y="947"/>
      <point x="482" y="893"/>
      <point x="666" y="784" type="curve" smooth="yes"/>
      <point x="875" y="657"/>
      <point x="968" y="552"/>
    </contour>
  </outline>
</glyph>
<glyph name="aavowelsigndeva" format="1">
  <advance width="618"/>
  <unicode hex="093E"/>
  <outline>
    <contour>
      <point x="186" y="1169" type="line"/>
      <point x="393" y="1169" type="line"/>
      <point x="393" y="0" type="line"/>
      <point x="186" y="0" type="line"/>
    </contour>
    <contour>
      <point x="648" y="1136" type="line"/>
      <point x="-30" y="1136" type="line"/>
      <point x="-30" y="1283" type="line"/>
      <point x="648" y="1283" type="line"/>
    </contour>
  </outline>
</glyph>
<glyph name="iivowelsigndeva" format="1">
  <advance width="618"/>
  <unicode hex="0940"/>
  <outline>
    <contour>
      <point x="184" y="1239" type="line"/>
      <point x="88" y="1469"/>
      <point x="-68" y="1624"/>
      <point x="-219" y="1624" type="curve" smooth="yes"/>
      <point x="-315" y="1624"/>
      <point x="-363" y="1569"/>
      <point x="-363" y="1490" type="curve" smooth="yes"/>
      <point x="-363" y="1410"/>
      <point x="-319" y="1348"/>
      <point x="-242" y="1256" type="curve"/>
      <point x="-441" y="1256" type="line"/>
      <point x="-505" y="1326"/>
      <point x="-562" y="1432"/>
      <point x="-562" y="1548" type="curve" smooth="yes"/>
      <point x="-562" y="1678"/>
      <point x="-471" y="1804"/>
      <point x="-262" y="1804" type="curve" smooth="yes"/>
      <point x="15" y="1804"/>
      <point x="243" y="1605"/>
      <point x="388" y="1239" type="curve"/>
    </contour>
    <component base="aavowelsigndeva"/>
  </outline>
</glyph>
<glyph name="uvowelsigndeva" format="1">
  <unicode hex="0941"/>
  <outline>
    <contour>
      <point x="-649" y="-88" type="line"/>
      <point x="-563" y="-22"/>
      <point x="-463" y="27"/>
      <point x="-329" y="27" type="curve" smooth="yes"/>
      <point x="-135" y="27"/>
      <point x="-6" y="-99"/>
      <point x="-6" y="-279" type="curve" smooth="yes"/>
      <point x="-6" y="-462"/>
      <point x="-151" y="-578"/>
      <point x="-357" y="-578" type="curve" smooth="yes"/>
      <point x="-562" y="-578"/>
      <point x="-750" y="-504"/>
      <point x="-960" y="-349" type="curve"/>
      <point x="-894" y="-203" type="line"/>
      <point x="-686" y="-361"/>
      <point x="-527" y="-419"/>
      <point x="-397" y="-419" type="curve" smooth="yes"/>
      <point x="-257" y="-419"/>
      <point x="-184" y="-356"/>
      <point x="-184" y="-268" type="curve" smooth="yes"/>
      <point x="-184" y="-191"/>
      <point x="-250" y="-134"/>
      <point x="-339" y="-134" type="curve" smooth="yes"/>
      <point x="-414" y="-134"/>
      <point x="-492" y="-169"/>
      <point x="-565" y="-228" type="curve"/>
    </contour>
    <contour>
      <point x="-433" y="0" type="move" name="_btm"/>
    </contour>
  </outline>
</glyph>
<glyph name="uuvowelsigndeva" format="1">
  <unicode hex="0942"/>
  <outline>
    <contour>
      <point x="-108" y="-519" type="line"/>
      <point x="-173" y="-554"/>
      <point x="-241" y="-571"/>
      <point x="-333" y="-571" type="curve" smooth="yes"/>
      <point x="-530" y="-571"/>
      <point x="-690" y="-451"/>
      <point x="-690" y="-268" type="curve" smooth="yes"/>
      <point x="-690" y="-119"/>
      <point x="-575" y="23"/>
      <point x="-356" y="23" type="curve" smooth="yes"/>
      <point x="-129" y="23"/>
      <point x="80" y="-113"/>
      <point x="287" y="-378" type="curve"/>
      <point x="183" y="-497" type="line"/>
      <point x="-22" y="-241"/>
      <point x="-193" y="-149"/>
      <point x="-335" y="-149" type="curve" smooth="yes"/>
      <point x="-450" y="-149"/>
      <point x="-508" y="-216"/>
      <point x="-508" y="-293" type="curve" smooth="yes"/>
      <point x="-508" y="-365"/>
      <point x="-449" y="-418"/>
      <point x="-343" y="-418" type="curve" smooth="yes"/>
      <point x="-280" y="-418"/>
      <point x="-223" y="-401"/>
      <point x="-160" y="-371" type="curve"/>
    </contour>
    <contour>
      <point x="-433" y="0" type="move" name="_btm"/>
    </contour>
  </outline>
</glyph>
<glyph name="rvocalicvowelsigndeva" format="1">
  <advance width="0"/>
  <unicode hex="0943"/>
  <outline>
    <contour>
      <point x="-146" y="-442" type="line"/>
      <point x="-235" y="-473"/>
      <point x="-284" y="-481"/>
      <point x="-360" y="-481" type="curve" smooth="yes"/>
      <point x="-543" y="-481"/>
      <point x="-683" y="-381"/>
      <point x="-683" y="-221" type="curve" smooth="yes"/>
      <point x="-683" y="-76"/>
      <point x="-553" y="30"/>
      <point x="-358" y="30" type="curve" smooth="yes"/>
      <point x="-303" y="30"/>
      <point x="-254" y="23"/>
      <point x="-221" y="16" type="curve"/>
      <point x="-221" y="-98" type="line"/>
      <point x="-250" y="-98"/>
      <point x="-289" y="-98"/>
      <point x="-320" y="-98" type="curve" smooth="yes"/>
      <point x="-444" y="-98"/>
      <point x="-507" y="-169"/>
      <point x="-507" y="-237" type="curve" smooth="yes"/>
      <point x="-507" y="-299"/>
      <point x="-457" y="-347"/>
      <point x="-360" y="-347" type="curve" smooth="yes"/>
      <point x="-303" y="-347"/>
      <point x="-251" y="-336"/>
      <point x="-172" y="-303" type="curve"/>
    </contour>
    <contour>
      <point x="-381" y="-13" type="move" name="_mark0"/>
    </contour>
  </outline>
</glyph>
<glyph name="rrvocalicvowelsigndeva" format="1">
  <advance width="0"/>
  <unicode hex="0944"/>
  <outline>
    <contour>
      <point x="-75" y="-669" type="line"/>
      <point x="-131" y="-691"/>
      <point x="-214" y="-711"/>
      <point x="-284" y="-711" type="curve" smooth="yes"/>
      <point x="-470" y="-711"/>
      <point x="-549" y="-614"/>
      <point x="-549" y="-511" type="curve" smooth="yes"/>
      <point x="-549" y="-391"/>
      <point x="-439" y="-307"/>
      <point x="-261" y="-306" type="curve"/>
      <point x="-237" y="-394" type="line"/>
      <point x="-335" y="-398"/>
      <point x="-385" y="-451"/>
      <point x="-385" y="-507" type="curve" smooth="yes"/>
      <point x="-385" y="-555"/>
      <point x="-351" y="-592"/>
      <point x="-267" y="-592" type="curve" smooth="yes"/>
      <point x="-215" y="-592"/>
      <point x="-166" y="-580"/>
      <point x="-100" y="-552" type="curve"/>
    </contour>
    <contour>
      <point x="-149" y="-389" type="line"/>
      <point x="-230" y="-410"/>
      <point x="-295" y="-421"/>
      <point x="-360" y="-421" type="curve" smooth="yes"/>
      <point x="-556" y="-421"/>
      <point x="-667" y="-317"/>
      <point x="-667" y="-187" type="curve" smooth="yes"/>
      <point x="-667" y="-67"/>
      <point x="-546" y="30"/>
      <point x="-349" y="30" type="curve" smooth="yes"/>
      <point x="-294" y="30"/>
      <point x="-254" y="24"/>
      <point x="-221" y="19" type="curve"/>
      <point x="-221" y="-91" type="line"/>
      <point x="-250" y="-91"/>
      <point x="-289" y="-91"/>
      <point x="-320" y="-91" type="curve" smooth="yes"/>
      <point x="-440" y="-91"/>
      <point x="-487" y="-147"/>
      <point x="-487" y="-197" type="curve" smooth="yes"/>
      <point x="-487" y="-251"/>
      <point x="-445" y="-296"/>
      <point x="-355" y="-296" type="curve" smooth="yes"/>
      <point x="-304" y="-296"/>
      <point x="-260" y="-288"/>
      <point x="-176" y="-263" type="curve"/>
    </contour>
    <contour>
      <point x="-381" y="-13" type="move" name="_mark0"/>
    </contour>
  </outline>
</glyph>
<glyph name="ecandravowelsigndeva" format="1">
  <unicode hex="0945"/>
  <outline>
    <contour>
      <point x="73" y="1572" type="line"/>
      <point x="-29" y="1457"/>
      <point x="-164" y="1398"/>
      <point x="-323" y="1398" type="curve" smooth="yes"/>
      <point x="-483" y="1398"/>
      <point x="-617" y="1451"/>
      <point x="-741" y="1564" type="curve"/>
      <point x="-689" y="1716" type="line"/>
      <point x="-577" y="1611"/>
      <point x="-460" y="1560"/>
      <point x="-327" y="1560" type="curve" smooth="yes"/>
      <point x="-198" y="1560"/>
      <point x="-88" y="1612"/>
      <point x="11" y="1713" type="curve"/>
    </contour>
    <contour>
      <point x="-434" y="1283" type="move" name="_top"/>
    </contour>
  </outline>
</glyph>
<glyph name="aivowelsigndeva" format="1">
  <advance width="0"/>
  <unicode hex="0948"/>
  <outline>
    <contour>
      <point x="-621" y="1244" type="line"/>
      <point x="-1102" y="1596" type="line"/>
      <point x="-953" y="1720" type="line"/>
      <point x="-363" y="1244" type="line"/>
    </contour>
    <contour>
      <point x="-396" y="1244" type="line"/>
      <point x="-635" y="1791" type="line"/>
      <point x="-448" y="1837" type="line"/>
      <point x="-210" y="1244" type="line"/>
    </contour>
    <contour>
      <point x="49" y="8" type="move" name="x27"/>
    </contour>
    <contour>
      <point x="-424" y="1282" type="move" name="_mark0"/>
    </contour>
  </outline>
</glyph>
<glyph name="viramadeva" format="1">
  <unicode hex="094D"/>
  <outline>
    <contour>
      <point x="-417" y="-73" type="line"/>
      <point x="114" y="-325" type="line"/>
      <point x="43" y="-477" type="line"/>
      <point x="-489" y="-225" type="line"/>
    </contour>
    <contour>
      <point x="-433" y="0" type="move" name="_btm"/>
    </contour>
  </outline>
</glyph>
<glyph name="prishthaevowelsign" format="1">
  <advance width="618"/>
  <unicode hex="094E"/>
  <outline>
    <contour>
      <point x="186" y="1169" type="line"/>
      <point x="397" y="1169" type="line"/>
      <point x="397" y="0" type="line"/>
      <point x="186" y="0" type="line"/>
    </contour>
    <contour>
      <point x="648" y="1136" type="line"/>
      <point x="186" y="1136" type="line"/>
      <point x="186" y="1283" type="line"/>
      <point x="648" y="1283" type="line"/>
    </contour>
  </outline>
</glyph>
<glyph name="awvowelsigndevaKSH" format="1">
  <advance width="618"/>
  <unicode hex="094F"/>
  <outline>
    <contour>
      <point x="230" y="1227" type="line"/>
      <point x="230" y="1512" type="line"/>
      <point x="230" y="1577"/>
      <point x="201" y="1616"/>
      <point x="124" y="1616" type="curve" smooth="yes"/>
      <point x="61" y="1616"/>
      <point x="9" y="1581"/>
      <point x="-93" y="1581" type="curve" smooth="yes"/>
      <point x="-202" y="1581"/>
      <point x="-283" y="1629"/>
      <point x="-356" y="1713" type="curve"/>
      <point x="-288" y="1822" type="line"/>
      <point x="-212" y="1750"/>
      <point x="-156" y="1725"/>
      <point x="-99" y="1725" type="curve" smooth="yes"/>
      <point x="-16" y="1725"/>
      <point x="58" y="1767"/>
      <point x="172" y="1767" type="curve" smooth="yes"/>
      <point x="307" y="1767"/>
      <point x="393" y="1682"/>
      <point x="393" y="1535" type="curve" smooth="yes"/>
      <point x="393" y="1227" type="line"/>
    </contour>
    <contour>
      <point x="141" y="1194" type="line"/>
      <point x="80" y="1302" type="line"/>
      <point x="42" y="1369"/>
      <point x="1" y="1402"/>
      <point x="-75" y="1402" type="curve" smooth="yes"/>
      <point x="-148" y="1402"/>
      <point x="-221" y="1368"/>
      <point x="-327" y="1368" type="curve" smooth="yes"/>
      <point x="-443" y="1368"/>
      <point x="-541" y="1419"/>
      <point x="-624" y="1509" type="curve"/>
      <point x="-553" y="1614" type="line"/>
      <point x="-471" y="1537"/>
      <point x="-403" y="1510"/>
      <point x="-333" y="1510" type="curve" smooth="yes"/>
      <point x="-236" y="1510"/>
      <point x="-151" y="1554"/>
      <point x="-52" y="1554" type="curve" smooth="yes"/>
      <point x="96" y="1554"/>
      <point x="164" y="1499"/>
      <point x="239" y="1342" type="curve" smooth="yes"/>
      <point x="318" y="1194" type="line"/>
    </contour>
    <component base="aavowelsigndeva"/>
  </outline>
</glyph>
<glyph name="omdeva" format="1">
  <advance width="1990"/>
  <unicode hex="0950"/>
  <outline>
    <contour>
      <point x="1584" y="955" type="curve" smooth="yes"/>
      <point x="1498" y="955"/>
      <point x="1422" y="881"/>
      <point x="1352" y="727" type="curve" smooth="yes"/>
      <point x="1248" y="496"/>
      <point x="1158" y="384"/>
      <point x="1004" y="384" type="curve" smooth="yes"/>
      <point x="937" y="384"/>
      <point x="875" y="393"/>
      <point x="832" y="404" type="curve"/>
      <point x="820" y="573" type="line"/>
      <point x="857" y="557"/>
      <point x="914" y="546"/>
      <point x="952" y="547" type="curve" smooth="yes"/>
      <point x="1025" y="549"/>
      <point x="1084" y="610"/>
      <point x="1164" y="785" type="curve" smooth="yes"/>
      <point x="1254" y="981"/>
      <point x="1365" y="1132"/>
      <point x="1568" y="1132" type="curve" smooth="yes"/>
      <point x="1790" y="1132"/>
      <point x="1933" y="960"/>
      <point x="1933" y="730" type="curve" smooth="yes"/>
      <point x="1933" y="513"/>
      <point x="1777" y="353"/>
      <point x="1569" y="353" type="curve" smooth="yes"/>
      <point x="1409" y="353"/>
      <point x="1275" y="421"/>
      <point x="1124" y="555" type="curve"/>
      <point x="1209" y="686" type="line"/>
      <point x="1329" y="578"/>
      <point x="1434" y="519"/>
      <point x="1531" y="519" type="curve" smooth="yes"/>
      <point x="1658" y="519"/>
      <point x="1753" y="613"/>
      <point x="1753" y="757" type="curve" smooth="yes"/>
      <point x="1753" y="876"/>
      <point x="1681" y="955"/>
    </contour>
    <contour>
      <point x="351" y="635" type="line"/>
      <point x="315" y="797" type="line"/>
      <point x="324" y="797" type="line"/>
      <point x="588" y="803"/>
      <point x="690" y="897"/>
      <point x="690" y="996" type="curve" smooth="yes"/>
      <point x="690" y="1078"/>
      <point x="626" y="1135"/>
      <point x="508" y="1135" type="curve" smooth="yes"/>
      <point x="416" y="1135"/>
      <point x="319" y="1102"/>
      <point x="227" y="1048" type="curve"/>
      <point x="173" y="1213" type="line"/>
      <point x="262" y="1260"/>
      <point x="379" y="1298"/>
      <point x="513" y="1298" type="curve" smooth="yes"/>
      <point x="747" y="1298"/>
      <point x="871" y="1165"/>
      <point x="871" y="985" type="curve" smooth="yes"/>
      <point x="871" y="790"/>
      <point x="698" y="644"/>
      <point x="365" y="636" type="curve" smooth="yes"/>
    </contour>
    <contour>
      <point x="686" y="806" type="line"/>
      <point x="839" y="723"/>
      <point x="934" y="605"/>
      <point x="934" y="441" type="curve" smooth="yes"/>
      <point x="934" y="259"/>
      <point x="800" y="107"/>
      <point x="573" y="107" type="curve" smooth="yes"/>
      <point x="419" y="107"/>
      <point x="269" y="164"/>
      <point x="131" y="265" type="curve"/>
      <point x="180" y="428" type="line"/>
      <point x="309" y="325"/>
      <point x="424" y="282"/>
      <point x="538" y="282" type="curve" smooth="yes"/>
      <point x="670" y="282"/>
      <point x="745" y="363"/>
      <point x="745" y="467" type="curve" smooth="yes"/>
      <point x="745" y="571"/>
      <point x="674" y="654"/>
      <point x="557" y="702" type="curve"/>
    </contour>
    <component base="candrabindudeva" xOffset="1479" yOffset="-145"/>
  </outline>
</glyph>
<glyph name="udattadeva" format="1">
  <advance width="43"/>
  <unicode hex="0951"/>
  <outline>
    <contour>
      <point x="-161" y="1785" type="line"/>
      <point x="-161" y="1425" type="line"/>
      <point x="-385" y="1425" type="line"/>
      <point x="-385" y="1785" type="line"/>
    </contour>
    <contour>
      <point x="-381" y="1261" type="move" name="_mark0"/>
    </contour>
    <contour>
      <point x="22" y="-13" type="move" name="x4"/>
    </contour>
  </outline>
</glyph>
<glyph name="uni0954" format="1">
  <advance width="0"/>
  <unicode hex="0954"/>
  <outline>
    <contour>
      <point x="-263" y="1808" type="line"/>
      <point x="1" y="1808" type="line"/>
      <point x="-230" y="1429" type="line"/>
      <point x="-409" y="1429" type="line"/>
    </contour>
    <contour>
      <point x="21" y="-13" type="move" name="x4"/>
    </contour>
  </outline>
</glyph>
<glyph name="candralongevowelsigndeva" format="1">
  <unicode hex="0955"/>
  <outline>
    <component base="ecandravowelsigndeva" yScale="0.887804296367" xOffset="-289" yOffset="357"/>
    <component base="anudattadeva" xOffset="-20" yOffset="1662"/>
    <contour>
      <point x="-434" y="1283" type="move" name="_top"/>
    </contour>
  </outline>
</glyph>
<glyph name="uevowelsigndevaKSH" format="1">
  <unicode hex="0956"/>
  <outline>
    <contour>
      <point x="121" y="-225" type="line"/>
      <point x="8" y="-338"/>
      <point x="-140" y="-398"/>
      <point x="-315" y="-398" type="curve" smooth="yes"/>
      <point x="-489" y="-398"/>
      <point x="-636" y="-342"/>
      <point x="-773" y="-231" type="curve"/>
      <point x="-724" y="-91" type="line"/>
      <point x="-601" y="-192"/>
      <point x="-467" y="-239"/>
      <point x="-321" y="-239" type="curve" smooth="yes"/>
      <point x="-172" y="-239"/>
      <point x="-41" y="-186"/>
      <point x="64" y="-89" type="curve"/>
    </contour>
    <contour>
      <point x="-433" y="0" type="move" name="_btm"/>
    </contour>
  </outline>
</glyph>
<glyph name="uuevowelsigndevaKSH" format="1">
  <unicode hex="0957"/>
  <outline>
    <component base="uevowelsigndevaKSH" yScale="0.911255236939" yOffset="-7"/>
    <component base="uevowelsigndevaKSH" xScale="1.05291689066" yScale="0.880834267741" xOffset="21" yOffset="-292"/>
    <contour>
      <point x="-433" y="0" type="move" name="_btm"/>
    </contour>
  </outline>
</glyph>
<glyph name="qadeva" format="1">
  <advance width="1531"/>
  <unicode hex="0958"/>
  <outline>
    <component base="kadeva"/>
    <component base="nuktadeva" xOffset="1007" yOffset="250"/>
    <contour>
      <point x="852" y="0" type="move" name="mark0"/>
    </contour>
  </outline>
</glyph>
<glyph name="zadeva" format="1">
  <advance width="1593"/>
  <unicode hex="095B"/>
  <outline>
    <component base="jadeva"/>
    <component base="nuktadeva" xOffset="960" yOffset="295"/>
    <contour>
      <point x="1161" y="1283" type="move" name="top"/>
    </contour>
  </outline>
</glyph>
<glyph name="rrvocalicdeva" format="1">
  <advance width="1585"/>
  <unicode hex="0960"/>
  <outline>
    <contour>
      <point x="884" y="697" type="line"/>
      <point x="921" y="669"/>
      <point x="957" y="657"/>
      <point x="1020" y="657" type="curve" smooth="yes"/>
      <point x="1089" y="657"/>
      <point x="1177" y="672"/>
      <point x="1256" y="734" type="curve"/>
      <point x="1193" y="665" type="line"/>
      <point x="1160" y="712"/>
      <point x="1145" y="741"/>
      <point x="1145" y="777" type="curve" smooth="yes"/>
      <point x="1145" y="822"/>
      <point x="1181" y="866"/>
      <point x="1261" y="866" type="curve" smooth="yes"/>
      <point x="1372" y="866"/>
      <point x="1466" y="813"/>
      <point x="1466" y="739" type="curve" smooth="yes"/>
      <point x="1466" y="644"/>
      <point x="1291" y="504"/>
      <point x="1035" y="505" type="curve" smooth="yes"/>
      <point x="957" y="505"/>
      <point x="886" y="515"/>
      <point x="810" y="550" type="curve"/>
    </contour>
    <contour>
      <point x="859" y="453" type="line"/>
      <point x="288" y="152" type="line"/>
      <point x="185" y="301" type="line"/>
      <point x="764" y="596" type="line"/>
    </contour>
    <contour>
      <point x="-36" y="1136" type="line"/>
      <point x="-36" y="1283" type="line"/>
      <point x="1601" y="1283" type="line"/>
      <point x="1601" y="1136" type="line"/>
    </contour>
    <contour>
      <point x="90" y="819" type="line"/>
      <point x="174" y="854"/>
      <point x="265" y="878"/>
      <point x="354" y="878" type="curve" smooth="yes"/>
      <point x="454" y="878"/>
      <point x="583" y="827"/>
      <point x="781" y="699" type="curve"/>
      <point x="781" y="507" type="line"/>
      <point x="576" y="647"/>
      <point x="467" y="704"/>
      <point x="390" y="704" type="curve" smooth="yes"/>
      <point x="314" y="704"/>
      <point x="218" y="674"/>
      <point x="144" y="644" type="curve"/>
    </contour>
    <contour>
      <point x="734" y="1169" type="line"/>
      <point x="945" y="1169" type="line"/>
      <point x="945" y="0" type="line"/>
      <point x="734" y="0" type="line"/>
    </contour>
    <contour>
      <point x="1332" y="184" type="curve" smooth="yes"/>
      <point x="1332" y="123"/>
      <point x="1390" y="78"/>
      <point x="1477" y="78" type="curve" smooth="yes"/>
      <point x="1534" y="78"/>
      <point x="1575" y="91"/>
      <point x="1647" y="123" type="curve"/>
      <point x="1674" y="-16" type="line"/>
      <point x="1614" y="-38"/>
      <point x="1551" y="-56"/>
      <point x="1471" y="-56" type="curve" smooth="yes"/>
      <point x="1279" y="-56"/>
      <point x="1157" y="47"/>
      <point x="1157" y="189" type="curve" smooth="yes"/>
      <point x="1157" y="314"/>
      <point x="1236" y="406"/>
      <point x="1434" y="468" type="curve"/>
      <point x="1354" y="412" type="line"/>
      <point x="1226" y="594" type="line"/>
      <point x="1365" y="671" type="line"/>
      <point x="1548" y="418" type="line"/>
      <point x="1534" y="367" type="line"/>
      <point x="1386" y="319"/>
      <point x="1332" y="263"/>
    </contour>
    <contour>
      <point x="859" y="1261" type="move" name="mark0"/>
    </contour>
  </outline>
</glyph>
<glyph name="llvocalicdeva" format="1">
  <advance width="1463"/>
  <unicode hex="0961"/>
  <outline>
    <contour>
      <point x="887" y="644" type="curve"/>
      <point x="766" y="535" type="line"/>
      <point x="675" y="664"/>
      <point x="591" y="724"/>
      <point x="471" y="724" type="curve" smooth="yes"/>
      <point x="360" y="724"/>
      <point x="286" y="638"/>
      <point x="286" y="533" type="curve" smooth="yes"/>
      <point x="286" y="418"/>
      <point x="343" y="314"/>
      <point x="518" y="164" type="curve"/>
      <point x="373" y="81" type="line"/>
      <point x="178" y="247"/>
      <point x="87" y="417"/>
      <point x="87" y="578" type="curve" smooth="yes"/>
      <point x="87" y="759"/>
      <point x="213" y="903"/>
      <point x="432" y="903" type="curve" smooth="yes"/>
      <point x="622" y="903"/>
      <point x="759" y="797"/>
    </contour>
    <contour>
      <point x="1478" y="1136" type="line"/>
      <point x="-32" y="1136" type="line"/>
      <point x="-32" y="1283" type="line"/>
      <point x="1478" y="1283" type="line"/>
    </contour>
    <contour>
      <point x="980" y="1169" type="line"/>
      <point x="1191" y="1169" type="line"/>
      <point x="1191" y="787" type="line"/>
      <point x="980" y="787" type="line"/>
    </contour>
    <contour>
      <point x="1227" y="343" type="curve"/>
      <point x="1122" y="262" type="line"/>
      <point x="1191" y="345"/>
      <point x="1227" y="438"/>
      <point x="1227" y="529" type="curve" smooth="yes"/>
      <point x="1227" y="618"/>
      <point x="1167" y="683"/>
      <point x="1067" y="683" type="curve" smooth="yes"/>
      <point x="944" y="683"/>
      <point x="841" y="565"/>
      <point x="791" y="357" type="curve"/>
      <point x="613" y="421" type="line"/>
      <point x="670" y="662"/>
      <point x="802" y="859"/>
      <point x="1054" y="861" type="curve" smooth="yes"/>
      <point x="1265" y="862"/>
      <point x="1410" y="705"/>
      <point x="1410" y="511" type="curve" smooth="yes"/>
      <point x="1410" y="413"/>
      <point x="1371" y="310"/>
      <point x="1313" y="222" type="curve"/>
      <point x="1308" y="222"/>
      <point x="1299" y="222"/>
      <point x="1293" y="222" type="curve" smooth="yes"/>
      <point x="1161" y="222"/>
      <point x="1117" y="161"/>
      <point x="1117" y="104" type="curve" smooth="yes"/>
      <point x="1117" y="51"/>
      <point x="1159" y="5"/>
      <point x="1248" y="5" type="curve" smooth="yes"/>
      <point x="1300" y="5"/>
      <point x="1343" y="14"/>
      <point x="1428" y="39" type="curve"/>
      <point x="1454" y="-88" type="line"/>
      <point x="1373" y="-109"/>
      <point x="1309" y="-119"/>
      <point x="1244" y="-119" type="curve" smooth="yes"/>
      <point x="1048" y="-119"/>
      <point x="936" y="-16"/>
      <point x="936" y="114" type="curve" smooth="yes"/>
      <point x="936" y="235"/>
      <point x="1041" y="332"/>
    </contour>
    <contour>
      <point x="1529" y="-368" type="line"/>
      <point x="1472" y="-390"/>
      <point x="1390" y="-410"/>
      <point x="1319" y="-410" type="curve" smooth="yes"/>
      <point x="1134" y="-410"/>
      <point x="1055" y="-313"/>
      <point x="1055" y="-210" type="curve" smooth="yes"/>
      <point x="1055" y="-90"/>
      <point x="1165" y="-6"/>
      <point x="1342" y="-5" type="curve"/>
      <point x="1367" y="-93" type="line"/>
      <point x="1269" y="-96"/>
      <point x="1218" y="-150"/>
      <point x="1218" y="-206" type="curve" smooth="yes"/>
      <point x="1218" y="-254"/>
      <point x="1253" y="-291"/>
      <point x="1337" y="-291" type="curve" smooth="yes"/>
      <point x="1388" y="-291"/>
      <point x="1438" y="-279"/>
      <point x="1504" y="-251" type="curve"/>
    </contour>
    <contour>
      <point x="1047" y="1261" type="move" name="mark0"/>
    </contour>
  </outline>
</glyph>
<glyph name="lvocalicvowelsigndeva" format="1">
  <advance width="-2"/>
  <unicode hex="0962"/>
  <outline>
    <contour>
      <point x="-276" y="-64" type="curve"/>
      <point x="-364" y="-148" type="line"/>
      <point x="-413" y="-74"/>
      <point x="-468" y="-39"/>
      <point x="-526" y="-39" type="curve" smooth="yes"/>
      <point x="-587" y="-39"/>
      <point x="-626" y="-84"/>
      <point x="-626" y="-137" type="curve" smooth="yes"/>
      <point x="-626" y="-195"/>
      <point x="-599" y="-250"/>
      <point x="-490" y="-336" type="curve"/>
      <point x="-591" y="-405" type="line"/>
      <point x="-715" y="-307"/>
      <point x="-764" y="-211"/>
      <point x="-764" y="-114" type="curve" smooth="yes"/>
      <point x="-764" y="-6"/>
      <point x="-684" y="88"/>
      <point x="-546" y="88" type="curve" smooth="yes"/>
      <point x="-433" y="88"/>
      <point x="-350" y="33"/>
    </contour>
    <contour>
      <point x="-79" y="-235" type="curve"/>
      <point x="-139" y="-282" type="line"/>
      <point x="-94" y="-231"/>
      <point x="-74" y="-189"/>
      <point x="-74" y="-137" type="curve" smooth="yes"/>
      <point x="-74" y="-93"/>
      <point x="-104" y="-53"/>
      <point x="-160" y="-53" type="curve" smooth="yes"/>
      <point x="-236" y="-53"/>
      <point x="-294" y="-129"/>
      <point x="-323" y="-245" type="curve"/>
      <point x="-443" y="-204" type="line"/>
      <point x="-410" y="-44"/>
      <point x="-313" y="74"/>
      <point x="-165" y="74" type="curve" smooth="yes"/>
      <point x="-33" y="74"/>
      <point x="47" y="-21"/>
      <point x="47" y="-132" type="curve" smooth="yes"/>
      <point x="47" y="-200"/>
      <point x="23" y="-270"/>
      <point x="-12" y="-323" type="curve"/>
      <point x="-98" y="-323"/>
      <point x="-138" y="-349"/>
      <point x="-138" y="-383" type="curve" smooth="yes"/>
      <point x="-138" y="-415"/>
      <point x="-116" y="-437"/>
      <point x="-63" y="-437" type="curve" smooth="yes"/>
      <point x="-29" y="-437"/>
      <point x="-1" y="-429"/>
      <point x="43" y="-409" type="curve"/>
      <point x="57" y="-504" type="line"/>
      <point x="13" y="-523"/>
      <point x="-22" y="-529"/>
      <point x="-68" y="-529" type="curve" smooth="yes"/>
      <point x="-184" y="-529"/>
      <point x="-255" y="-462"/>
      <point x="-255" y="-382" type="curve" smooth="yes"/>
      <point x="-255" y="-307"/>
      <point x="-196" y="-245"/>
    </contour>
    <contour>
      <point x="-433" y="0" type="move" name="_btm"/>
    </contour>
  </outline>
</glyph>
